# This file uses centimeters as units for non-parametric coordinates.

mtllib FAN-OBJ.mtl
g default
v 0.424760 29.736248 -0.138013
v 0.361322 29.736248 -0.262516
v 0.262516 29.736248 -0.361322
v 0.138013 29.736248 -0.424760
v 0.000000 29.736248 -0.446619
v -0.138013 29.736248 -0.424760
v -0.262516 29.736248 -0.361322
v -0.361322 29.736248 -0.262516
v -0.424760 29.736248 -0.138013
v -0.446619 29.736248 0.000000
v -0.424760 29.736248 0.138013
v -0.361322 29.736248 0.262516
v -0.262516 29.736248 0.361322
v -0.138013 29.736248 0.424760
v -0.000000 29.736248 0.446619
v 0.138013 29.736248 0.424760
v 0.262516 29.736248 0.361322
v 0.361322 29.736248 0.262516
v 0.424760 29.736248 0.138013
v 0.446619 29.736248 0.000000
v 0.424760 30.122912 -0.138013
v 0.361322 30.122912 -0.262516
v 0.262516 30.122912 -0.361322
v 0.138013 30.122912 -0.424760
v 0.000000 30.122912 -0.446619
v -0.138013 30.122912 -0.424760
v -0.262516 30.122912 -0.361322
v -0.361322 30.122912 -0.262516
v -0.424760 30.122912 -0.138013
v -0.446619 30.122912 0.000000
v -0.424760 30.122912 0.138013
v -0.361322 30.122912 0.262516
v -0.262516 30.122912 0.361322
v -0.138013 30.122912 0.424760
v -0.000000 30.122912 0.446619
v 0.138013 30.122912 0.424760
v 0.262516 30.122912 0.361322
v 0.361322 30.122912 0.262516
v 0.424760 30.122912 0.138013
v 0.446619 30.122912 0.000000
v 0.000000 29.736248 0.000000
v 0.000000 30.122912 0.000000
vt 0.648603 0.107966
vt 0.626409 0.064408
vt 0.591842 0.029841
vt 0.548284 0.007647
vt 0.500000 -0.000000
vt 0.451716 0.007647
vt 0.408159 0.029841
vt 0.373591 0.064409
vt 0.351397 0.107966
vt 0.343750 0.156250
vt 0.351397 0.204534
vt 0.373591 0.248091
vt 0.408159 0.282659
vt 0.451716 0.304853
vt 0.500000 0.312500
vt 0.548284 0.304853
vt 0.591841 0.282659
vt 0.626409 0.248091
vt 0.648603 0.204534
vt 0.656250 0.156250
vt 0.375000 0.312500
vt 0.387500 0.312500
vt 0.400000 0.312500
vt 0.412500 0.312500
vt 0.425000 0.312500
vt 0.437500 0.312500
vt 0.450000 0.312500
vt 0.462500 0.312500
vt 0.475000 0.312500
vt 0.487500 0.312500
vt 0.500000 0.312500
vt 0.512500 0.312500
vt 0.525000 0.312500
vt 0.537500 0.312500
vt 0.550000 0.312500
vt 0.562500 0.312500
vt 0.575000 0.312500
vt 0.587500 0.312500
vt 0.600000 0.312500
vt 0.612500 0.312500
vt 0.625000 0.312500
vt 0.375000 0.688440
vt 0.387500 0.688440
vt 0.400000 0.688440
vt 0.412500 0.688440
vt 0.425000 0.688440
vt 0.437500 0.688440
vt 0.450000 0.688440
vt 0.462500 0.688440
vt 0.475000 0.688440
vt 0.487500 0.688440
vt 0.500000 0.688440
vt 0.512500 0.688440
vt 0.525000 0.688440
vt 0.537500 0.688440
vt 0.550000 0.688440
vt 0.562500 0.688440
vt 0.575000 0.688440
vt 0.587500 0.688440
vt 0.600000 0.688440
vt 0.612500 0.688440
vt 0.625000 0.688440
vt 0.648603 0.795466
vt 0.626409 0.751908
vt 0.591842 0.717341
vt 0.548284 0.695147
vt 0.500000 0.687500
vt 0.451716 0.695147
vt 0.408159 0.717341
vt 0.373591 0.751909
vt 0.351397 0.795466
vt 0.343750 0.843750
vt 0.351397 0.892034
vt 0.373591 0.935591
vt 0.408159 0.970159
vt 0.451716 0.992353
vt 0.500000 1.000000
vt 0.548284 0.992353
vt 0.591841 0.970159
vt 0.626409 0.935591
vt 0.648603 0.892034
vt 0.656250 0.843750
vt 0.500000 0.150000
vt 0.500000 0.837500
vn 0.951057 0.000000 -0.309016
vn 0.809017 0.000000 -0.587785
vn 0.809017 0.000000 -0.587785
vn 0.951057 0.000000 -0.309016
vn 0.587785 0.000000 -0.809017
vn 0.587785 0.000000 -0.809017
vn 0.309017 0.000000 -0.951056
vn 0.309017 0.000000 -0.951056
vn -0.000000 0.000000 -1.000000
vn -0.000000 0.000000 -1.000000
vn -0.309017 0.000000 -0.951056
vn -0.309017 0.000000 -0.951056
vn -0.587785 0.000000 -0.809017
vn -0.587785 0.000000 -0.809017
vn -0.809017 0.000000 -0.587785
vn -0.809017 0.000000 -0.587785
vn -0.951057 0.000000 -0.309017
vn -0.951057 0.000000 -0.309017
vn -1.000000 0.000000 0.000000
vn -1.000000 0.000000 0.000000
vn -0.951057 0.000000 0.309017
vn -0.951057 0.000000 0.309017
vn -0.809017 0.000000 0.587785
vn -0.809017 0.000000 0.587785
vn -0.587785 0.000000 0.809017
vn -0.587785 0.000000 0.809017
vn -0.309017 0.000000 0.951056
vn -0.309017 0.000000 0.951056
vn 0.000000 0.000000 1.000000
vn 0.000000 0.000000 1.000000
vn 0.309017 0.000000 0.951057
vn 0.309017 0.000000 0.951057
vn 0.587785 0.000000 0.809017
vn 0.587785 0.000000 0.809017
vn 0.809017 0.000000 0.587785
vn 0.809017 0.000000 0.587785
vn 0.951057 0.000000 0.309017
vn 0.951057 0.000000 0.309017
vn 1.000000 0.000000 0.000001
vn 1.000000 0.000000 0.000001
vn 0.000000 -1.000000 0.000000
vn 0.000000 -1.000000 0.000000
vn 0.000000 -1.000000 0.000000
vn 0.000000 -1.000000 0.000000
vn 0.000000 -1.000000 0.000000
vn 0.000000 -1.000000 0.000000
vn 0.000000 -1.000000 0.000000
vn 0.000000 -1.000000 0.000000
vn 0.000000 -1.000000 0.000000
vn 0.000000 -1.000000 0.000000
vn 0.000000 -1.000000 0.000000
vn 0.000000 -1.000000 0.000000
vn 0.000000 -1.000000 0.000000
vn 0.000000 -1.000000 0.000000
vn 0.000000 -1.000000 0.000000
vn 0.000000 -1.000000 0.000000
vn 0.000000 -1.000000 0.000000
vn 0.000000 -1.000000 0.000000
vn 0.000000 -1.000000 0.000000
vn 0.000000 -1.000000 0.000000
vn 0.000000 -1.000000 0.000000
vn 0.000000 1.000000 0.000000
vn 0.000000 1.000000 0.000000
vn 0.000000 1.000000 0.000000
vn 0.000000 1.000000 0.000000
vn 0.000000 1.000000 0.000000
vn 0.000000 1.000000 0.000000
vn 0.000000 1.000000 0.000000
vn 0.000000 1.000000 0.000000
vn 0.000000 1.000000 0.000000
vn 0.000000 1.000000 0.000000
vn 0.000000 1.000000 0.000000
vn 0.000000 1.000000 0.000000
vn 0.000000 1.000000 0.000000
vn 0.000000 1.000000 0.000000
vn 0.000000 1.000000 0.000000
vn 0.000000 1.000000 0.000000
vn 0.000000 1.000000 0.000000
vn 0.000000 1.000000 0.000000
vn 0.000000 1.000000 0.000000
vn 0.000000 1.000000 0.000000
vn 0.000000 1.000000 0.000000
s 1
g PART1 FAN
usemtl initialShadingGroup
f 1/21/1 2/22/2 22/43/3 21/42/4
f 2/22/2 3/23/5 23/44/6 22/43/3
f 3/23/5 4/24/7 24/45/8 23/44/6
f 4/24/7 5/25/9 25/46/10 24/45/8
f 5/25/9 6/26/11 26/47/12 25/46/10
f 6/26/11 7/27/13 27/48/14 26/47/12
f 7/27/13 8/28/15 28/49/16 27/48/14
f 8/28/15 9/29/17 29/50/18 28/49/16
f 9/29/17 10/30/19 30/51/20 29/50/18
f 10/30/19 11/31/21 31/52/22 30/51/20
f 11/31/21 12/32/23 32/53/24 31/52/22
f 12/32/23 13/33/25 33/54/26 32/53/24
f 13/33/25 14/34/27 34/55/28 33/54/26
f 14/34/27 15/35/29 35/56/30 34/55/28
f 15/35/29 16/36/31 36/57/32 35/56/30
f 16/36/31 17/37/33 37/58/34 36/57/32
f 17/37/33 18/38/35 38/59/36 37/58/34
f 18/38/35 19/39/37 39/60/38 38/59/36
f 19/39/37 20/40/39 40/61/40 39/60/38
f 20/40/39 1/41/1 21/62/4 40/61/40
s 2
f 2/2/41 1/1/42 41/83/43
f 3/3/44 2/2/41 41/83/43
f 4/4/45 3/3/44 41/83/43
f 5/5/46 4/4/45 41/83/43
f 6/6/47 5/5/46 41/83/43
f 7/7/48 6/6/47 41/83/43
f 8/8/49 7/7/48 41/83/43
f 9/9/50 8/8/49 41/83/43
f 10/10/51 9/9/50 41/83/43
f 11/11/52 10/10/51 41/83/43
f 12/12/53 11/11/52 41/83/43
f 13/13/54 12/12/53 41/83/43
f 14/14/55 13/13/54 41/83/43
f 15/15/56 14/14/55 41/83/43
f 16/16/57 15/15/56 41/83/43
f 17/17/58 16/16/57 41/83/43
f 18/18/59 17/17/58 41/83/43
f 19/19/60 18/18/59 41/83/43
f 20/20/61 19/19/60 41/83/43
f 1/1/42 20/20/61 41/83/43
s 3
f 21/81/62 22/80/63 42/84/64
f 22/80/63 23/79/65 42/84/64
f 23/79/65 24/78/66 42/84/64
f 24/78/66 25/77/67 42/84/64
f 25/77/67 26/76/68 42/84/64
f 26/76/68 27/75/69 42/84/64
f 27/75/69 28/74/70 42/84/64
f 28/74/70 29/73/71 42/84/64
f 29/73/71 30/72/72 42/84/64
f 30/72/72 31/71/73 42/84/64
f 31/71/73 32/70/74 42/84/64
f 32/70/74 33/69/75 42/84/64
f 33/69/75 34/68/76 42/84/64
f 34/68/76 35/67/77 42/84/64
f 35/67/77 36/66/78 42/84/64
f 36/66/78 37/65/79 42/84/64
f 37/65/79 38/64/80 42/84/64
f 38/64/80 39/63/81 42/84/64
f 39/63/81 40/82/82 42/84/64
f 40/82/82 21/81/62 42/84/64
g default
v 0.066814 26.599508 -0.021709
v 0.056835 26.599508 -0.041293
v 0.041293 26.599508 -0.056835
v 0.021709 26.599508 -0.066814
v -0.000000 26.599508 -0.070252
v -0.021709 26.599508 -0.066814
v -0.041293 26.599508 -0.056835
v -0.056835 26.599508 -0.041293
v -0.066814 26.599508 -0.021709
v -0.070252 26.599508 0.000000
v -0.066814 26.599508 0.021709
v -0.056835 26.599508 0.041293
v -0.041293 26.599508 0.056835
v -0.021709 26.599508 0.066814
v -0.000000 26.599508 0.070252
v 0.021709 26.599508 0.066814
v 0.041293 26.599508 0.056835
v 0.056835 26.599508 0.041293
v 0.066814 26.599508 0.021709
v 0.070252 26.599508 -0.000000
v 0.066814 30.103222 -0.021709
v 0.056835 30.103222 -0.041293
v 0.041293 30.103222 -0.056835
v 0.021709 30.103222 -0.066814
v -0.000000 30.103222 -0.070252
v -0.021709 30.103222 -0.066814
v -0.041293 30.103222 -0.056835
v -0.056835 30.103222 -0.041293
v -0.066814 30.103222 -0.021709
v -0.070252 30.103222 0.000000
v -0.066814 30.103222 0.021709
v -0.056835 30.103222 0.041293
v -0.041293 30.103222 0.056835
v -0.021709 30.103222 0.066814
v -0.000000 30.103222 0.070252
v 0.021709 30.103222 0.066814
v 0.041293 30.103222 0.056835
v 0.056835 30.103222 0.041293
v 0.066814 30.103222 0.021709
v 0.070252 30.103222 -0.000000
v -0.000000 26.599508 -0.000000
v -0.000000 30.103222 -0.000000
v -0.066814 26.955056 0.021709
v -0.070252 26.955056 0.000000
v -0.066814 26.955056 -0.021709
v -0.056835 26.955056 -0.041293
v -0.041293 26.955056 -0.056835
v -0.021709 26.955056 -0.066814
v -0.000000 26.955056 -0.070252
v 0.021709 26.955056 -0.066814
v 0.041293 26.955056 -0.056835
v 0.056835 26.955056 -0.041293
v 0.066814 26.955056 -0.021709
v 0.070252 26.955056 -0.000000
v 0.066814 26.955056 0.021709
v 0.056835 26.955056 0.041293
v 0.041293 26.955056 0.056835
v 0.021709 26.955056 0.066814
v -0.000000 26.955056 0.070252
v -0.021709 26.955056 0.066814
v -0.041293 26.955056 0.056835
v -0.056835 26.955056 0.041293
v -0.066814 26.894089 0.021709
v -0.070252 26.894089 0.000000
v -0.066814 26.894089 -0.021709
v -0.056835 26.894089 -0.041293
v -0.041293 26.894089 -0.056835
v -0.021709 26.894089 -0.066814
v -0.000000 26.894089 -0.070252
v 0.021709 26.894089 -0.066814
v 0.041293 26.894089 -0.056835
v 0.056835 26.894089 -0.041293
v 0.066814 26.894089 -0.021709
v 0.070252 26.894089 -0.000000
v 0.066814 26.894089 0.021709
v 0.056835 26.894089 0.041293
v 0.041293 26.894089 0.056835
v 0.021709 26.894089 0.066814
v -0.000000 26.894089 0.070252
v -0.021709 26.894089 0.066814
v -0.041293 26.894089 0.056835
v -0.056835 26.894089 0.041293
v -0.163105 26.894089 0.052996
v -0.171498 26.894089 -0.000000
v -0.163105 26.955056 0.052996
v -0.171498 26.955056 0.000000
v -0.163105 26.894089 -0.052996
v -0.163105 26.955056 -0.052996
v -0.138745 26.894089 -0.100804
v -0.138745 26.955056 -0.100804
v -0.100804 26.894089 -0.138745
v -0.100804 26.955056 -0.138745
v -0.052996 26.894089 -0.163105
v -0.052996 26.955056 -0.163105
v -0.000000 26.894089 -0.171499
v -0.000000 26.955056 -0.171499
v 0.052996 26.894089 -0.163105
v 0.052996 26.955056 -0.163105
v 0.100804 26.894089 -0.138745
v 0.100804 26.955056 -0.138745
v 0.138745 26.894089 -0.100804
v 0.138745 26.955056 -0.100804
v 0.163105 26.894089 -0.052996
v 0.163105 26.955056 -0.052996
v 0.171498 26.894089 0.000000
v 0.171498 26.955056 0.000000
v 0.163105 26.894089 0.052996
v 0.163105 26.955056 0.052996
v 0.138745 26.894089 0.100804
v 0.138745 26.955056 0.100804
v 0.100804 26.894089 0.138745
v 0.100804 26.955056 0.138745
v 0.052996 26.894089 0.163105
v 0.052996 26.955056 0.163105
v 0.000000 26.894089 0.171498
v 0.000000 26.955056 0.171498
v -0.052996 26.894089 0.163105
v -0.052996 26.955056 0.163105
v -0.100804 26.894089 0.138745
v -0.100804 26.955056 0.138745
v -0.138745 26.894089 0.100804
v -0.138745 26.955056 0.100804
v -0.848330 26.266923 0.436950
v -0.937438 26.266923 0.137039
v 0.053899 26.266923 0.005693
v 0.956129 26.266923 -0.425564
v 1.045236 26.266923 -0.125652
v 0.104818 26.874633 -0.042707
v 0.778705 26.363256 -0.683261
v 0.530332 26.363256 -0.873518
v 0.087369 26.874633 -0.056073
v -0.007867 26.874633 -0.027777
v -0.825312 26.363256 -0.470739
v -0.929506 26.363256 -0.175730
v -0.015187 26.874633 -0.007052
v -5.318581 26.266923 1.864591
v -5.391770 26.266923 1.405328
v 0.956129 26.363256 -0.425564
v 1.045236 26.363256 -0.125652
v -0.670906 26.266923 0.694647
v 1.037305 26.266923 0.187117
v 0.023602 26.626968 -0.057690
v 0.053899 26.626968 0.005693
v 0.044672 26.626968 -0.063950
v 0.066644 26.626968 -0.063393
v 0.005499 26.626968 -0.045226
v 0.087369 26.626968 -0.056073
v -0.007867 26.626968 -0.027777
v 0.104818 26.626968 -0.042707
v -0.015187 26.626968 -0.007052
v -5.318581 26.363256 1.864591
v -5.391770 26.363256 1.405328
v 0.117283 26.626968 -0.024603
v -0.015744 26.626968 0.014921
v -0.009484 26.626968 0.035990
v 0.123542 26.626968 -0.003534
v 0.002980 26.626968 0.054094
v 0.122985 26.626968 0.018439
v -0.848330 26.363256 0.436950
v -0.937438 26.363256 0.137039
v 0.020429 26.626968 0.067460
v 0.115665 26.626968 0.039164
v 0.117283 26.874633 -0.024603
v -0.015744 26.874633 0.014921
v 0.102299 26.626968 0.056612
v 0.041154 26.626968 0.074780
v 0.084196 26.626968 0.069077
v 0.063126 26.626968 0.075337
v -0.422533 26.266923 0.884905
v 0.933110 26.266923 0.482126
v 0.742853 26.266923 0.730499
v -0.127524 26.266923 0.989099
v -0.009484 26.874633 0.035990
v 0.123542 26.874633 -0.003534
v 0.044672 26.874633 -0.063950
v 0.023602 26.874633 -0.057690
v 0.485156 26.266923 0.907923
v 0.185244 26.266923 0.997030
v 0.066644 26.874633 -0.063393
v 0.005499 26.874633 -0.045226
v -5.281408 26.266923 2.097847
v 1.037305 26.363256 0.187117
v 0.002980 26.874633 0.054094
v 0.122985 26.874633 0.018439
v 0.020429 26.874633 0.067460
v 0.115665 26.874633 0.039164
v 0.102299 26.874633 0.056612
v 0.041154 26.874633 0.074780
v -5.281408 26.363256 2.097847
v -0.670906 26.363256 0.694647
v 0.084196 26.874633 0.069077
v 0.063126 26.874633 0.075337
v -0.422533 26.363256 0.884905
v 0.933110 26.363256 0.482126
v 0.742853 26.363256 0.730499
v -0.127524 26.363256 0.989099
v 0.485156 26.363256 0.907923
v 0.185244 26.363256 0.997030
v 3.700203 26.363256 4.413695
v 3.700203 26.266923 4.413695
v 3.474506 26.266923 4.536922
v 3.474507 26.363256 4.536922
v 3.052894 26.266923 4.767107
v 2.811469 26.266923 4.898912
v 3.052893 26.363256 4.767108
v 2.811469 26.363256 4.898912
v -0.635055 26.363256 -0.719112
v 0.235322 26.363256 -0.977712
v -0.929506 26.266923 -0.175730
v 0.778705 26.266923 -0.683261
v -0.377358 26.363256 -0.896536
v -0.077446 26.363256 -0.985644
v -5.435687 26.363256 1.129751
v -0.825312 26.266923 -0.470739
v 0.530332 26.266923 -0.873518
v -5.435687 26.266923 1.129751
v -0.635055 26.266923 -0.719112
v 0.235322 26.266923 -0.977712
v -0.377358 26.266923 -0.896536
v -0.077446 26.266923 -0.985644
v 3.843835 26.266923 -4.351802
v 3.843835 26.363256 -4.351802
v 3.670900 26.363256 -4.458759
v 3.670900 26.266923 -4.458759
v 3.348223 26.363256 -4.658319
v 3.348223 26.266923 -4.658319
v 3.163652 26.363256 -4.772464
v 3.163652 26.266923 -4.772464
v -0.127774 26.811664 -0.027822
v -0.108525 26.811664 -0.082322
v -0.073377 26.811664 -0.128206
v -0.025771 26.811664 -0.160983
v 0.029635 26.811664 -0.177445
v 0.087415 26.811664 -0.175980
v 0.141915 26.811664 -0.156731
v 0.187799 26.811664 -0.121583
v 0.220576 26.811664 -0.073976
v 0.237037 26.811664 -0.018571
v 0.235572 26.811664 0.039209
v 0.216323 26.811664 0.093709
v 0.181175 26.811664 0.139593
v 0.133569 26.811664 0.172370
v 0.078164 26.811664 0.188832
v 0.020383 26.811664 0.187366
v -0.034116 26.811664 0.168118
v -0.080001 26.811664 0.132970
v -0.112778 26.811664 0.085363
v -0.129239 26.811664 0.029958
v -0.220634 26.741531 -0.143072
v -0.253168 26.741531 -0.050956
v -0.255645 26.741531 0.046706
v -0.227821 26.741531 0.140353
v -0.172421 26.741531 0.220819
v -0.094867 26.741531 0.280226
v -0.002750 26.741531 0.312761
v 0.094912 26.741531 0.315237
v 0.188559 26.741531 0.287414
v 0.269024 26.741531 0.232013
v 0.328432 26.741531 0.154459
v 0.360967 26.741531 0.062343
v 0.363443 26.741531 -0.035319
v 0.335619 26.741531 -0.128966
v 0.280219 26.741531 -0.209432
v 0.202665 26.741531 -0.268839
v 0.110548 26.741531 -0.301374
v 0.012887 26.741531 -0.303851
v -0.080760 26.741531 -0.276027
v -0.161226 26.741531 -0.220626
v -0.312245 26.684221 -0.192715
v -0.355636 26.684221 -0.069859
v -0.358939 26.684221 0.060392
v -0.321831 26.684221 0.185289
v -0.247943 26.684221 0.292605
v -0.144509 26.684221 0.371837
v -0.021654 26.684221 0.415228
v 0.108597 26.684221 0.418531
v 0.233494 26.684221 0.381423
v 0.340811 26.684221 0.307536
v 0.420043 26.684221 0.204102
v 0.463434 26.684221 0.081246
v 0.466737 26.684221 -0.049005
v 0.429629 26.684221 -0.173902
v 0.355741 26.684221 -0.281219
v 0.252307 26.684221 -0.360450
v 0.129452 26.684221 -0.403842
v -0.000799 26.684221 -0.407145
v -0.125696 26.684221 -0.370036
v -0.233013 26.684221 -0.296149
v -0.377706 26.643270 -0.228188
v -0.428855 26.643270 -0.083367
v -0.432749 26.643270 0.070171
v -0.389006 26.643270 0.217398
v -0.301908 26.643270 0.343901
v -0.179982 26.643270 0.437299
v -0.035162 26.643270 0.488448
v 0.118377 26.643270 0.492341
v 0.265603 26.643270 0.448598
v 0.392107 26.643270 0.361501
v 0.485504 26.643270 0.239575
v 0.536654 26.643270 0.094754
v 0.540547 26.643270 -0.058784
v 0.496804 26.643270 -0.206011
v 0.409707 26.643270 -0.332515
v 0.287780 26.643270 -0.425912
v 0.142960 26.643270 -0.477061
v -0.010579 26.643270 -0.480955
v -0.157805 26.643270 -0.437212
v -0.284309 26.643270 -0.350114
v -0.465541 26.588322 -0.275784
v -0.527100 26.588322 -0.101492
v -0.531785 26.588322 0.083293
v -0.479140 26.588322 0.260481
v -0.374318 26.588322 0.412729
v -0.227579 26.588322 0.525134
v -0.053286 26.588322 0.586692
v 0.131498 26.588322 0.591378
v 0.308687 26.588322 0.538733
v 0.460935 26.588322 0.433910
v 0.573339 26.588322 0.287171
v 0.634898 26.588322 0.112879
v 0.639584 26.588322 -0.071906
v 0.586939 26.588322 -0.249094
v 0.482116 26.588322 -0.401342
v 0.335377 26.588322 -0.513747
v 0.161084 26.588322 -0.575305
v -0.023700 26.588322 -0.579991
v -0.200889 26.588322 -0.527346
v -0.353137 26.588322 -0.422524
v -0.562834 26.527457 -0.328506
v -0.635922 26.527457 -0.121568
v -0.641486 26.527457 0.097827
v -0.578981 26.527457 0.308204
v -0.454524 26.527457 0.488968
v -0.280300 26.527457 0.622427
v -0.073362 26.527457 0.695515
v 0.146033 26.527457 0.701078
v 0.356409 26.527457 0.638573
v 0.537174 26.527457 0.514117
v 0.670632 26.527457 0.339893
v 0.743721 26.527457 0.132955
v 0.749284 26.527457 -0.086440
v 0.686779 26.527457 -0.296817
v 0.562323 26.527457 -0.477582
v 0.388098 26.527457 -0.611040
v 0.181160 26.527457 -0.684128
v -0.038235 26.527457 -0.689692
v -0.248611 26.527457 -0.627186
v -0.429376 26.527457 -0.502730
v -0.656564 26.468822 -0.379296
v -0.740759 26.468822 -0.140909
v -0.747169 26.468822 0.111829
v -0.675164 26.468822 0.354178
v -0.531793 26.468822 0.562415
v -0.331091 26.468822 0.716156
v -0.092703 26.468822 0.800352
v 0.160035 26.468822 0.806761
v 0.402384 26.468822 0.734756
v 0.610620 26.468822 0.591385
v 0.764361 26.468822 0.390683
v 0.848558 26.468822 0.152296
v 0.854967 26.468822 -0.100443
v 0.782962 26.468822 -0.342792
v 0.639591 26.468822 -0.551028
v 0.438889 26.468822 -0.704769
v 0.200501 26.468822 -0.788965
v -0.052237 26.468822 -0.795374
v -0.294586 26.468822 -0.723369
v -0.502823 26.468822 -0.579999
v -0.707115 26.437198 -0.406690
v -0.797301 26.437198 -0.151340
v -0.804167 26.437198 0.119381
v -0.727038 26.437198 0.378974
v -0.573467 26.437198 0.602027
v -0.358484 26.437198 0.766707
v -0.103134 26.437198 0.856894
v 0.167587 26.437198 0.863759
v 0.427179 26.437198 0.786631
v 0.650233 26.437198 0.633059
v 0.814913 26.437198 0.418076
v 0.905100 26.437198 0.162727
v 0.911965 26.437198 -0.107994
v 0.834837 26.437198 -0.367587
v 0.681265 26.437198 -0.590641
v 0.466282 26.437198 -0.755321
v 0.210932 26.437198 -0.845507
v -0.059789 26.437198 -0.852372
v -0.319381 26.437198 -0.775244
v -0.542435 26.437198 -0.621672
v -0.790816 26.384836 -0.452046
v -0.890922 26.384836 -0.168611
v -0.898543 26.384836 0.131885
v -0.812931 26.384836 0.420030
v -0.642469 26.384836 0.667616
v -0.403841 26.384836 0.850409
v -0.120406 26.384836 0.950515
v 0.180091 26.384836 0.958135
v 0.468235 26.384836 0.872524
v 0.715822 26.384836 0.702061
v 0.898614 26.384836 0.463433
v 0.998721 26.384836 0.179998
v 1.006341 26.384836 -0.120499
v 0.920730 26.384836 -0.408643
v 0.750267 26.384836 -0.656229
v 0.511639 26.384836 -0.839022
v 0.228204 26.384836 -0.939128
v -0.072293 26.384836 -0.946749
v -0.360437 26.384836 -0.861137
v -0.608024 26.384836 -0.690674
v -5.435687 26.275732 1.129751
v -5.391770 26.275732 1.405328
v -5.318581 26.275732 1.864591
v -5.281408 26.275732 2.097847
v -0.670906 26.275732 0.694647
v -0.422533 26.275732 0.884905
v -0.127524 26.275732 0.989099
v 0.185244 26.275732 0.997030
v 2.811469 26.275732 4.898912
v 3.052894 26.275732 4.767107
v 3.474506 26.275732 4.536922
v 3.700203 26.275732 4.413695
v 0.933110 26.275732 0.482126
v 1.037305 26.275732 0.187117
v 1.045236 26.275732 -0.125652
v 0.956129 26.275732 -0.425564
v 3.843835 26.275732 -4.351802
v 3.670900 26.275732 -4.458759
v 3.348223 26.275732 -4.658319
v 3.163652 26.275732 -4.772464
v 0.235322 26.275732 -0.977712
v -0.077446 26.275732 -0.985644
v -0.377358 26.275732 -0.896536
v -0.635055 26.275732 -0.719112
v -0.825312 26.275732 -0.470739
v -0.929506 26.275732 -0.175730
v -5.435687 26.345294 1.129751
v -5.391770 26.345294 1.405328
v -5.318581 26.345294 1.864591
v -5.281408 26.345294 2.097847
v -0.670906 26.345294 0.694647
v -0.422533 26.345294 0.884905
v -0.127524 26.345294 0.989099
v 0.185244 26.345294 0.997030
v 2.811469 26.345294 4.898912
v 3.052893 26.345294 4.767108
v 3.474507 26.345294 4.536922
v 3.700203 26.345294 4.413695
v 0.933110 26.345294 0.482126
v 1.037305 26.345294 0.187117
v 1.045236 26.345294 -0.125652
v 0.956129 26.345294 -0.425564
v 3.843835 26.345294 -4.351802
v 3.670900 26.345294 -4.458759
v 3.348223 26.345294 -4.658319
v 3.163652 26.345294 -4.772464
v 0.235322 26.345294 -0.977712
v -0.077446 26.345294 -0.985644
v -0.377358 26.345294 -0.896536
v -0.635055 26.345294 -0.719112
v -0.825312 26.345294 -0.470739
v -0.929506 26.345294 -0.175730
vt 0.765547 0.457195
vt 0.739641 0.406064
vt 0.699152 0.365461
vt 0.648201 0.339500
vt 0.591721 0.330554
vt 0.535241 0.339500
vt 0.484290 0.365461
vt 0.443855 0.405896
vt 0.417895 0.456847
vt 0.408949 0.513326
vt 0.417895 0.569806
vt 0.443855 0.620757
vt 0.484290 0.661192
vt 0.535241 0.687153
vt 0.591721 0.696098
vt 0.648201 0.687153
vt 0.699151 0.661192
vt 0.739586 0.620757
vt 0.765492 0.569974
vt 0.774493 0.513675
vt 0.001947 0.003999
vt 0.016568 0.003999
vt 0.020947 0.004269
vt 0.025227 0.004530
vt 0.029407 0.004793
vt 0.033503 0.005048
vt 0.037512 0.005293
vt 0.041446 0.005530
vt 0.045303 0.005767
vt 0.049091 0.005999
vt 0.052822 0.006224
vt 0.056492 0.006443
vt 0.060122 0.006651
vt 0.063701 0.006850
vt 0.067243 0.007041
vt 0.070760 0.007219
vt 0.074247 0.007387
vt 0.077716 0.007551
vt 0.081157 0.007709
vt 0.084597 0.007868
vt 0.088024 0.008027
vt 0.150594 0.474668
vt 0.153307 0.473840
vt 0.156021 0.473011
vt 0.158734 0.472182
vt 0.161448 0.471353
vt 0.164161 0.470524
vt 0.166874 0.469694
vt 0.169588 0.468864
vt 0.172301 0.468034
vt 0.175016 0.467205
vt 0.177728 0.466376
vt 0.180442 0.465547
vt 0.183155 0.464717
vt 0.185868 0.463888
vt 0.188581 0.463058
vt 0.191294 0.462229
vt 0.194007 0.461399
vt 0.196719 0.460569
vt 0.199431 0.459740
vt 0.202144 0.458911
vt 0.204856 0.458081
vt 0.185912 0.470902
vt 0.134780 0.496808
vt 0.094177 0.537298
vt 0.068216 0.588249
vt 0.059271 0.644729
vt 0.068216 0.701208
vt 0.094177 0.752159
vt 0.134612 0.792594
vt 0.185563 0.818555
vt 0.242043 0.827501
vt 0.298522 0.818555
vt 0.349473 0.792594
vt 0.389908 0.752159
vt 0.415869 0.701208
vt 0.424814 0.644729
vt 0.415869 0.588249
vt 0.389908 0.537298
vt 0.349473 0.496863
vt 0.298691 0.470957
vt 0.242391 0.461957
vt 0.591721 0.513369
vt 0.242085 0.644729
vt 0.058973 0.077558
vt 0.056238 0.078373
vt 0.053502 0.079194
vt 0.050767 0.080022
vt 0.048035 0.080859
vt 0.045307 0.081703
vt 0.042585 0.082554
vt 0.039871 0.083412
vt 0.037170 0.084274
vt 0.034484 0.085137
vt 0.086036 0.069628
vt 0.031819 0.085994
vt 0.083369 0.070422
vt 0.080691 0.071210
vt 0.078001 0.071995
vt 0.075303 0.072780
vt 0.072595 0.073566
vt 0.069882 0.074356
vt 0.067161 0.075149
vt 0.064436 0.075947
vt 0.061706 0.076750
vt 0.054849 0.056638
vt 0.051537 0.057200
vt 0.048173 0.057811
vt 0.044747 0.058475
vt 0.041250 0.059195
vt 0.037675 0.059970
vt 0.034015 0.060806
vt 0.030262 0.061703
vt 0.026415 0.062657
vt 0.022474 0.063661
vt 0.085851 0.053976
vt 0.018453 0.064692
vt 0.082910 0.053959
vt 0.079924 0.054018
vt 0.076902 0.054147
vt 0.073848 0.054340
vt 0.070766 0.054593
vt 0.067654 0.054902
vt 0.064510 0.055261
vt 0.061331 0.055671
vt 0.058113 0.056131
vt 0.053352 0.066094
vt 0.056435 0.065407
vt 0.057167 0.069101
vt 0.054188 0.069819
vt 0.050223 0.066812
vt 0.051164 0.070588
vt 0.047050 0.067587
vt 0.048112 0.071385
vt 0.043812 0.068426
vt 0.045020 0.072251
vt 0.040513 0.069353
vt 0.041883 0.073200
vt 0.037100 0.070381
vt 0.038653 0.074239
vt 0.033550 0.071574
vt 0.035333 0.075452
vt 0.029775 0.073008
vt 0.031887 0.076949
vt 0.025613 0.074768
vt 0.028334 0.078937
vt 0.020627 0.076909
vt 0.024818 0.081852
vt 0.083652 0.061236
vt 0.087002 0.061064
vt 0.086609 0.064328
vt 0.083589 0.064299
vt 0.080521 0.061461
vt 0.080601 0.064548
vt 0.077477 0.061768
vt 0.077647 0.064941
vt 0.074478 0.062153
vt 0.074726 0.065420
vt 0.071490 0.062595
vt 0.071812 0.065955
vt 0.068518 0.063071
vt 0.068918 0.066508
vt 0.065521 0.063596
vt 0.066007 0.067100
vt 0.062516 0.064161
vt 0.063077 0.067739
vt 0.059484 0.064771
vt 0.060123 0.068397
vt 0.674787 0.346602
vt 0.632219 0.305544
vt 0.782218 0.191426
vt 0.889649 0.037586
vt 0.931973 0.078302
vt 0.426596 0.182582
vt 0.447348 0.175753
vt 0.449741 0.191351
vt 0.427342 0.191362
vt 0.399313 0.219267
vt 0.399380 0.241760
vt 0.383899 0.239286
vt 0.390814 0.217881
vt 0.048212 0.233295
vt 0.048207 0.233289
vt 0.048211 0.233294
vt 0.048212 0.233295
vt 0.053404 0.223192
vt 0.053489 0.223391
vt 0.053488 0.223392
vt 0.053389 0.223198
vt 0.727872 0.371939
vt 0.959699 0.130038
vt 0.944210 0.718608
vt 0.796344 0.818728
vt 0.905908 0.677550
vt 0.856720 0.650386
vt 0.968037 0.768936
vt 0.801493 0.639819
vt 0.975220 0.824213
vt 0.745696 0.646918
vt 0.965022 0.879070
vt 0.048212 0.233294
vt 0.048211 0.233294
vt 0.048211 0.233294
vt 0.048211 0.233294
vt 0.695018 0.670984
vt 0.938378 0.928175
vt 0.897671 0.966715
vt 0.654304 0.709526
vt 0.846998 0.990783
vt 0.627491 0.758757
vt 0.048204 0.233279
vt 0.048202 0.233276
vt 0.791371 0.998008
vt 0.617226 0.813821
vt 0.422015 0.174954
vt 0.440093 0.161730
vt 0.383142 0.213913
vt 0.369940 0.232130
vt 0.624407 0.869516
vt 0.736211 0.987647
vt 0.648479 0.920186
vt 0.687025 0.960902
vt 0.786114 0.379683
vt 0.969965 0.187933
vt 0.961871 0.246134
vt 0.843846 0.369115
vt 0.358856 0.220995
vt 0.377042 0.207751
vt 0.415567 0.168863
vt 0.428854 0.150621
vt 0.001990 0.203371
vt 0.001985 0.199511
vt 0.045701 0.199511
vt 0.045696 0.203371
vt 0.936189 0.298978
vt 0.895481 0.341308
vt 0.001986 0.207247
vt 0.045700 0.207247
vt 0.001979 0.195649
vt 0.045707 0.195650
vt 0.001988 0.211128
vt 0.045698 0.211128
vt 0.001968 0.191784
vt 0.045719 0.191784
vt 0.001988 0.215007
vt 0.045698 0.215007
vt 0.001959 0.187913
vt 0.045726 0.187914
vt 0.001987 0.218886
vt 0.045698 0.218886
vt 0.001948 0.184035
vt 0.045738 0.184034
vt 0.048202 0.233284
vt 0.048211 0.233294
vt 0.053270 0.222855
vt 0.053251 0.222863
vt 0.001947 0.180146
vt 0.045739 0.180148
vt 0.001986 0.222767
vt 0.045700 0.222767
vt 0.001948 0.176251
vt 0.045738 0.176250
vt 0.001990 0.226647
vt 0.045696 0.226647
vt 0.001965 0.172350
vt 0.045721 0.172352
vt 0.002042 0.152929
vt 0.002045 0.149059
vt 0.045641 0.149059
vt 0.045644 0.152928
vt 0.002037 0.156800
vt 0.045649 0.156801
vt 0.001983 0.168453
vt 0.045703 0.168452
vt 0.048211 0.233294
vt 0.048211 0.233294
vt 0.048205 0.233280
vt 0.002021 0.160678
vt 0.045665 0.160677
vt 0.002007 0.164560
vt 0.045679 0.164562
vt 0.351722 0.206973
vt 0.373110 0.199996
vt 0.407714 0.164944
vt 0.414768 0.143504
vt 0.048205 0.233281
vt 0.349233 0.191435
vt 0.371731 0.191405
vt 0.399132 0.163600
vt 0.399214 0.141075
vt 0.048123 0.233063
vt 0.048139 0.233056
vt 0.047843 0.232527
vt 0.047815 0.232486
vt 0.047818 0.232485
vt 0.047843 0.232527
vt 0.390611 0.164970
vt 0.383704 0.143569
vt 0.351635 0.175898
vt 0.373040 0.182817
vt 0.382959 0.168922
vt 0.369746 0.150737
vt 0.358699 0.161876
vt 0.376907 0.175071
vt 0.047963 0.232723
vt 0.047978 0.232715
vt 0.047845 0.232530
vt 0.047846 0.232529
vt 0.047841 0.232498
vt 0.047841 0.232498
vt 0.047842 0.232528
vt 0.047842 0.232528
vt 0.047841 0.232498
vt 0.047841 0.232498
vt 0.047844 0.232527
vt 0.047841 0.232498
vt 0.047842 0.232529
vt 0.047841 0.232498
vt 0.047842 0.232531
vt 0.047841 0.232499
vt 0.047845 0.232528
vt 0.047841 0.232499
vt 0.047841 0.232499
vt 0.047841 0.232499
vt 0.047841 0.232498
vt 0.047841 0.232498
vt 0.407814 0.217931
vt 0.414875 0.239306
vt 0.447199 0.206950
vt 0.425695 0.200053
vt 0.604495 0.253390
vt 0.836808 0.011907
vt 0.415501 0.213998
vt 0.428872 0.232158
vt 0.440008 0.221011
vt 0.421646 0.207844
vt 0.048200 0.233273
vt 0.048212 0.233294
vt 0.594297 0.195289
vt 0.778563 0.003746
vt 0.048212 0.233294
vt 0.048221 0.233287
vt 0.048212 0.233295
vt 0.602559 0.136963
vt 0.720763 0.014107
vt 0.628247 0.084117
vt 0.668961 0.041789
vt 0.048204 0.233275
vt 0.048681 0.232079
vt 0.048576 0.232033
vt 0.049917 0.229640
vt 0.049765 0.229561
vt 0.051432 0.226804
vt 0.051282 0.226722
vt 0.053480 0.223400
vt 0.052759 0.224431
vt 0.052662 0.224370
vt 0.053476 0.223397
vt 0.053537 0.223331
vt 0.053537 0.223331
vt 0.053486 0.223391
vt 0.053537 0.223331
vt 0.053493 0.223391
vt 0.053496 0.223394
vt 0.053537 0.223331
vt 0.053537 0.223331
vt 0.053481 0.223392
vt 0.053537 0.223332
vt 0.053498 0.223400
vt 0.053537 0.223332
vt 0.053537 0.223332
vt 0.053497 0.223407
vt 0.053537 0.223332
vt 0.053537 0.223332
vt 0.053537 0.223331
vt 0.053537 0.223332
vt 0.399169 0.201210
vt 0.396419 0.200638
vt 0.401868 0.200857
vt 0.404232 0.199622
vt 0.406000 0.197611
vt 0.406955 0.195023
vt 0.406941 0.192086
vt 0.405858 0.189048
vt 0.405043 0.186036
vt 0.403393 0.183728
vt 0.401142 0.182265
vt 0.398557 0.181748
vt 0.395934 0.182198
vt 0.393545 0.183558
vt 0.391653 0.185685
vt 0.390451 0.188366
vt 0.390074 0.191341
vt 0.390567 0.194322
vt 0.391887 0.197027
vt 0.393907 0.199200
vt 0.399414 0.261246
vt 0.377905 0.257818
vt 0.358510 0.247896
vt 0.343116 0.232457
vt 0.333214 0.213013
vt 0.329767 0.191463
vt 0.333114 0.169910
vt 0.342937 0.150452
vt 0.358289 0.134991
vt 0.377676 0.125039
vt 0.399207 0.121574
vt 0.420783 0.124942
vt 0.440290 0.134820
vt 0.455808 0.150249
vt 0.465787 0.169722
vt 0.469201 0.191337
vt 0.465757 0.212958
vt 0.455819 0.232456
vt 0.440374 0.247919
vt 0.420938 0.257837
vt 0.399428 0.275621
vt 0.373475 0.271488
vt 0.350071 0.259527
vt 0.331493 0.240914
vt 0.319548 0.217472
vt 0.315396 0.191488
vt 0.319444 0.165495
vt 0.331304 0.142029
vt 0.349827 0.123379
vt 0.373213 0.111373
vt 0.399183 0.107189
vt 0.425202 0.111247
vt 0.448719 0.123160
vt 0.467417 0.141772
vt 0.479437 0.165263
vt 0.483575 0.191328
vt 0.479445 0.217400
vt 0.467471 0.240912
vt 0.448844 0.259557
vt 0.425396 0.271514
vt 0.399426 0.295385
vt 0.367366 0.290279
vt 0.338451 0.275515
vt 0.315499 0.252542
vt 0.300746 0.223603
vt 0.295625 0.191524
vt 0.300637 0.159432
vt 0.315296 0.130456
vt 0.338177 0.107424
vt 0.367058 0.092590
vt 0.399131 0.087412
vt 0.431263 0.092413
vt 0.460301 0.107122
vt 0.483384 0.130111
vt 0.498225 0.159127
vt 0.503351 0.191321
vt 0.498265 0.223518
vt 0.483483 0.252550
vt 0.460473 0.275566
vt 0.431506 0.290321
vt 0.399404 0.317827
vt 0.360407 0.311615
vt 0.325239 0.293667
vt 0.297326 0.265741
vt 0.279386 0.230565
vt 0.273164 0.191569
vt 0.279267 0.152554
vt 0.297101 0.117325
vt 0.324931 0.089316
vt 0.360056 0.071267
vt 0.399059 0.064955
vt 0.438135 0.071022
vt 0.473451 0.088899
vt 0.501527 0.116856
vt 0.519583 0.152152
vt 0.525824 0.191313
vt 0.519643 0.230473
vt 0.501661 0.265773
vt 0.473668 0.293751
vt 0.438429 0.311679
vt 0.399374 0.339925
vt 0.353546 0.332621
vt 0.312223 0.311536
vt 0.279427 0.278734
vt 0.258350 0.237417
vt 0.251046 0.191615
vt 0.258223 0.145787
vt 0.279179 0.104399
vt 0.311883 0.071489
vt 0.353153 0.050273
vt 0.398983 0.042840
vt 0.444898 0.049952
vt 0.486405 0.070946
vt 0.519408 0.103792
vt 0.540632 0.145276
vt 0.547975 0.191304
vt 0.540703 0.237324
vt 0.519564 0.278801
vt 0.486658 0.311662
vt 0.445240 0.332713
vt 0.399358 0.352022
vt 0.349793 0.344120
vt 0.305099 0.321314
vt 0.269630 0.285844
vt 0.246840 0.241169
vt 0.238942 0.191639
vt 0.246705 0.142082
vt 0.269372 0.097325
vt 0.304739 0.061732
vt 0.349376 0.038781
vt 0.398938 0.030735
vt 0.448603 0.038416
vt 0.493499 0.061114
vt 0.529202 0.096640
vt 0.552168 0.141509
vt 0.560106 0.191296
vt 0.552242 0.241076
vt 0.529366 0.285931
vt 0.493770 0.321470
vt 0.448967 0.344229
vt 0.399335 0.372299
vt 0.343502 0.363386
vt 0.293165 0.337707
vt 0.253223 0.297762
vt 0.227554 0.247449
vt 0.218663 0.191677
vt 0.227409 0.135870
vt 0.252942 0.085466
vt 0.292771 0.045373
vt 0.343037 0.019516
vt 0.398866 0.010439
vt 0.454808 0.019077
vt 0.505399 0.044632
vt 0.545629 0.084641
vt 0.571510 0.135192
vt 0.580455 0.191283
vt 0.571580 0.247363
vt 0.545805 0.297895
vt 0.505690 0.337911
vt 0.455215 0.363534
vt 0.399320 0.380742
vt 0.340888 0.371418
vt 0.288203 0.344528
vt 0.246391 0.302719
vt 0.219530 0.250066
vt 0.210225 0.191690
vt 0.219379 0.133282
vt 0.246095 0.080527
vt 0.287785 0.038568
vt 0.340399 0.011498
vt 0.398828 0.001992
vt 0.457395 0.011021
vt 0.510350 0.037764
vt 0.552477 0.079644
vt 0.579572 0.132556
vt 0.588936 0.191278
vt 0.579646 0.249984
vt 0.552647 0.302872
vt 0.510652 0.344761
vt 0.457814 0.371575
vt 0.048212 0.233295
vt 0.048212 0.233294
vt 0.048211 0.233294
vt 0.048211 0.233294
vt 0.048202 0.233283
vt 0.048056 0.233096
vt 0.048064 0.233092
vt 0.047895 0.232753
vt 0.047903 0.232750
vt 0.047843 0.232531
vt 0.047841 0.232499
vt 0.047841 0.232498
vt 0.047841 0.232498
vt 0.047841 0.232498
vt 0.047842 0.232528
vt 0.047806 0.232494
vt 0.047807 0.232493
vt 0.053355 0.222824
vt 0.053472 0.223169
vt 0.053464 0.223171
vt 0.053346 0.222827
vt 0.053492 0.223391
vt 0.053537 0.223331
vt 0.053537 0.223331
vt 0.053537 0.223332
vt 0.053537 0.223332
vt 0.053495 0.223407
vt 0.053203 0.224646
vt 0.053151 0.224626
vt 0.052090 0.227146
vt 0.052015 0.227109
vt 0.050570 0.229997
vt 0.050497 0.229955
vt 0.049111 0.232332
vt 0.049065 0.232299
vt 0.048219 0.233285
vn 0.951057 0.000000 -0.309016
vn 0.809017 0.000000 -0.587785
vn 0.809017 0.000000 -0.587785
vn 0.951057 0.000000 -0.309016
vn 0.587785 0.000000 -0.809017
vn 0.587785 0.000000 -0.809017
vn 0.309017 0.000000 -0.951057
vn 0.309017 0.000000 -0.951057
vn -0.000000 0.000000 -1.000000
vn -0.000000 0.000000 -1.000000
vn -0.309017 0.000000 -0.951057
vn -0.309017 0.000000 -0.951057
vn -0.587786 0.000000 -0.809017
vn -0.587786 0.000000 -0.809017
vn -0.809017 0.000000 -0.587785
vn -0.809017 0.000000 -0.587785
vn -0.951057 0.000000 -0.309017
vn -0.951057 0.000000 -0.309017
vn -1.000000 0.000000 0.000000
vn -1.000000 0.000000 0.000000
vn -0.951057 0.000000 0.309017
vn -0.951057 0.000000 0.309017
vn -0.809017 0.000000 0.587785
vn -0.809017 0.000000 0.587785
vn -0.587785 0.000000 0.809017
vn -0.587785 0.000000 0.809017
vn -0.309017 0.000000 0.951057
vn -0.309017 0.000000 0.951057
vn 0.000000 0.000000 1.000000
vn 0.000000 0.000000 1.000000
vn 0.309017 0.000000 0.951056
vn 0.309017 0.000000 0.951056
vn 0.587785 0.000000 0.809017
vn 0.587785 0.000000 0.809017
vn 0.809017 0.000000 0.587785
vn 0.809017 0.000000 0.587785
vn 0.951056 0.000000 0.309017
vn 0.951056 0.000000 0.309017
vn 1.000000 0.000000 0.000001
vn 1.000000 0.000000 0.000001
vn 0.000000 -1.000000 0.000001
vn 0.000000 -1.000000 0.000000
vn 0.000000 -1.000000 0.000000
vn 0.000000 -1.000000 -0.000001
vn 0.000000 -1.000000 0.000000
vn 0.000000 -1.000000 0.000000
vn 0.000000 -1.000000 0.000000
vn 0.000000 -1.000000 0.000000
vn 0.000000 -1.000000 0.000000
vn 0.000000 -1.000000 0.000002
vn 0.000000 -1.000000 0.000002
vn 0.000000 -1.000000 0.000000
vn 0.000000 -1.000000 0.000001
vn 0.000000 -1.000000 0.000001
vn 0.000000 -1.000000 0.000000
vn 0.000000 -1.000000 0.000000
vn 0.000000 -1.000000 0.000000
vn 0.000000 -1.000000 0.000000
vn 0.000000 -1.000000 0.000000
vn 0.000000 -1.000000 0.000000
vn 0.000000 -1.000000 -0.000002
vn 0.000000 1.000000 0.000000
vn 0.000000 1.000000 -0.000010
vn 0.000000 1.000000 -0.000004
vn 0.000000 1.000000 -0.000010
vn 0.000000 1.000000 0.000000
vn 0.000000 1.000000 0.000000
vn 0.000000 1.000000 0.000005
vn 0.000000 1.000000 -0.000005
vn 0.000000 1.000000 -0.000000
vn 0.000000 1.000000 -0.000010
vn 0.000000 1.000000 -0.000020
vn 0.000000 1.000000 -0.000020
vn 0.000000 1.000000 -0.000020
vn 0.000000 1.000000 -0.000010
vn 0.000000 1.000000 -0.000010
vn 0.000000 1.000000 0.000001
vn 0.000000 1.000000 -0.000004
vn 0.000000 1.000000 0.000005
vn 0.000000 1.000000 -0.000000
vn 0.000000 1.000000 0.000010
vn 0.000000 1.000000 0.000020
vn -1.000000 0.000000 0.000000
vn -0.951057 0.000000 0.309017
vn -0.951057 0.000000 0.309017
vn -1.000000 0.000000 0.000000
vn -0.951057 -0.000000 -0.309017
vn -0.951057 -0.000000 -0.309017
vn -0.809017 -0.000000 -0.587785
vn -0.809017 -0.000000 -0.587785
vn -0.587786 -0.000000 -0.809017
vn -0.587786 -0.000000 -0.809017
vn -0.309017 -0.000000 -0.951057
vn -0.309017 -0.000000 -0.951057
vn -0.000000 -0.000000 -1.000000
vn -0.000000 -0.000000 -1.000000
vn 0.309017 -0.000000 -0.951057
vn 0.309017 -0.000000 -0.951057
vn 0.587785 0.000000 -0.809017
vn 0.587785 0.000000 -0.809017
vn 0.809017 0.000000 -0.587785
vn 0.809017 0.000000 -0.587785
vn 0.951057 0.000000 -0.309016
vn 0.951057 0.000000 -0.309016
vn 1.000000 0.000000 0.000001
vn 1.000000 0.000000 0.000001
vn 0.951057 0.000000 0.309017
vn 0.951057 0.000000 0.309017
vn 0.809017 -0.000000 0.587785
vn 0.809017 -0.000000 0.587785
vn 0.587785 -0.000000 0.809017
vn 0.587785 -0.000000 0.809017
vn 0.309017 -0.000000 0.951056
vn 0.309017 -0.000000 0.951056
vn 0.000000 0.000000 1.000000
vn 0.000000 0.000000 1.000000
vn -0.309017 -0.000000 0.951056
vn -0.309017 -0.000000 0.951056
vn -0.587785 -0.000000 0.809017
vn -0.587785 -0.000000 0.809017
vn -0.809017 -0.000000 0.587785
vn -0.809017 -0.000000 0.587785
vn -1.000000 -0.000000 0.000000
vn -0.951057 0.000000 0.309017
vn -0.951057 0.000000 0.309017
vn -1.000000 -0.000000 0.000000
vn -0.951057 -0.000000 -0.309017
vn -0.951057 -0.000000 -0.309017
vn -0.809017 -0.000000 -0.587785
vn -0.809017 -0.000000 -0.587785
vn -0.587785 -0.000000 -0.809017
vn -0.587785 -0.000000 -0.809017
vn -0.309017 -0.000000 -0.951057
vn -0.309017 -0.000000 -0.951057
vn -0.000000 -0.000000 -1.000000
vn -0.000000 -0.000000 -1.000000
vn 0.309016 -0.000000 -0.951057
vn 0.309016 -0.000000 -0.951057
vn 0.587785 -0.000000 -0.809017
vn 0.587785 -0.000000 -0.809017
vn 0.809017 -0.000000 -0.587785
vn 0.809017 -0.000000 -0.587785
vn 0.951057 -0.000000 -0.309017
vn 0.951057 -0.000000 -0.309016
vn 1.000000 -0.000000 0.000001
vn 1.000000 -0.000000 0.000001
vn 0.951057 0.000000 0.309017
vn 0.951056 0.000000 0.309017
vn 0.809017 0.000000 0.587785
vn 0.809017 0.000000 0.587785
vn 0.587785 0.000000 0.809017
vn 0.587785 0.000000 0.809017
vn 0.309017 0.000000 0.951057
vn 0.309017 0.000000 0.951056
vn 0.000000 0.000000 1.000000
vn 0.000000 0.000000 1.000000
vn -0.309017 0.000000 0.951057
vn -0.309017 0.000000 0.951057
vn -0.587785 0.000000 0.809017
vn -0.587785 0.000000 0.809017
vn -0.809017 0.000000 0.587786
vn -0.809017 0.000000 0.587786
vn 0.000000 -1.000000 -0.000001
vn 0.000000 -1.000000 -0.000001
vn 0.000000 -1.000000 -0.000001
vn 0.000000 -1.000000 -0.000001
vn 0.000000 1.000000 -0.000001
vn 0.000000 1.000000 0.000001
vn 0.000000 1.000000 0.000001
vn 0.000000 1.000000 -0.000001
vn 0.000000 -1.000000 0.000000
vn 0.000000 -1.000000 0.000000
vn 0.000000 1.000000 0.000001
vn 0.000000 1.000000 0.000001
vn 0.000000 -1.000000 0.000000
vn 0.000000 -1.000000 0.000000
vn 0.000000 1.000000 -0.000001
vn 0.000000 1.000000 -0.000001
vn 0.000000 -1.000000 -0.000000
vn 0.000000 -1.000000 -0.000000
vn 0.000000 1.000000 -0.000001
vn 0.000000 1.000000 -0.000001
vn 0.000000 -1.000000 -0.000000
vn 0.000000 -1.000000 -0.000000
vn 0.000000 1.000000 0.000000
vn 0.000000 1.000000 0.000000
vn 0.000000 -1.000000 0.000000
vn 0.000000 -1.000000 0.000000
vn 0.000000 1.000000 0.000000
vn 0.000000 1.000000 0.000000
vn 0.000000 -1.000000 0.000000
vn 0.000000 -1.000000 0.000000
vn 0.000000 1.000000 0.000000
vn 0.000000 1.000000 0.000000
vn 0.000000 -1.000000 0.000000
vn 0.000000 -1.000000 0.000000
vn 0.000000 1.000000 0.000000
vn 0.000000 1.000000 0.000000
vn 0.000000 -1.000000 0.000000
vn 0.000000 -1.000000 0.000000
vn 0.000000 1.000000 0.000000
vn 0.000000 1.000000 0.000000
vn 0.000000 -1.000000 -0.000001
vn 0.000000 -1.000000 -0.000001
vn 0.000000 1.000000 0.000000
vn 0.000000 1.000000 0.000000
vn 0.000000 -1.000000 -0.000001
vn 0.000000 -1.000000 -0.000001
vn 0.000000 1.000000 0.000000
vn 0.000000 1.000000 0.000000
vn 0.000000 -1.000000 0.000000
vn 0.000000 -1.000000 0.000000
vn 0.000000 1.000000 0.000000
vn 0.000000 1.000000 0.000000
vn 0.000000 -1.000000 -0.000000
vn 0.000000 -1.000000 -0.000000
vn 0.000000 1.000000 0.000000
vn 0.000000 1.000000 0.000000
vn 0.000000 -1.000000 -0.000000
vn 0.000000 -1.000000 -0.000000
vn 0.000000 1.000000 0.000000
vn 0.000000 1.000000 0.000000
vn 0.000000 -1.000000 0.000001
vn 0.000000 -1.000000 0.000001
vn 0.000000 1.000000 -0.000000
vn 0.000000 1.000000 -0.000000
vn 0.000000 -1.000000 0.000000
vn 0.000000 -1.000000 0.000000
vn 0.000000 1.000000 -0.000001
vn 0.000000 1.000000 -0.000001
vn 0.000000 -1.000000 -0.000000
vn 0.000000 -1.000000 -0.000000
vn 0.000000 1.000000 0.000000
vn 0.000000 1.000000 0.000000
vn 0.000000 -1.000000 0.000000
vn 0.000000 -1.000000 0.000000
vn 0.000000 1.000000 -0.000000
vn 0.000000 1.000000 -0.000000
vn 0.000000 -1.000000 0.000000
vn 0.000000 -1.000000 0.000000
vn 0.000000 1.000000 -0.000001
vn 0.000000 1.000000 -0.000001
vn 0.000000 -1.000000 -0.000000
vn 0.000000 -1.000000 -0.000000
vn 0.000000 -1.000000 0.000000
vn 0.000000 -1.000000 0.000000
vn 0.000000 -1.000000 0.000000
vn 0.349305 0.876210 -0.332027
vn 0.349305 0.876210 -0.332027
vn 0.229607 0.876210 -0.423718
vn 0.229607 0.876210 -0.423718
vn -0.423718 0.876210 -0.229607
vn -0.423718 0.876210 -0.229607
vn -0.473932 0.876210 -0.087433
vn -0.473932 0.876210 -0.087433
vn 0.000000 -1.000000 -0.000000
vn 0.000000 -1.000000 -0.000000
vn 0.991337 0.000000 -0.131345
vn 0.958585 0.000000 -0.284808
vn 0.958585 0.000000 -0.284807
vn 0.991337 -0.000005 -0.131345
vn 0.000000 -1.000000 0.000000
vn 0.000000 -1.000000 0.000000
vn 0.000000 1.000000 0.000001
vn 0.000000 1.000000 0.000000
vn 0.000000 1.000000 0.000000
vn 0.000000 1.000000 0.000001
vn 0.000000 1.000000 0.000001
vn 0.000000 1.000000 0.000001
vn 0.000000 1.000000 -0.000001
vn 0.000000 1.000000 0.000001
vn 0.000000 1.000000 0.000001
vn -0.987539 0.000003 0.157377
vn -0.987539 0.000002 0.157377
vn -0.987539 0.000000 0.157377
vn -0.987539 0.000001 0.157377
vn 0.000000 1.000000 0.000002
vn 0.000000 1.000000 0.000001
vn 0.000000 1.000000 -0.000000
vn 0.000000 1.000000 0.000001
vn 0.000000 1.000000 0.000001
vn 0.000000 1.000000 -0.000003
vn -0.003212 0.999994 0.001535
vn -0.003441 0.999994 0.000456
vn 0.000000 1.000000 0.000000
vn 0.000000 1.000000 0.000000
vn 0.000000 1.000000 -0.000001
vn 0.000000 1.000000 -0.000002
vn 0.434811 0.876210 -0.207836
vn 0.434811 0.876210 -0.207835
vn -0.477755 0.876210 0.063299
vn -0.477755 0.876210 0.063299
vn 0.000000 1.000000 0.000001
vn 0.000000 1.000000 -0.000001
vn 0.000000 1.000000 -0.000001
vn 0.000000 1.000000 0.000000
vn 0.000000 -1.000000 0.000000
vn 0.000000 -1.000000 0.000000
vn 0.000000 -1.000000 0.000000
vn 0.000000 -1.000000 -0.000000
vn -0.434811 0.876210 0.207836
vn -0.434811 0.876210 0.207836
vn 0.477755 0.876210 -0.063299
vn 0.477755 0.876210 -0.063299
vn 0.131346 0.000000 0.991337
vn 0.431257 0.000000 0.902229
vn 0.431257 0.000000 0.902229
vn 0.131346 0.000000 0.991337
vn 0.000000 -1.000000 -0.000000
vn 0.000000 -1.000000 0.000000
vn -0.181423 0.000000 0.983405
vn -0.181423 0.000000 0.983405
vn 0.688954 0.000000 0.724805
vn 0.688954 0.000000 0.724805
vn -0.476433 0.000000 0.879211
vn -0.476433 0.000000 0.879211
vn 0.879211 0.000000 0.476432
vn 0.879211 0.000000 0.476432
vn -0.724805 0.000000 0.688954
vn -0.724805 0.000000 0.688954
vn 0.983405 0.000000 0.181423
vn 0.983405 0.000000 0.181423
vn -0.902229 0.000000 0.431257
vn -0.902229 0.000000 0.431257
vn 0.991337 0.000000 -0.131345
vn 0.991337 0.000000 -0.131345
vn 0.000000 -1.000000 0.000000
vn 0.983405 -0.000000 0.181424
vn 0.983405 -0.000008 0.181424
vn 0.902229 0.000000 -0.431257
vn 0.902229 0.000000 -0.431257
vn -0.991337 0.000000 0.131345
vn -0.991337 0.000000 0.131345
vn 0.724805 0.000000 -0.688954
vn 0.724805 0.000000 -0.688954
vn -0.983405 0.000000 -0.181424
vn -0.983405 0.000000 -0.181424
vn 0.476432 0.000000 -0.879211
vn 0.476432 0.000000 -0.879211
vn -0.879211 0.000000 -0.476433
vn -0.879211 0.000000 -0.476433
vn -0.688954 0.000000 -0.724805
vn -0.688954 0.000000 -0.724805
vn 0.181423 0.000000 -0.983405
vn 0.181423 0.000000 -0.983405
vn -0.987538 0.000000 0.157378
vn -0.987538 0.000000 0.157378
vn -0.008313 0.999934 0.007902
vn 0.000000 1.000000 0.000000
vn -0.431257 0.000000 -0.902229
vn -0.431257 0.000000 -0.902229
vn -0.131345 0.000000 -0.991337
vn -0.131345 0.000000 -0.991337
vn -0.349305 0.876210 0.332027
vn -0.349305 0.876210 0.332028
vn 0.473932 0.876210 0.087434
vn 0.473932 0.876210 0.087434
vn 0.291162 0.000000 0.956674
vn 0.291162 0.000000 0.956674
vn 0.291162 0.000000 0.956674
vn 0.291162 0.000000 0.956674
vn -0.229607 0.876210 0.423718
vn -0.229607 0.876210 0.423718
vn 0.423718 0.876210 0.229608
vn 0.423718 0.876210 0.229608
vn -0.608105 0.000000 0.793856
vn -0.476432 0.000000 0.879211
vn -0.476432 0.000001 0.879211
vn -0.608105 0.000002 0.793857
vn 0.942916 0.000000 0.333030
vn 0.942916 -0.000005 0.333030
vn 0.332027 0.876210 0.349306
vn 0.332027 0.876210 0.349305
vn -0.087433 0.876210 0.473932
vn -0.087433 0.876210 0.473932
vn 0.207835 0.876210 0.434812
vn 0.207836 0.876210 0.434811
vn 0.063299 0.876210 0.477755
vn 0.063299 0.876210 0.477755
vn -0.181423 0.000000 0.983405
vn -0.181423 0.000000 0.983405
vn -0.025351 0.000000 0.999679
vn -0.025351 0.000000 0.999679
vn 0.817764 0.000000 -0.575554
vn 0.817764 0.000000 -0.575554
vn 0.817764 0.000000 -0.575554
vn 0.817764 0.000000 -0.575554
vn 0.000000 -1.000000 0.000000
vn 0.000000 -1.000000 0.000000
vn 0.009688 0.999939 0.005250
vn 0.002383 0.999994 0.002507
vn 0.000000 1.000000 0.000000
vn 0.000000 1.000000 0.000000
vn 0.000000 -1.000000 -0.000000
vn 0.000000 -1.000000 0.000000
vn 0.001481 0.999994 0.003099
vn 0.000000 1.000000 -0.000000
vn -0.829592 -0.000011 0.558370
vn -0.829592 -0.000000 0.558370
vn -0.829592 -0.000000 0.558370
vn -0.829592 -0.000011 0.558370
vn 0.001424 0.999941 0.010748
vn 0.000000 1.000000 -0.000000
vn 0.479202 -0.000002 0.877705
vn 0.479209 -0.000001 0.877701
vn 0.479210 0.000000 0.877701
vn 0.479201 0.000000 0.877705
vn 0.479193 -0.000002 0.877710
vn 0.479192 -0.000004 0.877710
vn 0.479184 -0.000002 0.877714
vn 0.479184 -0.000012 0.877714
vn -0.332027 0.876210 -0.349305
vn -0.332027 0.876210 -0.349305
vn 0.087433 0.876210 -0.473932
vn 0.087433 0.876210 -0.473932
vn 0.000000 -1.000000 -0.000000
vn 0.000000 -1.000000 0.000000
vn -0.207836 0.876210 -0.434811
vn -0.207836 0.876210 -0.434811
vn -0.063299 0.876210 -0.477755
vn -0.063299 0.876210 -0.477755
vn -0.010662 0.999941 -0.001967
vn 0.000000 1.000000 0.000000
vn 0.000000 -1.000000 0.000000
vn 0.000000 -1.000000 0.000000
vn -0.987539 0.000005 0.157376
vn -0.987539 0.000003 0.157377
vn 0.000000 -1.000000 0.000000
vn 0.000000 -1.000000 0.000000
vn 0.000000 -1.000000 0.000000
vn 0.000000 -1.000000 0.000000
vn 0.000000 -1.000000 0.000000
vn -0.278267 0.000000 -0.960504
vn -0.278267 -0.000001 -0.960504
vn -0.278267 -0.000001 -0.960504
vn -0.278267 0.000000 -0.960504
vn -0.879211 -0.000000 -0.476432
vn -0.942917 0.000000 -0.333028
vn -0.942917 0.000000 -0.333028
vn -0.879211 -0.000002 -0.476433
vn -0.688954 -0.000001 -0.724805
vn -0.688954 -0.000003 -0.724805
vn -0.431257 -0.000000 -0.902229
vn -0.431257 -0.000001 -0.902229
vn 0.025351 0.000000 -0.999679
vn -0.131346 0.000000 -0.991337
vn -0.131346 0.000000 -0.991337
vn 0.025351 0.000000 -0.999679
vn 0.805576 0.000000 0.592493
vn 0.805576 0.000000 0.592493
vn 0.805576 0.000000 0.592492
vn 0.805576 0.000000 0.592493
vn 0.002790 0.999993 -0.002652
vn 0.011120 0.999924 -0.005315
vn 0.000000 1.000000 -0.000000
vn 0.000000 1.000000 0.000000
vn 0.000000 -1.000000 0.000000
vn 0.000000 -1.000000 0.000000
vn 0.001817 0.999993 -0.003353
vn 0.000000 1.000000 0.000000
vn 0.000000 -1.000000 0.000000
vn 0.002171 0.999928 -0.011769
vn 0.000000 1.000000 0.000000
vn 0.000000 -1.000000 0.000000
vn -0.791686 0.000000 -0.610928
vn -0.791686 0.000000 -0.610928
vn -0.791686 0.000000 -0.610928
vn -0.791686 0.000000 -0.610928
vn 0.526007 0.000000 -0.850480
vn 0.525995 -0.000000 -0.850488
vn 0.525995 -0.000004 -0.850488
vn 0.526006 -0.000012 -0.850481
vn 0.525984 0.000000 -0.850495
vn 0.525984 0.000000 -0.850495
vn 0.525976 0.000000 -0.850500
vn 0.525976 0.000000 -0.850499
vn -0.423718 0.876210 -0.229607
vn -0.473933 0.876210 -0.087433
vn -0.332028 0.876210 -0.349305
vn -0.207836 0.876210 -0.434812
vn -0.063299 0.876210 -0.477755
vn 0.087433 0.876210 -0.473932
vn 0.229607 0.876210 -0.423718
vn 0.349305 0.876210 -0.332028
vn 0.434811 0.876210 -0.207836
vn 0.477755 0.876210 -0.063299
vn 0.473932 0.876210 0.087434
vn 0.423718 0.876210 0.229608
vn 0.332027 0.876209 0.349307
vn 0.207835 0.876209 0.434812
vn 0.063299 0.876210 0.477755
vn -0.087433 0.876210 0.473933
vn -0.229607 0.876210 0.423718
vn -0.349305 0.876210 0.332028
vn -0.434811 0.876210 0.207836
vn -0.477755 0.876210 0.063298
vn -0.423718 0.876210 -0.229607
vn -0.473932 0.876210 -0.087433
vn -0.477755 0.876210 0.063299
vn -0.434811 0.876210 0.207835
vn -0.349305 0.876210 0.332027
vn -0.229607 0.876210 0.423718
vn -0.087433 0.876210 0.473932
vn 0.063299 0.876210 0.477755
vn 0.207836 0.876210 0.434811
vn 0.332027 0.876210 0.349305
vn 0.423718 0.876210 0.229607
vn 0.473932 0.876210 0.087434
vn 0.477755 0.876210 -0.063299
vn 0.434811 0.876210 -0.207835
vn 0.349305 0.876210 -0.332027
vn 0.229607 0.876210 -0.423718
vn 0.087433 0.876210 -0.473932
vn -0.063299 0.876210 -0.477755
vn -0.207835 0.876210 -0.434811
vn -0.332027 0.876210 -0.349305
vn -0.423718 0.876210 -0.229607
vn -0.473932 0.876210 -0.087433
vn -0.477755 0.876210 0.063299
vn -0.434811 0.876210 0.207835
vn -0.349305 0.876210 0.332027
vn -0.229607 0.876210 0.423718
vn -0.087433 0.876210 0.473932
vn 0.063299 0.876210 0.477755
vn 0.207836 0.876210 0.434811
vn 0.332027 0.876210 0.349305
vn 0.423718 0.876210 0.229607
vn 0.473932 0.876210 0.087434
vn 0.477755 0.876210 -0.063299
vn 0.434811 0.876210 -0.207835
vn 0.349305 0.876210 -0.332027
vn 0.229607 0.876210 -0.423718
vn 0.087433 0.876210 -0.473932
vn -0.063299 0.876210 -0.477754
vn -0.207835 0.876210 -0.434811
vn -0.332027 0.876210 -0.349305
vn -0.423718 0.876210 -0.229607
vn -0.473932 0.876210 -0.087433
vn -0.477755 0.876210 0.063299
vn -0.434811 0.876210 0.207836
vn -0.349305 0.876210 0.332027
vn -0.229607 0.876210 0.423718
vn -0.087433 0.876210 0.473932
vn 0.063299 0.876210 0.477755
vn 0.207836 0.876210 0.434811
vn 0.332027 0.876210 0.349305
vn 0.423718 0.876210 0.229607
vn 0.473932 0.876210 0.087434
vn 0.477755 0.876210 -0.063299
vn 0.434811 0.876210 -0.207835
vn 0.349305 0.876210 -0.332027
vn 0.229607 0.876210 -0.423718
vn 0.087433 0.876210 -0.473932
vn -0.063299 0.876210 -0.477755
vn -0.207835 0.876210 -0.434811
vn -0.332027 0.876210 -0.349305
vn -0.423718 0.876210 -0.229607
vn -0.473933 0.876210 -0.087433
vn -0.477755 0.876210 0.063299
vn -0.434811 0.876210 0.207836
vn -0.349305 0.876210 0.332027
vn -0.229607 0.876210 0.423718
vn -0.087433 0.876210 0.473932
vn 0.063299 0.876210 0.477755
vn 0.207836 0.876210 0.434812
vn 0.332027 0.876210 0.349306
vn 0.423718 0.876210 0.229608
vn 0.473932 0.876210 0.087434
vn 0.477755 0.876210 -0.063299
vn 0.434811 0.876210 -0.207836
vn 0.349305 0.876210 -0.332027
vn 0.229607 0.876210 -0.423718
vn 0.087433 0.876210 -0.473932
vn -0.063299 0.876210 -0.477755
vn -0.207836 0.876210 -0.434811
vn -0.332027 0.876210 -0.349305
vn -0.423718 0.876210 -0.229607
vn -0.473932 0.876210 -0.087433
vn -0.477755 0.876210 0.063299
vn -0.434811 0.876210 0.207835
vn -0.349305 0.876210 0.332027
vn -0.229607 0.876210 0.423718
vn -0.087433 0.876210 0.473932
vn 0.063299 0.876210 0.477755
vn 0.207835 0.876210 0.434811
vn 0.332027 0.876210 0.349305
vn 0.423718 0.876210 0.229607
vn 0.473932 0.876210 0.087434
vn 0.477755 0.876210 -0.063299
vn 0.434811 0.876210 -0.207835
vn 0.349305 0.876210 -0.332027
vn 0.229607 0.876210 -0.423718
vn 0.087433 0.876210 -0.473932
vn -0.063299 0.876210 -0.477754
vn -0.207836 0.876210 -0.434811
vn -0.332027 0.876210 -0.349305
vn -0.423718 0.876210 -0.229607
vn -0.473932 0.876210 -0.087433
vn -0.477755 0.876210 0.063299
vn -0.434811 0.876210 0.207835
vn -0.349305 0.876210 0.332027
vn -0.229607 0.876210 0.423718
vn -0.087433 0.876210 0.473932
vn 0.063299 0.876210 0.477755
vn 0.207836 0.876210 0.434811
vn 0.332027 0.876210 0.349305
vn 0.423718 0.876210 0.229608
vn 0.473932 0.876210 0.087434
vn 0.477754 0.876210 -0.063299
vn 0.434811 0.876210 -0.207835
vn 0.349305 0.876210 -0.332027
vn 0.229607 0.876210 -0.423718
vn 0.087433 0.876210 -0.473932
vn -0.063299 0.876210 -0.477754
vn -0.207836 0.876210 -0.434811
vn -0.332027 0.876210 -0.349305
vn -0.423718 0.876210 -0.229607
vn -0.473932 0.876210 -0.087433
vn -0.477754 0.876210 0.063299
vn -0.434811 0.876210 0.207835
vn -0.349305 0.876210 0.332027
vn -0.229607 0.876210 0.423718
vn -0.087433 0.876210 0.473932
vn 0.063299 0.876210 0.477755
vn 0.207836 0.876210 0.434811
vn 0.332027 0.876210 0.349305
vn 0.423718 0.876210 0.229608
vn 0.473932 0.876210 0.087434
vn 0.477754 0.876210 -0.063299
vn 0.434811 0.876210 -0.207836
vn 0.349305 0.876210 -0.332028
vn 0.229607 0.876210 -0.423718
vn 0.087433 0.876210 -0.473932
vn -0.063299 0.876210 -0.477755
vn -0.207836 0.876210 -0.434811
vn -0.332027 0.876210 -0.349305
vn -0.423718 0.876210 -0.229607
vn -0.229607 0.876210 0.423718
vn -0.087433 0.876210 0.473932
vn 0.473931 0.876210 0.087433
vn 0.477754 0.876210 -0.063299
vn -0.063300 0.876210 -0.477755
vn -0.207836 0.876210 -0.434811
vn -0.332027 0.876210 -0.349305
vn -0.987539 0.000000 0.157375
vn -0.987539 0.000000 0.157377
vn -0.987539 0.000003 0.157377
vn -0.987539 0.000005 0.157376
vn -0.987539 0.000000 0.157378
vn -0.987539 0.000002 0.157377
vn -0.987538 0.000000 0.157378
vn -0.987538 0.000000 0.157378
vn 0.291162 0.000000 0.956674
vn 0.291162 0.000000 0.956674
vn 0.291162 0.000000 0.956674
vn 0.291162 0.000000 0.956674
vn -0.608105 0.000000 0.793856
vn -0.476433 0.000000 0.879211
vn -0.476432 -0.000000 0.879211
vn -0.608105 -0.000000 0.793856
vn -0.181423 0.000000 0.983405
vn -0.181423 0.000000 0.983405
vn -0.025350 0.000000 0.999679
vn -0.025351 0.000000 0.999679
vn -0.829592 0.000002 0.558370
vn -0.829592 0.000002 0.558370
vn -0.829592 0.000000 0.558370
vn -0.829592 0.000000 0.558370
vn 0.479186 0.000000 0.877714
vn 0.479193 0.000000 0.877710
vn 0.479193 -0.000002 0.877710
vn 0.479185 0.000000 0.877714
vn 0.479201 0.000000 0.877705
vn 0.479202 -0.000002 0.877705
vn 0.479208 0.000000 0.877701
vn 0.479209 -0.000001 0.877701
vn 0.817764 0.000000 -0.575554
vn 0.817764 0.000000 -0.575554
vn 0.817764 0.000000 -0.575554
vn 0.817764 0.000000 -0.575554
vn 0.942916 0.000000 0.333030
vn 0.983405 0.000000 0.181424
vn 0.983405 0.000002 0.181424
vn 0.942916 0.000001 0.333030
vn 0.991337 0.000000 -0.131345
vn 0.991337 0.000001 -0.131345
vn 0.958585 0.000000 -0.284807
vn 0.958585 0.000000 -0.284808
vn 0.805576 0.000000 0.592493
vn 0.805576 0.000000 0.592493
vn 0.805576 0.000000 0.592493
vn 0.805576 0.000000 0.592493
vn 0.526005 0.000000 -0.850482
vn 0.525994 0.000000 -0.850489
vn 0.525995 0.000001 -0.850488
vn 0.526007 0.000003 -0.850480
vn 0.525984 0.000000 -0.850495
vn 0.525984 0.000000 -0.850495
vn 0.525977 0.000000 -0.850499
vn 0.525976 0.000000 -0.850500
vn -0.791686 0.000000 -0.610928
vn -0.791686 0.000000 -0.610928
vn -0.791686 0.000000 -0.610928
vn -0.791686 0.000000 -0.610928
vn 0.025351 0.000000 -0.999679
vn -0.131346 0.000000 -0.991337
vn -0.131346 0.000000 -0.991337
vn 0.025351 0.000000 -0.999679
vn -0.431258 0.000003 -0.902229
vn -0.431257 0.000000 -0.902229
vn -0.688954 0.000007 -0.724805
vn -0.688954 0.000001 -0.724805
vn -0.879211 0.000004 -0.476433
vn -0.879211 0.000000 -0.476432
vn -0.942917 0.000000 -0.333028
vn -0.942917 0.000000 -0.333028
vn -0.278266 0.000000 -0.960504
vn -0.278266 0.000000 -0.960504
vn -0.278266 0.000012 -0.960504
vn -0.278266 0.000012 -0.960504
s 1
g FAN fan
usemtl aiStandardSurface1SG
f 43/105/83 44/106/84 114/199/85 115/201/86
f 44/106/84 45/107/87 113/198/88 114/199/85
f 45/107/87 46/108/89 112/197/90 113/198/88
f 46/108/89 47/109/91 111/196/92 112/197/90
f 47/109/91 48/110/93 110/195/94 111/196/92
f 48/110/93 49/111/95 109/194/96 110/195/94
f 49/111/95 50/112/97 108/193/98 109/194/96
f 50/112/97 51/113/99 107/192/100 108/193/98
f 51/113/99 52/114/101 106/191/102 107/192/100
f 52/114/101 53/115/103 105/190/104 106/191/102
f 53/115/103 54/116/105 124/210/106 105/190/104
f 54/116/105 55/117/107 123/209/108 124/210/106
f 55/117/107 56/118/109 122/208/110 123/209/108
f 56/118/109 57/119/111 121/207/112 122/208/110
f 57/119/111 58/120/113 120/206/114 121/207/112
f 58/120/113 59/121/115 119/205/116 120/206/114
f 59/121/115 60/122/117 118/204/118 119/205/116
f 60/122/117 61/123/119 117/203/120 118/204/118
f 61/123/119 62/124/121 116/202/122 117/203/120
f 62/124/121 43/125/83 115/200/86 116/202/122
s 2
f 44/86/123 43/85/124 83/167/125
f 45/87/126 44/86/123 83/167/125
f 46/88/127 45/87/126 83/167/125
f 47/89/128 46/88/127 83/167/125
f 48/90/129 47/89/128 83/167/125
f 49/91/130 48/90/129 83/167/125
f 50/92/131 49/91/130 83/167/125
f 51/93/132 50/92/131 83/167/125
f 52/94/133 51/93/132 83/167/125
f 53/95/134 52/94/133 83/167/125
f 54/96/135 53/95/134 83/167/125
f 55/97/136 54/96/135 83/167/125
f 56/98/137 55/97/136 83/167/125
f 57/99/138 56/98/137 83/167/125
f 58/100/139 57/99/138 83/167/125
f 59/101/140 58/100/139 83/167/125
f 60/102/141 59/101/140 83/167/125
f 61/103/142 60/102/141 83/167/125
f 62/104/143 61/103/142 83/167/125
f 43/85/124 62/104/143 83/167/125
s 3
f 63/165/144 64/164/145 84/168/146
f 64/164/145 65/163/147 84/168/146
f 65/163/147 66/162/148 84/168/146
f 66/162/148 67/161/149 84/168/146
f 67/161/149 68/160/150 84/168/146
f 68/160/150 69/159/151 84/168/146
f 69/159/151 70/158/152 84/168/146
f 70/158/152 71/157/153 84/168/146
f 71/157/153 72/156/154 84/168/146
f 72/156/154 73/155/155 84/168/146
f 73/155/155 74/154/156 84/168/146
f 74/154/156 75/153/157 84/168/146
f 75/153/157 76/152/158 84/168/146
f 76/152/158 77/151/159 84/168/146
f 77/151/159 78/150/160 84/168/146
f 78/150/160 79/149/161 84/168/146
f 79/149/161 80/148/162 84/168/146
f 80/148/162 81/147/163 84/168/146
f 81/147/163 82/166/164 84/168/146
f 82/166/164 63/165/144 84/168/146
s 4
f 86/170/165 85/169/166 73/136/167 72/135/168
f 87/171/169 86/170/165 72/135/168 71/134/170
f 88/172/171 87/171/169 71/134/170 70/133/172
f 89/173/173 88/172/171 70/133/172 69/132/174
f 90/174/175 89/173/173 69/132/174 68/131/176
f 91/175/177 90/174/175 68/131/176 67/130/178
f 92/176/179 91/175/177 67/130/178 66/129/180
f 93/177/181 92/176/179 66/129/180 65/128/182
f 94/178/183 93/177/181 65/128/182 64/127/184
f 95/180/185 94/178/183 64/127/184 63/126/186
f 96/181/187 95/179/185 63/146/186 82/145/188
f 97/182/189 96/181/187 82/145/188 81/144/190
f 98/183/191 97/182/189 81/144/190 80/143/192
f 99/184/193 98/183/191 80/143/192 79/142/194
f 100/185/195 99/184/193 79/142/194 78/141/196
f 101/186/197 100/185/195 78/141/196 77/140/198
f 102/187/199 101/186/197 77/140/198 76/139/200
f 103/188/201 102/187/199 76/139/200 75/138/202
f 104/189/203 103/188/201 75/138/202 74/137/204
f 85/169/166 104/189/203 74/137/204 73/136/167
s 5
f 126/211/205 125/212/206 127/213/207 128/214/208
f 129/215/209 126/211/205 128/214/208 130/216/210
f 131/217/211 129/215/209 130/216/210 132/218/212
f 133/219/213 131/217/211 132/218/212 134/220/214
f 135/221/215 133/219/213 134/220/214 136/222/216
f 137/223/217 135/221/215 136/222/216 138/224/218
f 139/225/219 137/223/217 138/224/218 140/226/220
f 141/227/221 139/225/219 140/226/220 142/228/222
f 143/229/223 141/227/221 142/228/222 144/230/224
f 145/231/225 143/229/223 144/230/224 146/232/226
f 147/233/227 145/234/225 146/235/226 148/236/228
f 149/237/229 147/233/227 148/236/228 150/238/230
f 151/239/231 149/237/229 150/238/230 152/240/232
f 153/241/233 151/239/231 152/240/232 154/242/234
f 155/243/235 153/241/233 154/242/234 156/244/236
f 157/245/237 155/243/235 156/244/236 158/246/238
f 159/247/239 157/245/237 158/246/238 160/248/240
f 161/249/241 159/247/239 160/248/240 162/250/242
f 163/251/243 161/249/241 162/250/242 164/252/244
f 125/212/206 163/251/243 164/252/244 127/213/207
s 6
f 106/191/245 105/190/246 125/212/247 126/211/248
s 7
f 85/169/249 86/170/250 128/214/251 127/213/252
s 6
f 107/192/253 106/191/245 126/211/248 129/215/254
s 7
f 86/170/250 87/171/255 130/216/256 128/214/251
s 6
f 108/193/257 107/192/253 129/215/254 131/217/258
s 7
f 87/171/255 88/172/259 132/218/260 130/216/256
s 6
f 109/194/261 108/193/257 131/217/258 133/219/262
s 7
f 88/172/259 89/173/263 134/220/264 132/218/260
s 6
f 110/195/265 109/194/261 133/219/262 135/221/266
s 7
f 89/173/263 90/174/267 136/222/268 134/220/264
s 6
f 111/196/269 110/195/265 135/221/266 137/223/270
s 7
f 90/174/267 91/175/271 138/224/272 136/222/268
s 6
f 112/197/273 111/196/269 137/223/270 139/225/274
s 7
f 91/175/271 92/176/275 140/226/276 138/224/272
s 6
f 113/198/277 112/197/273 139/225/274 141/227/278
s 7
f 92/176/275 93/177/279 142/228/280 140/226/276
s 6
f 114/199/281 113/198/277 141/227/278 143/229/282
s 7
f 93/177/279 94/178/283 144/230/284 142/228/280
s 6
f 115/201/285 114/199/281 143/229/282 145/231/286
s 7
f 94/178/283 95/180/287 146/232/288 144/230/284
s 6
f 116/202/289 115/200/285 145/234/286 147/233/290
s 7
f 95/179/287 96/181/291 148/236/292 146/235/288
s 6
f 117/203/293 116/202/289 147/233/290 149/237/294
s 7
f 96/181/291 97/182/295 150/238/296 148/236/292
s 6
f 118/204/297 117/203/293 149/237/294 151/239/298
s 7
f 97/182/295 98/183/299 152/240/300 150/238/296
s 6
f 119/205/301 118/204/297 151/239/298 153/241/302
s 7
f 98/183/299 99/184/303 154/242/304 152/240/300
s 6
f 120/206/305 119/205/301 153/241/302 155/243/306
s 7
f 99/184/303 100/185/307 156/244/308 154/242/304
s 6
f 121/207/309 120/206/305 155/243/306 157/245/310
s 7
f 100/185/307 101/186/311 158/246/312 156/244/308
s 6
f 122/208/313 121/207/309 157/245/310 159/247/314
s 7
f 101/186/311 102/187/315 160/248/316 158/246/312
s 6
f 123/209/317 122/208/313 159/247/314 161/249/318
s 7
f 102/187/315 103/188/319 162/250/320 160/248/316
s 6
f 124/210/321 123/209/317 161/249/318 163/251/322
s 7
f 103/188/319 104/189/323 164/252/324 162/250/320
s 6
f 105/190/246 124/210/321 163/251/322 125/212/247
s 7
f 104/189/323 85/169/249 127/213/252 164/252/324
s 8
f 165/253/325 166/254/326 167/255/327
f 168/256/328 169/257/329 167/255/327
s 10
f 278/258/330 305/259/331 306/260/332 277/261/333
f 272/262/334 291/263/335 292/264/336 271/265/337
s 8
f 166/266/326 165/267/325 178/268/338 179/269/339
s 12
f 491/270/340 492/271/341 180/272/342 181/273/343
s 8
f 182/274/344 165/253/325 167/255/327
f 169/257/329 183/275/345 167/255/327
s 13
f 184/276/346 185/277/347 186/278/348
f 186/278/348 185/277/347 187/279/349
f 188/280/350 185/277/347 184/276/346
f 187/279/349 185/277/347 189/281/351
f 190/282/352 185/277/347 188/280/350
f 189/281/351 185/277/347 191/283/353
f 192/284/354 185/277/347 190/282/352
s 14
f 478/285/355 479/286/356 193/287/357 194/288/358
s 13
f 191/283/353 185/277/347 195/289/359
f 196/290/360 185/277/347 192/284/354
f 197/291/361 185/277/347 196/290/360
f 195/289/359 185/277/347 198/292/362
f 199/293/363 185/277/347 197/291/361
f 198/292/362 185/277/347 200/294/364
s 10
f 201/295/365 202/296/366 194/288/367 193/287/368
s 13
f 203/297/369 185/277/347 199/293/363
f 200/294/364 185/277/347 204/298/370
s 10
f 279/299/371 304/300/372 305/259/331 278/258/330
f 290/301/373 271/265/337 292/264/336 293/302/374
s 13
f 204/298/370 185/277/347 207/303/375
f 208/304/376 185/277/347 203/297/369
f 207/303/375 185/277/347 209/305/377
f 210/306/378 185/277/347 208/304/376
f 209/305/377 185/277/347 210/306/378
s 8
f 211/307/379 182/274/344 167/255/327
f 183/275/345 212/308/380 167/255/327
f 212/308/380 213/309/381 167/255/327
f 214/310/382 211/307/379 167/255/327
s 10
f 290/301/373 293/302/374 294/311/383 289/312/384
f 280/313/385 303/314/386 304/300/372 279/299/371
s 16
f 217/315/387 218/316/388 184/317/389 186/318/390
s 8
f 213/309/381 219/319/391 167/255/327
f 220/320/392 214/310/382 167/255/327
s 16
f 221/321/393 217/315/387 186/318/390 187/322/394
f 218/316/388 222/323/395 188/324/396 184/317/389
f 173/325/397 221/321/393 187/322/394 189/326/398
f 222/323/395 174/327/399 190/328/400 188/324/396
s 8
f 219/319/391 220/320/392 167/255/327
s 16
f 170/329/401 173/325/397 189/326/398 191/330/402
f 174/327/399 177/331/403 192/332/404 190/328/400
f 205/333/405 170/329/401 191/330/402 195/334/406
f 177/331/403 206/335/407 196/336/408 192/332/404
s 8
f 165/267/325 182/337/344 223/338/409 178/268/338
s 12
f 490/339/410 491/270/340 181/273/343 224/340/411
s 16
f 206/335/407 215/341/412 197/342/413 196/336/408
f 216/343/414 205/333/405 195/334/406 198/344/415
f 215/341/412 225/345/416 199/346/417 197/342/413
f 226/347/418 216/343/414 198/344/415 200/348/419
f 225/345/416 227/349/420 203/350/421 199/346/417
f 228/351/422 226/352/418 200/353/419 204/354/423
f 229/355/424 228/351/422 204/354/423 207/356/425
f 227/349/420 230/357/426 208/358/427 203/350/421
s 14
f 479/286/356 480/359/428 231/360/429 193/287/357
s 10
f 232/361/430 201/295/365 193/287/368 231/360/431
s 16
f 233/362/432 229/355/424 207/356/425 209/363/433
f 230/357/426 234/364/434 210/365/435 208/358/427
f 234/364/434 233/362/432 209/363/433 210/365/435
s 10
f 289/312/384 294/311/383 295/366/436 288/367/437
f 281/368/438 302/369/439 303/314/386 280/313/385
s 17
f 481/370/440 232/361/441 231/360/442 480/359/443
s 10
f 288/367/437 295/366/436 296/371/444 287/372/445
f 282/373/446 301/374/447 302/369/439 281/368/438
s 18
f 481/370/448 482/375/449 235/376/450 232/361/451
s 12
f 489/377/452 490/378/410 224/379/411 236/380/453
s 10
f 283/381/454 300/382/455 301/374/447 282/373/446
f 287/372/445 296/371/444 297/383/456 286/384/457
f 284/385/458 299/386/459 300/382/455 283/381/454
f 286/384/457 297/383/456 298/387/460 285/388/461
f 285/388/461 298/387/460 299/386/459 284/385/458
s 18
f 482/375/449 483/389/462 238/390/463 235/376/450
f 483/389/462 484/391/464 240/392/465 238/390/463
s 19
f 489/377/466 236/380/467 241/393/468 488/394/469
s 8
f 213/395/381 212/396/380 242/397/470 243/398/471
s 10
f 236/380/472 237/399/473 244/400/474 241/393/475
s 8
f 219/401/391 213/395/381 243/398/471 245/402/476
f 220/403/392 219/401/391 245/402/476 246/404/477
s 10
f 237/399/473 239/405/478 247/406/479 244/400/474
s 21
f 240/392/480 484/391/481 485/407/482 248/408/483
s 10
f 239/405/478 240/392/484 248/408/485 247/406/479
s 22
f 487/409/486 488/394/487 241/393/488 244/400/489
f 486/410/490 487/409/486 244/400/489 247/406/491
f 485/407/492 486/410/490 247/406/491 248/408/493
s 10
f 273/411/494 310/412/495 291/263/335 272/262/334
f 277/261/333 306/260/332 307/413/496 276/414/497
s 8
f 166/254/326 251/415/498 167/255/327
f 252/416/499 168/256/328 167/255/327
s 10
f 274/417/500 309/418/501 310/412/495 273/411/494
f 276/414/497 307/413/496 308/419/502 275/420/503
f 202/296/366 176/421/504 255/422/505 194/288/367
f 275/420/503 308/419/502 309/418/501 274/417/500
s 8
f 251/415/498 256/423/506 167/255/327
f 257/424/507 252/416/499 167/255/327
s 14
f 477/425/508 478/285/355 194/288/358 255/422/509
s 8
f 251/426/498 166/266/326 179/269/339 258/427/510
f 256/423/506 259/428/511 167/255/327
f 260/429/512 257/424/507 167/255/327
f 259/428/511 261/430/513 167/255/327
f 262/431/514 260/429/512 167/255/327
s 23
f 176/421/515 502/432/516 477/425/517 255/422/518
s 8
f 261/430/513 262/431/514 167/255/327
s 24
f 501/433/519 502/432/520 176/421/521 175/434/522
f 500/435/523 501/433/519 175/434/522 249/436/524
f 499/437/525 500/435/523 249/436/524 253/438/526
f 497/439/527 498/440/528 254/441/529 250/442/530
f 498/440/528 499/437/525 253/438/526 254/441/529
s 26
f 180/272/531 492/271/532 493/443/533 264/444/534
s 10
f 171/445/535 180/272/536 264/444/537 265/446/538
s 8
f 168/447/328 252/448/499 266/449/539 263/450/540
s 10
f 172/451/541 171/445/535 265/446/538 267/452/542
s 8
f 252/448/499 257/453/507 268/454/543 266/449/539
s 10
f 250/442/544 172/451/541 267/452/542 269/455/545
s 8
f 257/453/507 260/456/512 270/457/546 268/454/543
s 28
f 497/439/547 250/442/548 269/455/549 496/458/550
s 29
f 493/443/551 494/459/552 265/446/553 264/444/554
f 494/459/552 495/460/555 267/452/556 265/446/553
f 495/460/555 496/458/557 269/455/558 267/452/556
s 10
f 174/461/559 272/262/334 271/265/337 177/462/560
f 222/463/561 273/411/494 272/262/334 174/461/559
f 218/464/562 274/417/500 273/411/494 222/463/561
f 217/465/563 275/420/503 274/417/500 218/464/562
f 221/466/564 276/414/497 275/420/503 217/465/563
f 173/467/565 277/261/333 276/414/497 221/466/564
f 170/468/566 278/258/330 277/261/333 173/467/565
f 205/469/567 279/299/371 278/258/330 170/468/566
f 216/470/568 280/313/385 279/299/371 205/469/567
f 226/471/569 281/368/438 280/313/385 216/470/568
f 228/472/570 282/373/446 281/368/438 226/471/569
f 229/473/571 283/381/454 282/373/446 228/472/570
f 233/474/572 284/385/458 283/381/454 229/473/571
f 234/475/573 285/388/461 284/385/458 233/474/572
f 230/476/574 286/384/457 285/388/461 234/475/573
f 227/477/575 287/372/445 286/384/457 230/476/574
f 225/478/576 288/367/437 287/372/445 227/477/575
f 215/479/577 289/312/384 288/367/437 225/478/576
f 206/480/578 290/301/373 289/312/384 215/479/577
f 177/462/560 271/265/337 290/301/373 206/480/578
f 291/263/335 311/481/579 312/482/580 292/264/336
f 293/302/374 292/264/336 312/482/580 313/483/581
f 294/311/383 293/302/374 313/483/581 314/484/582
f 295/366/436 294/311/383 314/484/582 315/485/583
f 296/371/444 295/366/436 315/485/583 316/486/584
f 297/383/456 296/371/444 316/486/584 317/487/585
f 298/387/460 297/383/456 317/487/585 318/488/586
f 299/386/459 298/387/460 318/488/586 319/489/587
f 300/382/455 299/386/459 319/489/587 320/490/588
f 301/374/447 300/382/455 320/490/588 321/491/589
f 302/369/439 301/374/447 321/491/589 322/492/590
f 303/314/386 302/369/439 322/492/590 323/493/591
f 304/300/372 303/314/386 323/493/591 324/494/592
f 305/259/331 304/300/372 324/494/592 325/495/593
f 306/260/332 305/259/331 325/495/593 326/496/594
f 307/413/496 306/260/332 326/496/594 327/497/595
f 308/419/502 307/413/496 327/497/595 328/498/596
f 309/418/501 308/419/502 328/498/596 329/499/597
f 310/412/495 309/418/501 329/499/597 330/500/598
f 291/263/335 310/412/495 330/500/598 311/481/579
f 311/481/579 331/501/599 332/502/600 312/482/580
f 313/483/581 312/482/580 332/502/600 333/503/601
f 314/484/582 313/483/581 333/503/601 334/504/602
f 315/485/583 314/484/582 334/504/602 335/505/603
f 316/486/584 315/485/583 335/505/603 336/506/604
f 317/487/585 316/486/584 336/506/604 337/507/605
f 318/488/586 317/487/585 337/507/605 338/508/606
f 319/489/587 318/488/586 338/508/606 339/509/607
f 320/490/588 319/489/587 339/509/607 340/510/608
f 321/491/589 320/490/588 340/510/608 341/511/609
f 322/492/590 321/491/589 341/511/609 342/512/610
f 323/493/591 322/492/590 342/512/610 343/513/611
f 324/494/592 323/493/591 343/513/611 344/514/612
f 325/495/593 324/494/592 344/514/612 345/515/613
f 326/496/594 325/495/593 345/515/613 346/516/614
f 327/497/595 326/496/594 346/516/614 347/517/615
f 328/498/596 327/497/595 347/517/615 348/518/616
f 329/499/597 328/498/596 348/518/616 349/519/617
f 330/500/598 329/499/597 349/519/617 350/520/618
f 311/481/579 330/500/598 350/520/618 331/501/599
f 331/501/599 351/521/619 352/522/620 332/502/600
f 333/503/601 332/502/600 352/522/620 353/523/621
f 334/504/602 333/503/601 353/523/621 354/524/622
f 335/505/603 334/504/602 354/524/622 355/525/623
f 336/506/604 335/505/603 355/525/623 356/526/624
f 337/507/605 336/506/604 356/526/624 357/527/625
f 338/508/606 337/507/605 357/527/625 358/528/626
f 339/509/607 338/508/606 358/528/626 359/529/627
f 340/510/608 339/509/607 359/529/627 360/530/628
f 341/511/609 340/510/608 360/530/628 361/531/629
f 342/512/610 341/511/609 361/531/629 362/532/630
f 343/513/611 342/512/610 362/532/630 363/533/631
f 344/514/612 343/513/611 363/533/631 364/534/632
f 345/515/613 344/514/612 364/534/632 365/535/633
f 346/516/614 345/515/613 365/535/633 366/536/634
f 347/517/615 346/516/614 366/536/634 367/537/635
f 348/518/616 347/517/615 367/537/635 368/538/636
f 349/519/617 348/518/616 368/538/636 369/539/637
f 350/520/618 349/519/617 369/539/637 370/540/638
f 331/501/599 350/520/618 370/540/638 351/521/619
f 351/521/619 371/541/639 372/542/640 352/522/620
f 353/523/621 352/522/620 372/542/640 373/543/641
f 354/524/622 353/523/621 373/543/641 374/544/642
f 355/525/623 354/524/622 374/544/642 375/545/643
f 356/526/624 355/525/623 375/545/643 376/546/644
f 357/527/625 356/526/624 376/546/644 377/547/645
f 358/528/626 357/527/625 377/547/645 378/548/646
f 359/529/627 358/528/626 378/548/646 379/549/647
f 360/530/628 359/529/627 379/549/647 380/550/648
f 361/531/629 360/530/628 380/550/648 381/551/649
f 362/532/630 361/531/629 381/551/649 382/552/650
f 363/533/631 362/532/630 382/552/650 383/553/651
f 364/534/632 363/533/631 383/553/651 384/554/652
f 365/535/633 364/534/632 384/554/652 385/555/653
f 366/536/634 365/535/633 385/555/653 386/556/654
f 367/537/635 366/536/634 386/556/654 387/557/655
f 368/538/636 367/537/635 387/557/655 388/558/656
f 369/539/637 368/538/636 388/558/656 389/559/657
f 370/540/638 369/539/637 389/559/657 390/560/658
f 351/521/619 370/540/638 390/560/658 371/541/639
f 371/541/639 391/561/659 392/562/660 372/542/640
f 373/543/641 372/542/640 392/562/660 393/563/661
f 374/544/642 373/543/641 393/563/661 394/564/662
f 375/545/643 374/544/642 394/564/662 395/565/663
f 376/546/644 375/545/643 395/565/663 396/566/664
f 377/547/645 376/546/644 396/566/664 397/567/665
f 378/548/646 377/547/645 397/567/665 398/568/666
f 379/549/647 378/548/646 398/568/666 399/569/667
f 380/550/648 379/549/647 399/569/667 400/570/668
f 381/551/649 380/550/648 400/570/668 401/571/669
f 382/552/650 381/551/649 401/571/669 402/572/670
f 383/553/651 382/552/650 402/572/670 403/573/671
f 384/554/652 383/553/651 403/573/671 404/574/672
f 385/555/653 384/554/652 404/574/672 405/575/673
f 386/556/654 385/555/653 405/575/673 406/576/674
f 387/557/655 386/556/654 406/576/674 407/577/675
f 388/558/656 387/557/655 407/577/675 408/578/676
f 389/559/657 388/558/656 408/578/676 409/579/677
f 390/560/658 389/559/657 409/579/677 410/580/678
f 371/541/639 390/560/658 410/580/678 391/561/659
f 391/561/659 411/581/679 412/582/680 392/562/660
f 393/563/661 392/562/660 412/582/680 413/583/681
f 394/564/662 393/563/661 413/583/681 414/584/682
f 395/565/663 394/564/662 414/584/682 415/585/683
f 396/566/664 395/565/663 415/585/683 416/586/684
f 397/567/665 396/566/664 416/586/684 417/587/685
f 398/568/666 397/567/665 417/587/685 418/588/686
f 399/569/667 398/568/666 418/588/686 419/589/687
f 400/570/668 399/569/667 419/589/687 420/590/688
f 401/571/669 400/570/668 420/590/688 421/591/689
f 402/572/670 401/571/669 421/591/689 422/592/690
f 403/573/671 402/572/670 422/592/690 423/593/691
f 404/574/672 403/573/671 423/593/691 424/594/692
f 405/575/673 404/574/672 424/594/692 425/595/693
f 406/576/674 405/575/673 425/595/693 426/596/694
f 407/577/675 406/576/674 426/596/694 427/597/695
f 408/578/676 407/577/675 427/597/695 428/598/696
f 409/579/677 408/578/676 428/598/696 429/599/697
f 410/580/678 409/579/677 429/599/697 430/600/698
f 391/561/659 410/580/678 430/600/698 411/581/679
f 411/581/679 431/601/699 432/602/700 412/582/680
f 413/583/681 412/582/680 432/602/700 433/603/701
f 414/584/682 413/583/681 433/603/701 434/604/702
f 415/585/683 414/584/682 434/604/702 435/605/703
f 416/586/684 415/585/683 435/605/703 436/606/704
f 417/587/685 416/586/684 436/606/704 437/607/705
f 418/588/686 417/587/685 437/607/705 438/608/706
f 419/589/687 418/588/686 438/608/706 439/609/707
f 420/590/688 419/589/687 439/609/707 440/610/708
f 421/591/689 420/590/688 440/610/708 441/611/709
f 422/592/690 421/591/689 441/611/709 442/612/710
f 423/593/691 422/592/690 442/612/710 443/613/711
f 424/594/692 423/593/691 443/613/711 444/614/712
f 425/595/693 424/594/692 444/614/712 445/615/713
f 426/596/694 425/595/693 445/615/713 446/616/714
f 427/597/695 426/596/694 446/616/714 447/617/715
f 428/598/696 427/597/695 447/617/715 448/618/716
f 429/599/697 428/598/696 448/618/716 449/619/717
f 430/600/698 429/599/697 449/619/717 450/620/718
f 411/581/679 430/600/698 450/620/718 431/601/699
f 431/601/699 175/621/719 176/622/504 432/602/700
f 433/603/701 432/602/700 176/622/504 202/623/366
f 434/604/702 433/603/701 202/623/366 201/624/365
f 435/605/703 434/604/702 201/624/365 232/625/430
f 436/606/704 435/605/703 232/625/430 235/626/720
f 437/607/705 436/606/704 235/626/720 238/627/721
f 438/608/706 437/607/705 238/627/721 240/628/484
f 439/609/707 438/608/706 240/628/484 239/629/478
f 440/610/708 439/609/707 239/629/478 237/630/473
f 441/611/709 440/610/708 237/630/473 236/631/472
f 442/612/710 441/611/709 236/631/472 224/632/722
f 443/613/711 442/612/710 224/632/722 181/633/723
f 444/614/712 443/613/711 181/633/723 180/634/536
f 445/615/713 444/614/712 180/634/536 171/635/535
f 446/616/714 445/615/713 171/635/535 172/636/541
f 447/617/715 446/616/714 172/636/541 250/637/544
f 448/618/716 447/617/715 250/637/544 254/638/724
f 449/619/717 448/618/716 254/638/724 253/639/725
f 450/620/718 449/619/717 253/639/725 249/640/726
f 431/601/699 450/620/718 249/640/726 175/621/719
s 14
f 258/427/727 179/269/728 452/641/729 451/642/730
f 179/269/728 178/268/731 453/643/732 452/641/729
f 178/268/731 223/338/733 454/644/734 453/643/732
s 17
f 182/337/735 455/645/736 454/644/737 223/338/738
s 18
f 182/337/739 211/646/740 456/647/741 455/645/742
f 211/646/740 214/648/743 457/649/744 456/647/741
f 214/648/743 220/403/745 458/650/746 457/649/744
s 21
f 459/651/747 458/650/748 220/403/749 246/404/750
s 22
f 246/404/751 245/402/752 460/652/753 459/651/754
f 245/402/752 243/398/755 461/653/756 460/652/753
f 243/398/755 242/397/757 462/654/758 461/653/756
s 19
f 212/396/759 463/655/760 462/654/761 242/397/762
s 12
f 212/396/763 183/656/764 464/657/765 463/655/766
f 183/658/764 169/659/767 465/660/768 464/661/765
f 169/659/767 168/447/769 466/662/770 465/660/768
s 26
f 467/663/771 466/662/772 168/447/773 263/450/774
s 29
f 263/450/775 266/449/776 468/664/777 467/663/778
f 266/449/776 268/454/779 469/665/780 468/664/777
f 268/454/779 270/457/781 470/666/782 469/665/780
s 28
f 260/456/783 471/667/784 470/666/785 270/457/786
s 24
f 260/456/787 262/668/788 472/669/789 471/667/790
f 262/668/788 261/670/791 473/671/792 472/669/789
f 261/670/791 259/672/793 474/673/794 473/671/792
f 259/672/793 256/674/795 475/675/796 474/673/794
f 256/674/795 251/426/797 476/676/798 475/675/796
s 23
f 451/642/799 476/676/800 251/426/801 258/427/802
s 14
f 451/642/730 452/641/729 478/285/355 477/425/508
f 452/641/729 453/643/732 479/286/356 478/285/355
f 453/643/732 454/644/734 480/359/428 479/286/356
s 17
f 455/645/736 481/370/440 480/359/443 454/644/737
s 18
f 455/645/742 456/647/741 482/375/449 481/370/448
f 456/647/741 457/649/744 483/389/462 482/375/449
f 457/649/744 458/650/746 484/391/464 483/389/462
s 21
f 485/407/482 484/391/481 458/650/748 459/651/747
s 22
f 459/651/754 460/652/753 486/410/490 485/407/492
f 460/652/753 461/653/756 487/409/486 486/410/490
f 461/653/756 462/654/758 488/394/487 487/409/486
s 19
f 463/655/760 489/377/466 488/394/469 462/654/761
s 12
f 463/655/766 464/657/765 490/378/410 489/377/452
f 464/661/765 465/660/768 491/270/340 490/339/410
f 465/660/768 466/662/770 492/271/341 491/270/340
s 26
f 493/443/533 492/271/532 466/662/772 467/663/771
s 29
f 467/663/778 468/664/777 494/459/552 493/443/551
f 468/664/777 469/665/780 495/460/555 494/459/552
f 469/665/780 470/666/782 496/458/557 495/460/555
s 28
f 471/667/784 497/439/547 496/458/550 470/666/785
s 24
f 471/667/790 472/669/789 498/440/528 497/439/527
f 472/669/789 473/671/792 499/437/525 498/440/528
f 473/671/792 474/673/794 500/435/523 499/437/525
f 474/673/794 475/675/796 501/433/519 500/435/523
f 475/675/796 476/676/798 502/432/520 501/433/519
s 23
f 477/425/517 502/432/516 476/676/800 451/642/799
