# Blender 5.0.0
# www.blender.org
mtllib Shelf3.mtl
o Table_Cube.006
v -1.774248 0.372042 1.022943
v -1.774248 0.374744 1.025064
v -1.776369 0.374744 1.022943
v -1.774248 0.372833 1.024443
v -1.775473 0.373184 1.024168
v -1.775748 0.374744 1.024443
v -1.775748 0.372833 1.022943
v -1.774248 0.449340 1.025064
v -1.774248 0.452042 1.022943
v -1.776369 0.449340 1.022943
v -1.774248 0.451251 1.024443
v -1.775473 0.450900 1.024168
v -1.775748 0.451251 1.022943
v -1.775748 0.449340 1.024443
v -1.774248 0.372042 -0.239943
v -1.776369 0.374744 -0.239943
v -1.774248 0.374744 -0.242064
v -1.775748 0.372833 -0.239943
v -1.775473 0.373184 -0.241168
v -1.775748 0.374744 -0.241443
v -1.774248 0.372833 -0.241443
v -1.774248 0.452042 -0.239943
v -1.774248 0.449340 -0.242064
v -1.776369 0.449340 -0.239943
v -1.774248 0.451251 -0.241443
v -1.775473 0.450900 -0.241168
v -1.775748 0.449340 -0.241443
v -1.775748 0.451251 -0.239943
v 1.774248 0.372042 1.022943
v 1.776369 0.374744 1.022943
v 1.774248 0.374744 1.025064
v 1.775748 0.372833 1.022943
v 1.775473 0.373184 1.024168
v 1.775748 0.374744 1.024443
v 1.774248 0.372833 1.024443
v 1.774248 0.452042 1.022943
v 1.774248 0.449340 1.025064
v 1.776369 0.449340 1.022943
v 1.774248 0.451251 1.024443
v 1.775473 0.450900 1.024168
v 1.775748 0.449340 1.024443
v 1.775748 0.451251 1.022943
v 1.774248 0.372042 -0.239943
v 1.774248 0.374744 -0.242064
v 1.776369 0.374744 -0.239943
v 1.774248 0.372833 -0.241443
v 1.775473 0.373184 -0.241168
v 1.775748 0.374744 -0.241443
v 1.775748 0.372833 -0.239943
v 1.774248 0.452042 -0.239943
v 1.776369 0.449340 -0.239943
v 1.774248 0.449340 -0.242064
v 1.775748 0.451251 -0.239943
v 1.775473 0.450900 -0.241168
v 1.775748 0.449340 -0.241443
v 1.774248 0.451251 -0.241443
vn 0.0023 0.0229 0.9997
vn 0.0034 -0.0241 0.9997
vn -0.0023 -0.0229 0.9997
vn -0.0034 0.0241 0.9997
vn 0.9997 0.0229 -0.0026
vn 0.9997 -0.0241 -0.0037
vn 0.9997 -0.0229 0.0026
vn 0.9997 0.0241 0.0038
vn 0.0351 0.9986 -0.0385
vn -0.0381 0.9986 -0.0353
vn -0.0350 0.9986 0.0384
vn 0.0381 0.9986 0.0353
vn -0.9997 0.0229 0.0026
vn -0.9997 -0.0241 0.0038
vn -0.9997 -0.0229 -0.0026
vn -0.9997 0.0241 -0.0037
vn -0.0024 0.0230 -0.9997
vn -0.0034 -0.0241 -0.9997
vn 0.0023 -0.0229 -0.9997
vn 0.0034 0.0241 -0.9997
vn -0.0314 -0.9986 0.0423
vn -0.0193 -0.6605 0.7506
vn -0.6113 -0.5026 0.6113
vn -0.7577 -0.6523 0.0191
vn -0.7069 0.0253 0.7069
vn -0.0193 0.6606 0.7505
vn -0.6113 0.5026 0.6113
vn -0.7085 -0.0252 0.7053
vn -0.7506 0.6605 0.0195
vn -0.0419 -0.9986 -0.0317
vn -0.7506 -0.6605 -0.0194
vn -0.6113 -0.5026 -0.6113
vn -0.0188 -0.6523 -0.7577
vn -0.7068 0.0253 -0.7069
vn -0.0193 0.6605 -0.7506
vn -0.6113 0.5026 -0.6113
vn -0.7577 0.6523 -0.0192
vn -0.7069 -0.0253 -0.7069
vn 0.0418 -0.9986 0.0318
vn 0.7506 -0.6605 0.0195
vn 0.6113 -0.5026 0.6113
vn 0.0188 -0.6523 0.7577
vn 0.7068 0.0253 0.7069
vn 0.0193 0.6605 0.7506
vn 0.6113 0.5026 0.6113
vn 0.7577 0.6523 0.0192
vn 0.7069 -0.0251 0.7069
vn 0.0314 -0.9986 -0.0422
vn 0.0193 -0.6606 -0.7505
vn 0.6113 -0.5026 -0.6113
vn 0.7577 -0.6523 -0.0192
vn 0.7069 0.0253 -0.7069
vn 0.7505 0.6606 -0.0195
vn 0.6113 0.5026 -0.6113
vn 0.0189 0.6523 -0.7577
vn 0.7068 -0.0253 -0.7069
vt 0.994728 0.990162
vt 0.967031 0.990162
vt 0.967031 0.266786
vt 0.994728 0.266786
vt 0.962050 0.267071
vt 0.934353 0.267071
vt 0.934353 0.009626
vt 0.962050 0.009626
vt 0.691346 0.091893
vt 0.691346 0.856430
vt 0.419253 0.856430
vt 0.419253 0.091893
vt 0.994728 0.265921
vt 0.967031 0.265921
vt 0.967031 0.008477
vt 0.994728 0.008477
vt 0.962050 0.991313
vt 0.934353 0.991314
vt 0.934353 0.267936
vt 0.962050 0.267936
vt 0.144664 0.091893
vt 0.144207 0.091893
vt 0.144207 0.091630
vt 0.144664 0.091436
vt 0.994728 0.266354
vt 0.995308 0.266354
vt 0.995732 0.266786
vt 0.995732 0.265921
vt 0.995732 0.266171
vt 0.966027 0.266786
vt 0.966027 0.266537
vt 0.967031 0.266354
vt 0.419253 0.856887
vt 0.418989 0.856887
vt 0.418796 0.856430
vt 0.966452 0.266354
vt 0.966027 0.265921
vt 0.416757 0.091893
vt 0.416757 0.091436
vt 0.417021 0.091436
vt 0.417214 0.091893
vt 0.994728 0.008044
vt 0.995308 0.008044
vt 0.995732 0.008477
vt 0.963054 0.991314
vt 0.963054 0.991563
vt 0.962050 0.991746
vt 0.691803 0.856430
vt 0.691803 0.856694
vt 0.691346 0.856887
vt 0.934353 0.991746
vt 0.933774 0.991746
vt 0.933349 0.991314
vt 0.966027 0.008477
vt 0.966027 0.008227
vt 0.967031 0.008044
vt 0.144664 0.856430
vt 0.144664 0.856887
vt 0.144400 0.856887
vt 0.144207 0.856430
vt 0.962050 0.009194
vt 0.962630 0.009194
vt 0.963054 0.009626
vt 0.995732 0.990162
vt 0.995732 0.990412
vt 0.994728 0.990595
vt 0.418796 0.091893
vt 0.418796 0.091630
vt 0.419253 0.091436
vt 0.967031 0.990595
vt 0.966451 0.990595
vt 0.966027 0.990162
vt 0.933349 0.009626
vt 0.933349 0.009376
vt 0.934353 0.009194
vt 0.416757 0.856430
vt 0.417214 0.856430
vt 0.417214 0.856694
vt 0.416757 0.856887
vt 0.962050 0.267504
vt 0.962630 0.267504
vt 0.963054 0.267936
vt 0.963054 0.267071
vt 0.963054 0.267321
vt 0.691346 0.091436
vt 0.691610 0.091436
vt 0.691803 0.091893
vt 0.934353 0.267504
vt 0.933774 0.267504
vt 0.933349 0.267071
vt 0.933349 0.267936
vt 0.933349 0.267686
s 1
usemtl Mat
f 31/1/1 37/2/2 8/3/3 2/4/4
f 45/5/5 51/6/6 38/7/7 30/8/8
f 50/9/9 22/10/10 9/11/11 36/12/12
f 3/13/13 10/14/14 24/15/15 16/16/16
f 17/17/17 23/18/18 52/19/19 44/20/20
f 1/21/21 4/22/22 5/23/23 7/24/24
f 2/4/4 6/25/25 5/26/23 4/27/22
f 3/13/13 7/28/24 5/29/23 6/25/25
f 8/3/3 11/30/26 12/31/27 14/32/28
f 9/11/11 13/33/29 12/34/27 11/35/26
f 10/14/14 14/32/28 12/36/27 13/37/29
f 15/38/30 18/39/31 19/40/32 21/41/33
f 16/16/16 20/42/34 19/43/32 18/44/31
f 17/17/17 21/45/33 19/46/32 20/47/34
f 22/10/10 25/48/35 26/49/36 28/50/37
f 23/18/18 27/51/38 26/52/36 25/53/35
f 24/15/15 28/54/37 26/55/36 27/56/38
f 29/57/39 32/58/40 33/59/41 35/60/42
f 30/8/8 34/61/43 33/62/41 32/63/40
f 31/1/1 35/64/42 33/65/41 34/66/43
f 36/12/12 39/67/44 40/68/45 42/69/46
f 37/2/2 41/70/47 40/71/45 39/72/44
f 38/7/7 42/73/46 40/74/45 41/75/47
f 43/76/48 46/77/49 47/78/50 49/79/51
f 44/20/20 48/80/52 47/81/50 46/82/49
f 45/5/5 49/83/51 47/84/50 48/80/52
f 50/9/9 53/85/53 54/86/54 56/87/55
f 51/6/6 55/88/56 54/89/54 53/90/53
f 52/19/19 56/91/55 54/92/54 55/88/56
f 15/38/30 1/21/21 7/24/24 18/39/31
f 18/44/31 7/28/24 3/13/13 16/16/16
f 2/4/4 8/3/3 14/32/28 6/25/25
f 6/25/25 14/32/28 10/14/14 3/13/13
f 9/11/11 22/10/10 28/50/37 13/33/29
f 13/37/29 28/54/37 24/15/15 10/14/14
f 23/18/18 17/17/17 20/47/34 27/51/38
f 27/56/38 20/42/34 16/16/16 24/15/15
f 43/76/48 15/38/30 21/41/33 46/77/49
f 46/82/49 21/45/33 17/17/17 44/20/20
f 22/10/10 50/9/9 56/87/55 25/48/35
f 25/53/35 56/91/55 52/19/19 23/18/18
f 51/6/6 45/5/5 48/80/52 55/88/56
f 55/88/56 48/80/52 44/20/20 52/19/19
f 29/57/39 43/76/48 49/79/51 32/58/40
f 32/63/40 49/83/51 45/5/5 30/8/8
f 50/9/9 36/12/12 42/69/46 53/85/53
f 53/90/53 42/73/46 38/7/7 51/6/6
f 37/2/2 31/1/1 34/66/43 41/70/47
f 41/75/47 34/61/43 30/8/8 38/7/7
f 1/21/21 29/57/39 35/60/42 4/22/22
f 4/27/22 35/64/42 31/1/1 2/4/4
f 36/12/12 9/11/11 11/35/26 39/67/44
f 39/72/44 11/30/26 8/3/3 37/2/2
f 15/38/30 43/76/48 29/57/39 1/21/21
