# Blender 3.4.1
# www.blender.org
mtllib Speaker.mtl
o Cubo
v 0.660658 0.131621 0.756554
v 0.616882 1.952744 0.756554
v 0.660658 -0.000550 -0.567316
v 0.616882 1.952744 -0.567316
v 0.660658 -0.000550 0.650414
v 0.616882 1.952744 0.650414
v 0.660658 1.850572 0.650414
v 0.660658 1.850572 0.756554
v 0.660658 1.850572 -0.567316
v 0.516397 -0.000550 -0.567316
v 0.516397 1.999450 -0.567316
v 0.516397 0.131621 0.756554
v 0.516397 1.999450 0.756554
v 0.516397 1.999450 0.650414
v 0.516397 -0.000550 0.650414
v 0.586815 1.931222 0.756554
v 0.516397 1.850572 -0.567316
v 0.624260 0.166120 0.756554
v 0.000000 1.850572 -0.567316
v 0.000000 -0.000550 -0.567316
v 0.000000 -0.000550 0.650414
v 0.000000 1.999450 -0.567316
v 0.000000 1.999450 0.650414
v 0.000000 1.999450 0.756554
v 0.000000 0.131621 0.756554
v 0.624260 1.838545 0.756554
v 0.479999 0.166120 0.756554
v 0.509118 1.967167 0.756554
v 0.000000 1.967167 0.756554
v 0.000000 0.166120 0.756554
v 0.586815 1.931222 0.653691
v 0.624260 0.166120 0.653691
v 0.624260 1.838545 0.653691
v 0.479999 0.166120 0.653691
v 0.509118 1.967167 0.653691
v 0.000000 1.967167 0.653691
v 0.000000 0.166120 0.653691
v -0.660658 0.131621 0.756554
v -0.616882 1.952744 0.756554
v -0.660658 -0.000550 -0.567316
v -0.616882 1.952744 -0.567316
v -0.660658 -0.000550 0.650414
v -0.616882 1.952744 0.650414
v -0.660658 1.850572 0.650414
v -0.660658 1.850572 0.756554
v -0.660658 1.850572 -0.567316
v -0.516397 -0.000550 -0.567316
v -0.516397 1.999450 -0.567316
v -0.516397 0.131621 0.756554
v -0.516397 1.999450 0.756554
v -0.516397 1.999450 0.650414
v -0.516397 -0.000550 0.650414
v -0.586815 1.931222 0.756554
v -0.516397 1.850572 -0.567316
v -0.624260 0.166120 0.756554
v -0.624260 1.838545 0.756554
v -0.479999 0.166120 0.756554
v -0.509118 1.967167 0.756554
v -0.586815 1.931222 0.653691
v -0.624260 0.166120 0.653691
v -0.624260 1.838545 0.653691
v -0.479999 0.166120 0.653691
v -0.509118 1.967167 0.653691
vn 0.4215 0.9068 -0.0000
vn 0.9192 0.3938 -0.0000
vn -0.0000 -0.0000 1.0000
vn -0.0000 -0.0000 -1.0000
vn -0.0000 -0.6261 0.7797
vn -0.0000 -1.0000 -0.0000
vn -0.0000 1.0000 -0.0000
vn 1.0000 -0.0000 -0.0000
vn -0.9272 -0.3746 -0.0000
vn -0.4199 -0.9076 -0.0000
vn -1.0000 -0.0000 -0.0000
vn -0.4215 0.9068 -0.0000
vn -0.9192 0.3938 -0.0000
vn 0.9272 -0.3746 -0.0000
vn 0.4199 -0.9076 -0.0000
vt 0.375000 0.750000
vt 0.625000 0.750000
vt 0.375000 0.500000
vt 0.625000 0.500000
vt 0.375000 0.729956
vt 0.625000 0.729956
vt 0.611304 0.729956
vt 0.611304 0.750000
vt 0.611304 0.500000
vt 0.375000 0.479113
vt 0.354113 0.500000
vt 0.645887 0.500000
vt 0.625000 0.479113
vt 0.354113 0.750000
vt 0.645887 0.750000
vt 0.645887 0.729956
vt 0.354113 0.729956
vt 0.625000 0.750000
vt 0.611304 0.479113
vt 0.375000 0.750000
vt 0.611304 0.375000
vt 0.375000 0.375000
vt 0.250000 0.500000
vt 0.250000 0.729956
vt 0.750000 0.500000
vt 0.625000 0.375000
vt 0.750000 0.729956
vt 0.750000 0.750000
vt 0.250000 0.750000
vt 0.611304 0.750000
vt 0.354113 0.750000
vt 0.645887 0.750000
vt 0.750000 0.750000
vt 0.250000 0.750000
vt 0.625000 0.750000
vt 0.375000 0.750000
vt 0.611304 0.750000
vt 0.354113 0.750000
vt 0.645887 0.750000
vt 0.750000 0.750000
vt 0.250000 0.750000
vt 0.375000 0.750000
vt 0.625000 0.750000
vt 0.375000 0.500000
vt 0.625000 0.500000
vt 0.375000 0.729956
vt 0.625000 0.729956
vt 0.611304 0.729956
vt 0.611304 0.750000
vt 0.611304 0.500000
vt 0.375000 0.479113
vt 0.354113 0.500000
vt 0.645887 0.500000
vt 0.625000 0.479113
vt 0.354113 0.750000
vt 0.645887 0.750000
vt 0.645887 0.729956
vt 0.354113 0.729956
vt 0.625000 0.750000
vt 0.611304 0.479113
vt 0.375000 0.750000
vt 0.611304 0.750000
vt 0.354113 0.750000
vt 0.645887 0.750000
vt 0.625000 0.750000
vt 0.375000 0.750000
vt 0.611304 0.750000
vt 0.354113 0.750000
vt 0.645887 0.750000
s 0
usemtl Base
f 4/4/1 11/12/1 14/16/1 6/6/1
f 7/7/2 6/6/2 2/2/2 8/8/2
f 6/6/1 14/16/1 13/15/1 2/2/1
f 25/29/3 12/14/3 27/31/3 30/34/3
f 9/9/2 4/4/2 6/6/2 7/7/2
f 17/19/4 11/13/4 4/4/4 9/9/4
f 15/17/5 5/5/5 1/1/5 12/14/5
f 10/11/6 3/3/6 5/5/6 15/17/6
f 22/25/7 23/27/7 14/16/7 11/12/7
f 23/27/7 24/28/7 13/15/7 14/16/7
f 2/2/3 13/15/3 28/32/3 16/18/3
f 1/1/3 8/8/3 26/30/3 18/20/3
f 10/10/4 17/19/4 9/9/4 3/3/4
f 3/3/8 9/9/8 7/7/8 5/5/8
f 13/15/3 24/28/3 29/33/3 28/32/3
f 5/5/8 7/7/8 8/8/8 1/1/8
f 11/13/4 17/19/4 19/21/4 22/26/4
f 17/19/4 10/10/4 20/22/4 19/21/4
f 15/17/5 12/14/5 25/29/5 21/24/5
f 10/11/6 15/17/6 21/24/6 20/23/6
f 8/8/3 2/2/3 16/18/3 26/30/3
f 12/14/3 1/1/3 18/20/3 27/31/3
f 26/30/9 16/18/9 31/35/9 33/37/9
f 28/32/6 29/33/6 36/40/6 35/39/6
f 16/18/10 28/32/10 35/39/10 31/35/10
f 18/20/11 26/30/11 33/37/11 32/36/11
f 27/31/7 18/20/7 32/36/7 34/38/7
f 30/34/7 27/31/7 34/38/7 37/41/7
f 41/45/12 43/47/12 51/57/12 48/53/12
f 44/48/13 45/49/13 39/43/13 43/47/13
f 43/47/12 39/43/12 50/56/12 51/57/12
f 25/29/3 30/34/3 57/63/3 49/55/3
f 46/50/13 44/48/13 43/47/13 41/45/13
f 54/60/4 46/50/4 41/45/4 48/54/4
f 52/58/5 49/55/5 38/42/5 42/46/5
f 47/52/6 52/58/6 42/46/6 40/44/6
f 22/25/7 48/53/7 51/57/7 23/27/7
f 23/27/7 51/57/7 50/56/7 24/28/7
f 39/43/3 53/59/3 58/64/3 50/56/3
f 38/42/3 55/61/3 56/62/3 45/49/3
f 47/51/4 40/44/4 46/50/4 54/60/4
f 40/44/11 42/46/11 44/48/11 46/50/11
f 50/56/3 58/64/3 29/33/3 24/28/3
f 42/46/11 38/42/11 45/49/11 44/48/11
f 48/54/4 22/26/4 19/21/4 54/60/4
f 54/60/4 19/21/4 20/22/4 47/51/4
f 52/58/5 21/24/5 25/29/5 49/55/5
f 47/52/6 20/23/6 21/24/6 52/58/6
f 45/49/3 56/62/3 53/59/3 39/43/3
f 49/55/3 57/63/3 55/61/3 38/42/3
f 56/62/14 61/67/14 59/65/14 53/59/14
f 58/64/6 63/69/6 36/40/6 29/33/6
f 53/59/15 59/65/15 63/69/15 58/64/15
f 55/61/8 60/66/8 61/67/8 56/62/8
f 57/63/7 62/68/7 60/66/7 55/61/7
f 30/34/7 37/41/7 62/68/7 57/63/7
o Plano
v -0.000000 1.742016 0.750426
v -0.096286 1.722863 0.750426
v -0.177914 1.668321 0.750426
v -0.232456 1.586694 0.750426
v -0.251609 1.490407 0.750426
v -0.232456 1.394121 0.750426
v -0.177914 1.312493 0.750426
v -0.096286 1.257951 0.750426
v -0.000000 1.238799 0.750426
v 0.096286 1.257951 0.750426
v 0.177914 1.312493 0.750426
v 0.232456 1.394121 0.750426
v 0.251609 1.490407 0.750426
v 0.232456 1.586694 0.750426
v 0.177914 1.668321 0.750426
v 0.096286 1.722863 0.750426
v -0.000000 1.764270 0.750426
v -0.104803 1.743424 0.750426
v -0.193650 1.684058 0.750426
v -0.253016 1.595210 0.750426
v -0.273863 1.490407 0.750426
v -0.253016 1.385605 0.750426
v -0.193650 1.296757 0.750426
v -0.104803 1.237391 0.750426
v -0.000000 1.216545 0.750426
v 0.104803 1.237391 0.750426
v 0.193650 1.296757 0.750426
v 0.253016 1.385605 0.750426
v 0.273863 1.490407 0.750426
v 0.253016 1.595210 0.750426
v 0.193650 1.684058 0.750426
v 0.104803 1.743424 0.750426
v -0.000000 1.764270 0.702160
v -0.104803 1.743424 0.702160
v -0.193650 1.684058 0.702160
v -0.253016 1.595210 0.702160
v -0.273863 1.490407 0.702160
v -0.253016 1.385605 0.702160
v -0.193650 1.296757 0.702160
v -0.104803 1.237391 0.702160
v -0.000000 1.216545 0.702160
v 0.104803 1.237391 0.702160
v 0.193650 1.296757 0.702160
v 0.253016 1.385605 0.702160
v 0.273863 1.490407 0.702160
v 0.253016 1.595210 0.702160
v 0.193650 1.684058 0.702160
v 0.104803 1.743424 0.702160
v -0.000000 1.578904 0.675257
v -0.033866 1.572168 0.675257
v -0.062577 1.552984 0.675257
v -0.081760 1.524274 0.675257
v -0.088497 1.490407 0.675257
v -0.081760 1.456541 0.675257
v -0.062577 1.427831 0.675257
v -0.033866 1.408647 0.675257
v -0.000000 1.401911 0.675257
v 0.033866 1.408647 0.675257
v 0.062577 1.427831 0.675257
v 0.081760 1.456541 0.675257
v 0.088497 1.490407 0.675257
v 0.081760 1.524274 0.675257
v 0.062577 1.552984 0.675257
v 0.033866 1.572168 0.675257
v -0.000000 1.641364 0.728502
v -0.000000 1.701158 0.750426
v -0.080651 1.685116 0.750426
v -0.057769 1.629873 0.728502
v -0.149023 1.639431 0.750426
v -0.106742 1.597150 0.728502
v -0.194708 1.571058 0.750426
v -0.139466 1.548176 0.728502
v -0.210751 1.490407 0.750426
v -0.150957 1.490407 0.728502
v -0.194708 1.409757 0.750426
v -0.139466 1.432639 0.728502
v -0.149023 1.341384 0.750426
v -0.106742 1.383665 0.728502
v -0.080651 1.295699 0.750426
v -0.057769 1.350942 0.728502
v -0.000000 1.279657 0.750426
v -0.000000 1.339451 0.728502
v 0.080651 1.295699 0.750426
v 0.057769 1.350942 0.728502
v 0.149023 1.341384 0.750426
v 0.106742 1.383665 0.728502
v 0.194708 1.409757 0.750426
v 0.139466 1.432639 0.728502
v 0.210751 1.490407 0.750426
v 0.150957 1.490407 0.728502
v 0.194708 1.571058 0.750426
v 0.139466 1.548176 0.728502
v 0.149023 1.639431 0.750426
v 0.106742 1.597150 0.728502
v 0.080651 1.685116 0.750426
v 0.057769 1.629873 0.728502
v -0.096286 1.722863 0.760347
v -0.000000 1.742016 0.760347
v -0.177914 1.668321 0.760347
v -0.232456 1.586694 0.760347
v -0.251609 1.490407 0.760347
v -0.232456 1.394121 0.760347
v -0.177914 1.312493 0.760347
v -0.096286 1.257951 0.760347
v -0.000000 1.238799 0.760347
v 0.096286 1.257951 0.760347
v 0.177914 1.312493 0.760347
v 0.232456 1.394121 0.760347
v 0.251609 1.490407 0.760347
v 0.232456 1.586694 0.760347
v 0.177914 1.668321 0.760347
v 0.096286 1.722863 0.760347
v -0.104803 1.743424 0.760347
v -0.000000 1.764270 0.760347
v -0.193650 1.684058 0.760347
v -0.253016 1.595210 0.760347
v -0.273863 1.490407 0.760347
v -0.253016 1.385605 0.760347
v -0.193650 1.296757 0.760347
v -0.104803 1.237391 0.760347
v -0.000000 1.216545 0.760347
v 0.104803 1.237391 0.760347
v 0.193650 1.296757 0.760347
v 0.253016 1.385605 0.760347
v 0.273863 1.490407 0.760347
v 0.253016 1.595210 0.760347
v 0.193650 1.684058 0.760347
v 0.104803 1.743424 0.760347
v 0.040685 1.490407 0.691819
v -0.000000 1.490407 0.699333
v -0.040685 1.490407 0.691819
v 0.028906 1.519037 0.691819
v 0.028906 1.461778 0.691819
v -0.000000 1.449723 0.691819
v -0.000000 1.531092 0.691819
v -0.028906 1.461778 0.691819
v -0.028906 1.519037 0.691819
vn 0.5556 -0.8315 -0.0000
vn -0.5556 -0.8315 -0.0000
vn 0.9808 -0.1951 -0.0000
vn 0.1951 -0.9808 -0.0000
vn -0.8315 -0.5556 -0.0000
vn 0.8315 -0.5556 -0.0000
vn -0.9808 -0.1951 -0.0000
vn -0.9808 0.1951 -0.0000
vn -0.8315 0.5556 -0.0000
vn -0.1951 -0.9808 -0.0000
vn -0.5556 0.8315 -0.0000
vn -0.1951 0.9808 -0.0000
vn 0.9808 0.1951 -0.0000
vn 0.8315 0.5556 -0.0000
vn 0.5556 0.8315 -0.0000
vn 0.1951 0.9808 -0.0000
vn 0.6434 -0.1280 0.7548
vn -0.6434 0.1280 0.7548
vn 0.6434 0.1280 0.7548
vn -0.6434 -0.1280 0.7548
vn 0.5455 0.3645 0.7548
vn -0.5454 -0.3645 0.7548
vn 0.3645 0.5454 0.7548
vn -0.3645 -0.5454 0.7548
vn 0.1280 0.6434 0.7548
vn -0.1280 0.6434 0.7548
vn -0.1280 -0.6434 0.7548
vn -0.0000 -0.0000 1.0000
vn -0.3645 0.5454 0.7548
vn 0.5454 -0.3645 0.7548
vn -0.5454 0.3645 0.7548
vn 0.3645 -0.5455 0.7548
vn 0.0683 -0.3434 0.9367
vn 0.1945 -0.2912 0.9367
vn 0.2912 -0.1945 0.9367
vn 0.3434 -0.0683 0.9367
vn 0.3434 0.0683 0.9367
vn 0.2912 0.1945 0.9367
vn 0.1945 0.2912 0.9367
vn 0.0683 0.3434 0.9367
vn -0.0683 0.3434 0.9367
vn -0.1945 0.2912 0.9367
vn -0.2912 0.1945 0.9367
vn -0.3434 0.0683 0.9367
vn -0.3434 -0.0683 0.9367
vn -0.2912 -0.1945 0.9367
vn -0.1945 -0.2912 0.9367
vn -0.0683 -0.3434 0.9367
vn 0.1280 -0.6434 0.7548
vn 0.0917 -0.3064 0.9475
vn 0.1284 0.1284 0.9834
vn -0.0917 -0.3064 0.9475
vn -0.0917 0.3064 0.9475
vn -0.1284 0.1284 0.9834
vn 0.1284 -0.1284 0.9834
vn 0.0917 0.3064 0.9475
vn -0.1284 -0.1284 0.9834
vn 0.3070 0.0909 0.9474
vn 0.3070 -0.0909 0.9474
vn 0.2314 -0.2314 0.9449
vn 0.2314 0.2314 0.9449
vn -0.3070 0.0909 0.9474
vn -0.3070 -0.0909 0.9474
vn -0.2314 -0.2314 0.9449
vn -0.2314 0.2314 0.9449
vt 0.000000 0.000000
vt 0.000000 0.000000
vt 0.000000 0.000000
vt 0.000000 0.000000
vt 0.000000 0.000000
vt 0.000000 0.000000
vt 0.000000 0.000000
vt 0.000000 0.000000
vt 0.000000 0.000000
vt 0.000000 0.000000
vt 0.000000 0.000000
vt 0.000000 0.000000
vt 0.000000 0.000000
vt 0.000000 0.000000
vt 0.000000 0.000000
vt 0.000000 0.000000
vt 0.000000 0.000000
vt 0.000000 0.000000
vt 0.000000 0.000000
vt 0.000000 0.000000
vt 0.000000 0.000000
vt 0.000000 0.000000
vt 0.000000 0.000000
vt 0.000000 0.000000
vt 0.000000 0.000000
vt 0.000000 0.000000
vt 0.000000 0.000000
vt 0.000000 0.000000
vt 0.000000 0.000000
vt 0.000000 0.000000
vt 0.000000 0.000000
vt 0.000000 0.000000
vt 0.000000 0.000000
vt 0.000000 0.000000
vt 0.000000 0.000000
vt 0.000000 0.000000
vt 0.000000 0.000000
vt 0.000000 0.000000
vt 0.000000 0.000000
vt 0.000000 0.000000
vt 0.000000 0.000000
vt 0.000000 0.000000
vt 0.000000 0.000000
vt 0.000000 0.000000
vt 0.000000 0.000000
vt 0.000000 0.000000
vt 0.000000 0.000000
vt 0.000000 0.000000
vt 0.000000 0.000000
vt 0.000000 0.000000
vt 0.000000 0.000000
vt 0.000000 0.000000
vt 0.000000 0.000000
vt 0.000000 0.000000
vt 0.000000 0.000000
vt 0.000000 0.000000
vt 0.000000 0.000000
vt 0.000000 0.000000
vt 0.000000 0.000000
vt 0.000000 0.000000
vt 0.000000 0.000000
vt 0.000000 0.000000
vt 0.000000 0.000000
vt 0.000000 0.000000
vt 0.000000 0.000000
vt 0.000000 0.000000
vt 0.000000 0.000000
vt 0.000000 0.000000
vt 0.000000 0.000000
vt 0.000000 0.000000
vt 0.000000 0.000000
vt 0.000000 0.000000
vt 0.000000 0.000000
vt 0.000000 0.000000
vt 0.000000 0.000000
vt 0.000000 0.000000
vt 0.000000 0.000000
vt 0.000000 0.000000
vt 0.000000 0.000000
vt 0.000000 0.000000
vt 0.000000 0.000000
vt 0.000000 0.000000
vt 0.000000 0.000000
vt 0.000000 0.000000
vt 0.000000 0.000000
vt 0.000000 0.000000
vt 0.000000 0.000000
vt 0.000000 0.000000
vt 0.000000 0.000000
vt 0.000000 0.000000
vt 0.000000 0.000000
vt 0.000000 0.000000
vt 0.000000 0.000000
vt 0.000000 0.000000
vt 0.000000 0.000000
vt 0.000000 0.000000
vt 0.000000 0.000000
vt 0.000000 0.000000
vt 0.000000 0.000000
vt 0.000000 0.000000
vt 0.000000 0.000000
vt 0.000000 0.000000
vt 0.000000 0.000000
vt 0.000000 0.000000
vt 0.000000 0.000000
vt 0.000000 0.000000
vt 0.000000 0.000000
vt 0.000000 0.000000
vt 0.000000 0.000000
vt 0.000000 0.000000
vt 0.000000 0.000000
vt 0.000000 0.000000
vt 0.000000 0.000000
vt 0.000000 0.000000
vt 0.000000 0.000000
vt 0.000000 0.000000
vt 0.000000 0.000000
vt 0.000000 0.000000
vt 0.000000 0.000000
vt 0.000000 0.000000
vt 0.000000 0.000000
vt 0.000000 0.000000
vt 0.000000 0.000000
vt 0.000000 0.000000
vt 0.000000 0.000000
vt 0.000000 0.000000
vt 0.000000 0.000000
vt 0.000000 0.000000
vt 0.000000 0.000000
vt 0.000000 0.000000
vt 0.000000 0.000000
vt 0.000000 0.000000
vt 0.000000 0.000000
vt 0.000000 0.000000
vt 0.000000 0.000000
vt 0.000000 0.000000
vt 0.000000 0.000000
s 0
usemtl Base
f 66/72/16 65/71/16 160/166/16 162/168/16
f 79/85/17 78/84/17 174/180/17 175/181/17
f 91/97/18 92/98/18 188/194/18 187/193/18
f 65/71/19 64/70/19 161/167/19 160/166/19
f 78/84/20 77/83/20 173/179/20 174/180/20
f 90/96/21 91/97/21 187/193/21 186/192/21
f 77/83/22 76/82/22 172/178/22 173/179/22
f 89/95/16 90/96/16 186/192/16 185/191/16
f 76/82/23 75/81/23 171/177/23 172/178/23
f 88/94/19 89/95/19 185/191/19 184/190/19
f 75/81/24 74/80/24 170/176/24 171/177/24
f 87/93/25 88/94/25 184/190/25 183/189/25
f 74/80/26 73/79/26 169/175/26 170/176/26
f 86/92/17 87/93/17 183/189/17 182/188/17
f 73/79/27 72/78/27 168/174/27 169/175/27
f 85/91/20 86/92/20 182/188/20 181/187/20
f 82/88/26 81/87/26 97/103/26 98/104/26
f 90/96/16 89/95/16 105/111/16 106/112/16
f 83/89/24 82/88/24 98/104/24 99/105/24
f 91/97/21 90/96/21 106/112/21 107/113/21
f 84/90/23 83/89/23 99/105/23 100/106/23
f 92/98/18 91/97/18 107/113/18 108/114/18
f 85/91/22 84/90/22 100/106/22 101/107/22
f 93/99/28 92/98/28 108/114/28 109/115/28
f 86/92/20 85/91/20 101/107/20 102/108/20
f 94/100/29 93/99/29 109/115/29 110/116/29
f 87/93/17 86/92/17 102/108/17 103/109/17
f 95/101/30 94/100/30 110/116/30 111/117/30
f 88/94/25 87/93/25 103/109/25 104/110/25
f 81/87/27 80/86/27 96/102/27 97/103/27
f 80/86/31 95/101/31 111/117/31 96/102/31
f 89/95/19 88/94/19 104/110/19 105/111/19
f 135/141/32 137/143/32 116/122/32 115/121/32
f 151/157/33 153/159/33 124/130/33 123/129/33
f 137/143/34 139/145/34 117/123/34 116/122/34
f 153/159/35 155/161/35 125/131/35 124/130/35
f 139/145/36 141/147/36 118/124/36 117/123/36
f 155/161/37 157/163/37 126/132/37 125/131/37
f 141/147/38 143/149/38 119/125/38 118/124/38
f 157/163/39 159/165/39 127/133/39 126/132/39
f 143/149/40 145/151/40 120/126/40 119/125/40
f 145/151/41 147/153/41 121/127/41 120/126/41
f 159/165/42 128/134/42 112/118/42 127/133/42
f 64/70/43 65/71/43 130/136/43 129/135/43
f 147/153/44 149/155/44 122/128/44 121/127/44
f 133/139/45 135/141/45 115/121/45 114/120/45
f 149/155/46 151/157/46 123/129/46 122/128/46
f 75/81/43 76/82/43 152/158/43 150/156/43
f 68/74/43 69/75/43 138/144/43 136/142/43
f 76/82/43 77/83/43 154/160/43 152/158/43
f 69/75/43 70/76/43 140/146/43 138/144/43
f 77/83/43 78/84/43 156/162/43 154/160/43
f 70/76/43 71/77/43 142/148/43 140/146/43
f 78/84/43 79/85/43 158/164/43 156/162/43
f 71/77/43 72/78/43 144/150/43 142/148/43
f 79/85/43 64/70/43 129/135/43 158/164/43
f 131/137/47 133/139/47 114/120/47 113/119/47
f 72/78/43 73/79/43 146/152/43 144/150/43
f 65/71/43 66/72/43 132/138/43 130/136/43
f 73/79/43 74/80/43 148/154/43 146/152/43
f 66/72/43 67/73/43 134/140/43 132/138/43
f 74/80/43 75/81/43 150/156/43 148/154/43
f 67/73/43 68/74/43 136/142/43 134/140/43
f 131/137/48 128/134/48 129/135/48 130/136/48
f 133/139/49 131/137/49 130/136/49 132/138/49
f 135/141/50 133/139/50 132/138/50 134/140/50
f 137/143/51 135/141/51 134/140/51 136/142/51
f 139/145/52 137/143/52 136/142/52 138/144/52
f 141/147/53 139/145/53 138/144/53 140/146/53
f 143/149/54 141/147/54 140/146/54 142/148/54
f 145/151/55 143/149/55 142/148/55 144/150/55
f 147/153/56 145/151/56 144/150/56 146/152/56
f 149/155/57 147/153/57 146/152/57 148/154/57
f 151/157/58 149/155/58 148/154/58 150/156/58
f 153/159/59 151/157/59 150/156/59 152/158/59
f 155/161/60 153/159/60 152/158/60 154/160/60
f 157/163/61 155/161/61 154/160/61 156/162/61
f 159/165/62 157/163/62 156/162/62 158/164/62
f 128/134/63 159/165/63 158/164/63 129/135/63
f 128/134/64 131/137/64 113/119/64 112/118/64
f 163/169/43 162/168/43 178/184/43 179/185/43
f 171/177/43 170/176/43 186/192/43 187/193/43
f 164/170/43 163/169/43 179/185/43 180/186/43
f 172/178/43 171/177/43 187/193/43 188/194/43
f 165/171/43 164/170/43 180/186/43 181/187/43
f 173/179/43 172/178/43 188/194/43 189/195/43
f 166/172/43 165/171/43 181/187/43 182/188/43
f 174/180/43 173/179/43 189/195/43 190/196/43
f 167/173/43 166/172/43 182/188/43 183/189/43
f 175/181/43 174/180/43 190/196/43 191/197/43
f 168/174/43 167/173/43 183/189/43 184/190/43
f 160/166/43 161/167/43 177/183/43 176/182/43
f 161/167/43 175/181/43 191/197/43 177/183/43
f 169/175/43 168/174/43 184/190/43 185/191/43
f 162/168/43 160/166/43 176/182/43 178/184/43
f 170/176/43 169/175/43 185/191/43 186/192/43
f 92/98/28 93/99/28 189/195/28 188/194/28
f 64/70/25 79/85/25 175/181/25 161/167/25
f 67/73/21 66/72/21 162/168/21 163/169/21
f 93/99/29 94/100/29 190/196/29 189/195/29
f 80/86/27 81/87/27 176/182/27 177/183/27
f 68/74/18 67/73/18 163/169/18 164/170/18
f 94/100/30 95/101/30 191/197/30 190/196/30
f 81/87/26 82/88/26 178/184/26 176/182/26
f 69/75/28 68/74/28 164/170/28 165/171/28
f 95/101/31 80/86/31 177/183/31 191/197/31
f 82/88/24 83/89/24 179/185/24 178/184/24
f 70/76/29 69/75/29 165/171/29 166/172/29
f 83/89/23 84/90/23 180/186/23 179/185/23
f 71/77/30 70/76/30 166/172/30 167/173/30
f 84/90/22 85/91/22 181/187/22 180/186/22
f 72/78/31 71/77/31 167/173/31 168/174/31
f 121/127/65 196/202/65 197/203/65 120/126/65
f 195/201/66 198/204/66 193/199/66 192/198/66
f 199/205/67 119/125/67 120/126/67 197/203/67
f 113/119/68 200/206/68 198/204/68 112/118/68
f 194/200/69 193/199/69 198/204/69 200/206/69
f 192/198/70 193/199/70 197/203/70 196/202/70
f 195/201/71 127/133/71 112/118/71 198/204/71
f 199/205/72 197/203/72 193/199/72 194/200/72
f 125/131/73 195/201/73 192/198/73 124/130/73
f 124/130/74 192/198/74 196/202/74 123/129/74
f 121/127/75 122/128/75 123/129/75 196/202/75
f 126/132/76 127/133/76 195/201/76 125/131/76
f 116/122/77 194/200/77 200/206/77 115/121/77
f 117/123/78 199/205/78 194/200/78 116/122/78
f 118/124/79 119/125/79 199/205/79 117/123/79
f 113/119/80 114/120/80 115/121/80 200/206/80
o Plano.001
v 0.601211 1.933554 0.726852
v 0.635840 0.146243 0.726852
v 0.635840 1.838630 0.726852
v 0.498173 1.990145 0.726852
v 0.498173 0.146243 0.726852
v 0.498173 1.838630 0.726852
v 0.102133 1.838630 0.726852
v 0.102133 1.990145 0.726852
v 0.000000 1.763937 0.726852
v 0.000000 0.146243 0.726852
v 0.000000 1.838630 0.726852
v 0.000000 1.990145 0.726852
v 0.185741 1.990145 0.726852
v 0.185741 1.838630 0.726852
v 0.000000 1.216968 0.726852
v 0.635840 1.490453 0.726852
v 0.498173 1.490453 0.726852
v 0.103452 1.242650 0.726852
v 0.192382 1.299146 0.726852
v 0.249620 1.387016 0.726852
v 0.498173 1.297479 0.726852
v 0.498173 1.683426 0.726852
v 0.635840 1.683426 0.726852
v 0.635840 1.297479 0.726852
v 0.270819 1.490892 0.726852
v 0.247712 1.593284 0.726852
v 0.186553 1.684759 0.726852
v 0.102180 1.742738 0.726852
v 0.635840 1.594944 0.726852
v 0.635840 1.385961 0.726852
v 0.498173 1.385961 0.726852
v 0.498173 1.594944 0.726852
v 0.635840 0.413317 0.726852
v 0.104296 0.146243 0.726852
v 0.000000 0.999547 0.726852
v 0.635840 0.433884 0.726852
v 0.189091 0.146243 0.726852
v 0.000000 0.373822 0.726852
v 0.635840 0.686802 0.726852
v 0.498173 0.686802 0.726852
v 0.124333 0.403202 0.726852
v 0.226068 0.467833 0.726852
v 0.291547 0.568355 0.726852
v 0.498173 0.493828 0.726852
v 0.498173 0.879775 0.726852
v 0.635840 0.879775 0.726852
v 0.635840 0.493828 0.726852
v 0.315799 0.687187 0.726852
v 0.289365 0.804322 0.726852
v 0.219399 0.908968 0.726852
v 0.122878 0.975295 0.726852
v 0.635840 0.791294 0.726852
v 0.635840 0.582310 0.726852
v 0.498173 0.582310 0.726852
v 0.498173 0.791294 0.726852
v -0.601211 1.933554 0.726852
v -0.635840 0.146243 0.726852
v -0.635840 1.838630 0.726852
v -0.498173 1.990145 0.726852
v -0.498173 0.146243 0.726852
v -0.498173 1.838630 0.726852
v -0.102133 1.838630 0.726852
v -0.102133 1.990145 0.726852
v -0.185741 1.990145 0.726852
v -0.185741 1.838630 0.726852
v -0.635840 1.490453 0.726852
v -0.498173 1.490453 0.726852
v -0.103452 1.242650 0.726852
v -0.192382 1.299146 0.726852
v -0.249620 1.387016 0.726852
v -0.498173 1.297479 0.726852
v -0.498173 1.683426 0.726852
v -0.635840 1.683426 0.726852
v -0.635840 1.297479 0.726852
v -0.270819 1.490892 0.726852
v -0.247712 1.593284 0.726852
v -0.186553 1.684759 0.726852
v -0.102180 1.742738 0.726852
v -0.635840 1.594944 0.726852
v -0.635840 1.385961 0.726852
v -0.498173 1.385961 0.726852
v -0.498173 1.594944 0.726852
v -0.635840 0.413317 0.726852
v -0.104296 0.146243 0.726852
v -0.635840 0.433884 0.726852
v -0.189091 0.146243 0.726852
v -0.635840 0.686802 0.726852
v -0.498173 0.686802 0.726852
v -0.124333 0.403202 0.726852
v -0.226068 0.467833 0.726852
v -0.291547 0.568355 0.726852
v -0.498173 0.493828 0.726852
v -0.498173 0.879775 0.726852
v -0.635840 0.879775 0.726852
v -0.635840 0.493828 0.726852
v -0.315799 0.687187 0.726852
v -0.289365 0.804322 0.726852
v -0.219399 0.908968 0.726852
v -0.122878 0.975295 0.726852
v -0.635840 0.791294 0.726852
v -0.635840 0.582310 0.726852
v -0.498173 0.582310 0.726852
v -0.498173 0.791294 0.726852
vn -0.0000 -0.0000 1.0000
vt 1.000000 0.000000
vt 0.000000 0.000000
vt 1.000000 0.075758
vt 0.891744 0.000000
vt 0.000000 0.000000
vt 0.891744 0.075758
vt 0.580313 0.075758
vt 0.580313 0.000000
vt 0.000000 0.000000
vt 0.000000 0.000000
vt 0.500000 0.075758
vt 0.500000 0.000000
vt 0.646060 0.000000
vt 0.646060 0.075758
vt 0.000000 0.000000
vt 1.000000 0.266362
vt 0.891744 0.266362
vt 0.000000 0.000000
vt 0.000000 0.000000
vt 0.000000 0.000000
vt 0.891744 0.371424
vt 0.891744 0.161299
vt 1.000000 0.161299
vt 1.000000 0.371424
vt 0.000000 0.000000
vt 0.000000 0.000000
vt 0.000000 0.000000
vt 0.000000 0.000000
vt 1.000000 0.209472
vt 1.000000 0.323251
vt 0.891744 0.323251
vt 0.891744 0.209472
vt 0.000000 0.000000
vt 0.000000 0.000000
vt 0.000000 0.000000
vt 0.000000 0.000000
vt 1.000000 0.266362
vt 0.891744 0.266362
vt 0.000000 0.000000
vt 0.000000 0.000000
vt 0.000000 0.000000
vt 0.891744 0.371424
vt 0.891744 0.161299
vt 1.000000 0.161299
vt 1.000000 0.371424
vt 0.000000 0.000000
vt 0.000000 0.000000
vt 0.000000 0.000000
vt 0.000000 0.000000
vt 1.000000 0.209472
vt 1.000000 0.323251
vt 0.891744 0.323251
vt 0.891744 0.209472
vt 1.000000 0.000000
vt 0.000000 0.000000
vt 1.000000 0.075758
vt 0.891744 0.000000
vt 0.000000 0.000000
vt 0.891744 0.075758
vt 0.580313 0.075758
vt 0.580313 0.000000
vt 0.646060 0.000000
vt 0.646060 0.075758
vt 1.000000 0.266362
vt 0.891744 0.266362
vt 0.000000 0.000000
vt 0.000000 0.000000
vt 0.000000 0.000000
vt 0.891744 0.371424
vt 0.891744 0.161299
vt 1.000000 0.161299
vt 1.000000 0.371424
vt 0.000000 0.000000
vt 0.000000 0.000000
vt 0.000000 0.000000
vt 0.000000 0.000000
vt 1.000000 0.209472
vt 1.000000 0.323251
vt 0.891744 0.323251
vt 0.891744 0.209472
vt 0.000000 0.000000
vt 0.000000 0.000000
vt 1.000000 0.266362
vt 0.891744 0.266362
vt 0.000000 0.000000
vt 0.000000 0.000000
vt 0.000000 0.000000
vt 0.891744 0.371424
vt 0.891744 0.161299
vt 1.000000 0.161299
vt 1.000000 0.371424
vt 0.000000 0.000000
vt 0.000000 0.000000
vt 0.000000 0.000000
vt 0.000000 0.000000
vt 1.000000 0.209472
vt 1.000000 0.323251
vt 0.891744 0.323251
vt 0.891744 0.209472
s 0
usemtl Base
f 204/210/81 206/212/81 203/209/81 201/207/81
f 209/215/81 228/234/81 207/213/81 211/217/81
f 222/228/81 206/212/81 214/220/81 227/233/81
f 219/225/81 250/254/81 245/249/81 221/227/81
f 230/236/81 231/237/81 221/227/81 224/230/81
f 206/212/81 222/228/81 223/229/81 203/209/81
f 208/214/81 212/218/81 211/217/81 207/213/81
f 231/237/81 220/226/81 219/225/81 221/227/81
f 228/234/81 227/233/81 214/220/81 207/213/81
f 231/237/81 217/223/81 225/231/81 220/226/81
f 231/237/81 230/236/81 216/222/81 217/223/81
f 223/229/81 222/228/81 232/238/81 229/235/81
f 204/210/81 213/219/81 214/220/81 206/212/81
f 222/228/81 227/233/81 226/232/81 232/238/81
f 217/223/81 216/222/81 229/235/81 232/238/81
f 213/219/81 208/214/81 207/213/81 214/220/81
f 217/223/81 232/238/81 226/232/81 225/231/81
f 210/216/81 234/239/81 241/245/81 238/242/81
f 234/239/81 237/241/81 242/246/81 241/245/81
f 202/208/81 247/251/81 244/248/81 205/211/81
f 253/257/81 254/258/81 244/248/81 247/251/81
f 254/258/81 243/247/81 242/246/81 244/248/81
f 221/227/81 245/249/81 246/250/81 224/230/81
f 254/258/81 240/244/81 248/252/81 243/247/81
f 254/258/81 253/257/81 239/243/81 240/244/81
f 246/250/81 245/249/81 255/259/81 252/256/81
f 251/255/81 250/254/81 219/225/81 218/224/81
f 245/249/81 250/254/81 249/253/81 255/259/81
f 240/244/81 239/243/81 252/256/81 255/259/81
f 251/255/81 218/224/81 215/221/81 235/240/81
f 240/244/81 255/259/81 249/253/81 248/252/81
f 205/211/81 244/248/81 242/246/81 237/241/81
f 259/263/81 256/260/81 258/262/81 261/265/81
f 209/215/81 211/217/81 262/266/81 278/282/81
f 272/276/81 277/281/81 265/269/81 261/265/81
f 269/273/81 271/275/81 293/295/81 298/300/81
f 280/284/81 274/278/81 271/275/81 281/285/81
f 261/265/81 258/262/81 273/277/81 272/276/81
f 263/267/81 262/266/81 211/217/81 212/218/81
f 281/285/81 271/275/81 269/273/81 270/274/81
f 278/282/81 262/266/81 265/269/81 277/281/81
f 281/285/81 270/274/81 275/279/81 267/271/81
f 281/285/81 267/271/81 266/270/81 280/284/81
f 273/277/81 279/283/81 282/286/81 272/276/81
f 259/263/81 261/265/81 265/269/81 264/268/81
f 272/276/81 282/286/81 276/280/81 277/281/81
f 267/271/81 282/286/81 279/283/81 266/270/81
f 264/268/81 265/269/81 262/266/81 263/267/81
f 267/271/81 275/279/81 276/280/81 282/286/81
f 210/216/81 238/242/81 289/291/81 284/287/81
f 284/287/81 289/291/81 290/292/81 286/288/81
f 257/261/81 260/264/81 292/294/81 295/297/81
f 301/303/81 295/297/81 292/294/81 302/304/81
f 302/304/81 292/294/81 290/292/81 291/293/81
f 271/275/81 274/278/81 294/296/81 293/295/81
f 302/304/81 291/293/81 296/298/81 288/290/81
f 302/304/81 288/290/81 287/289/81 301/303/81
f 294/296/81 300/302/81 303/305/81 293/295/81
f 299/301/81 268/272/81 269/273/81 298/300/81
f 293/295/81 303/305/81 297/299/81 298/300/81
f 288/290/81 303/305/81 300/302/81 287/289/81
f 299/301/81 235/240/81 215/221/81 268/272/81
f 288/290/81 296/298/81 297/299/81 303/305/81
f 260/264/81 286/288/81 290/292/81 292/294/81
l 236 233
l 285 283
l 257 283
l 257 285
l 295 285
l 247 236
l 202 233
l 202 236
o Plano.002
v -0.000000 1.064656 0.759746
v -0.144911 1.035832 0.759746
v -0.267760 0.953747 0.759746
v -0.349846 0.830897 0.759746
v -0.378670 0.685986 0.759746
v -0.349846 0.541075 0.759746
v -0.267760 0.418226 0.759746
v -0.144911 0.336140 0.759746
v -0.000000 0.307316 0.759746
v 0.144911 0.336140 0.759746
v 0.267760 0.418226 0.759746
v 0.349846 0.541075 0.759746
v 0.378670 0.685986 0.759746
v 0.349846 0.830897 0.759746
v 0.267760 0.953747 0.759746
v 0.144911 1.035832 0.759746
v -0.000000 1.098149 0.759746
v -0.157728 1.066775 0.759746
v -0.291443 0.977429 0.759746
v -0.380789 0.843714 0.759746
v -0.412163 0.685986 0.759746
v -0.380789 0.528258 0.759746
v -0.291443 0.394543 0.759746
v -0.157728 0.305197 0.759746
v -0.000000 0.273823 0.759746
v 0.157728 0.305197 0.759746
v 0.291443 0.394543 0.759746
v 0.380789 0.528258 0.759746
v 0.412163 0.685986 0.759746
v 0.380789 0.843714 0.759746
v 0.291443 0.977429 0.759746
v 0.157728 1.066775 0.759746
v -0.000000 1.098149 0.687105
v -0.157728 1.066775 0.687105
v -0.291443 0.977429 0.687105
v -0.380789 0.843714 0.687105
v -0.412163 0.685986 0.687105
v -0.380789 0.528258 0.687105
v -0.291443 0.394543 0.687105
v -0.157728 0.305197 0.687105
v -0.000000 0.273823 0.687105
v 0.157728 0.305197 0.687105
v 0.291443 0.394543 0.687105
v 0.380789 0.528258 0.687105
v 0.412163 0.685986 0.687105
v 0.380789 0.843714 0.687105
v 0.291443 0.977429 0.687105
v 0.157728 1.066775 0.687105
v -0.000000 0.782201 0.646616
v -0.036820 0.774877 0.646616
v -0.068034 0.754020 0.646616
v -0.088891 0.722806 0.646616
v -0.096215 0.685986 0.646616
v -0.088891 0.649167 0.646616
v -0.068034 0.617952 0.646616
v -0.036820 0.597096 0.646616
v -0.000000 0.589772 0.646616
v 0.036820 0.597096 0.646616
v 0.068034 0.617952 0.646616
v 0.088891 0.649167 0.646616
v 0.096215 0.685986 0.646616
v 0.088891 0.722806 0.646616
v 0.068034 0.754020 0.646616
v 0.036820 0.774877 0.646616
v -0.144911 1.035832 0.774677
v -0.000000 1.064656 0.774677
v -0.267760 0.953747 0.774677
v -0.349846 0.830897 0.774677
v -0.378670 0.685986 0.774677
v -0.349846 0.541075 0.774677
v -0.267760 0.418226 0.774677
v -0.144911 0.336140 0.774677
v -0.000000 0.307316 0.774677
v 0.144911 0.336140 0.774677
v 0.267760 0.418226 0.774677
v 0.349846 0.541075 0.774677
v 0.378670 0.685986 0.774677
v 0.349846 0.830897 0.774677
v 0.267760 0.953747 0.774677
v 0.144911 1.035832 0.774677
v -0.157728 1.066775 0.774677
v -0.000000 1.098149 0.774677
v -0.291443 0.977429 0.774677
v -0.380789 0.843714 0.774677
v -0.412163 0.685986 0.774677
v -0.380789 0.528258 0.774677
v -0.291443 0.394543 0.774677
v -0.157728 0.305197 0.774677
v -0.000000 0.273823 0.774677
v 0.157728 0.305197 0.774677
v 0.291443 0.394543 0.774677
v 0.380789 0.528258 0.774677
v 0.412163 0.685986 0.774677
v 0.380789 0.843714 0.774677
v 0.291443 0.977429 0.774677
v 0.157728 1.066775 0.774677
v 0.061230 0.685986 0.666545
v -0.000000 0.685986 0.677855
v -0.061230 0.685986 0.666545
v 0.043504 0.729074 0.666545
v 0.043504 0.642899 0.666545
v -0.000000 0.624756 0.666545
v -0.000000 0.747216 0.666545
v -0.043504 0.642899 0.666545
v -0.043504 0.729074 0.666545
v 0.085225 0.891738 0.719278
v 0.116548 0.967357 0.748080
v 0.215352 0.901338 0.748080
v 0.157476 0.843462 0.719278
v 0.281371 0.802534 0.748080
v 0.205752 0.771212 0.719278
v 0.304554 0.685986 0.748080
v 0.222704 0.685986 0.719278
v 0.281371 0.569439 0.748080
v 0.205752 0.600761 0.719278
v 0.215352 0.470634 0.748080
v 0.157476 0.528511 0.719278
v 0.116548 0.404615 0.748080
v 0.085225 0.480234 0.719278
v -0.000000 0.381432 0.748080
v -0.000000 0.463282 0.719278
v -0.116548 0.404615 0.748080
v -0.085225 0.480234 0.719278
v -0.215352 0.470634 0.748080
v -0.157476 0.528511 0.719278
v -0.281371 0.569439 0.748080
v -0.205752 0.600761 0.719278
v -0.304554 0.685986 0.748080
v -0.222704 0.685986 0.719278
v -0.281371 0.802534 0.748080
v -0.205752 0.771212 0.719278
v -0.215352 0.901338 0.748080
v -0.157476 0.843462 0.719278
v -0.116548 0.967357 0.748080
v -0.085225 0.891738 0.719278
v -0.000000 0.990540 0.748080
v -0.000000 0.908690 0.719278
vn 0.5556 -0.8315 -0.0000
vn -0.5556 -0.8315 -0.0000
vn 0.9808 -0.1951 -0.0000
vn 0.1951 -0.9808 -0.0000
vn -0.8315 -0.5556 -0.0000
vn 0.8315 -0.5556 -0.0000
vn -0.9808 -0.1951 -0.0000
vn -0.9808 0.1951 -0.0000
vn -0.8315 0.5556 -0.0000
vn -0.1951 -0.9808 -0.0000
vn -0.5556 0.8315 -0.0000
vn -0.1951 0.9808 -0.0000
vn 0.9808 0.1951 -0.0000
vn 0.8315 0.5556 -0.0000
vn 0.5556 0.8315 -0.0000
vn 0.1951 0.9808 -0.0000
vn -0.0000 -0.0000 1.0000
vn 0.1418 -0.4474 0.8830
vn 0.1284 0.1284 0.9834
vn -0.1418 -0.4474 0.8830
vn -0.1418 0.4474 0.8830
vn -0.1284 0.1284 0.9834
vn 0.1284 -0.1284 0.9834
vn 0.1418 0.4474 0.8830
vn -0.1284 -0.1284 0.9834
vn 0.4487 0.1406 0.8826
vn 0.4487 -0.1406 0.8826
vn 0.3500 -0.3500 0.8689
vn 0.3500 0.3500 0.8689
vn -0.4487 0.1406 0.8826
vn -0.4487 -0.1406 0.8826
vn -0.3500 -0.3500 0.8689
vn -0.3500 0.3500 0.8689
vn -0.0986 -0.4957 0.8629
vn -0.1317 -0.0880 0.9874
vn -0.1554 -0.0309 0.9874
vn -0.1554 0.0309 0.9874
vn -0.1317 0.0880 0.9874
vn -0.0880 0.1317 0.9874
vn -0.0309 0.1554 0.9874
vn 0.0309 0.1554 0.9874
vn 0.0880 0.1317 0.9874
vn 0.1317 0.0880 0.9874
vn 0.1554 0.0309 0.9874
vn 0.1554 -0.0309 0.9874
vn 0.1317 -0.0880 0.9874
vn 0.0880 -0.1317 0.9874
vn 0.0309 -0.1554 0.9874
vn -0.4202 -0.2808 0.8629
vn -0.2808 -0.4202 0.8629
vn 0.0986 -0.4957 0.8629
vn 0.2808 -0.4202 0.8629
vn 0.4202 -0.2808 0.8629
vn 0.4957 -0.0986 0.8629
vn 0.4957 0.0986 0.8629
vn 0.4202 0.2808 0.8629
vn 0.2808 0.4202 0.8629
vn 0.0986 0.4957 0.8629
vn -0.0986 0.4957 0.8629
vn -0.2808 0.4202 0.8629
vn -0.4202 0.2808 0.8629
vn -0.4957 0.0986 0.8629
vn -0.4957 -0.0986 0.8629
vn -0.0309 -0.1554 0.9874
vn -0.0659 -0.3312 0.9413
vn 0.0659 -0.3312 0.9413
vn 0.1876 -0.2808 0.9413
vn 0.2808 -0.1876 0.9413
vn 0.3312 -0.0659 0.9413
vn 0.3312 0.0659 0.9413
vn 0.2808 0.1876 0.9413
vn 0.1876 0.2808 0.9413
vn 0.0659 0.3312 0.9413
vn -0.0659 0.3312 0.9413
vn -0.1876 0.2808 0.9413
vn -0.2808 0.1876 0.9413
vn -0.3312 0.0659 0.9413
vn -0.3312 -0.0659 0.9413
vn -0.2808 -0.1876 0.9413
vn -0.1876 -0.2808 0.9413
vn -0.0880 -0.1317 0.9874
vt 0.000000 0.000000
vt 0.000000 0.000000
vt 0.000000 0.000000
vt 0.000000 0.000000
vt 0.000000 0.000000
vt 0.000000 0.000000
vt 0.000000 0.000000
vt 0.000000 0.000000
vt 0.000000 0.000000
vt 0.000000 0.000000
vt 0.000000 0.000000
vt 0.000000 0.000000
vt 0.000000 0.000000
vt 0.000000 0.000000
vt 0.000000 0.000000
vt 0.000000 0.000000
vt 0.000000 0.000000
vt 0.000000 0.000000
vt 0.000000 0.000000
vt 0.000000 0.000000
vt 0.000000 0.000000
vt 0.000000 0.000000
vt 0.000000 0.000000
vt 0.000000 0.000000
vt 0.000000 0.000000
vt 0.000000 0.000000
vt 0.000000 0.000000
vt 0.000000 0.000000
vt 0.000000 0.000000
vt 0.000000 0.000000
vt 0.000000 0.000000
vt 0.000000 0.000000
vt 0.000000 0.000000
vt 0.000000 0.000000
vt 0.000000 0.000000
vt 0.000000 0.000000
vt 0.000000 0.000000
vt 0.000000 0.000000
vt 0.000000 0.000000
vt 0.000000 0.000000
vt 0.000000 0.000000
vt 0.000000 0.000000
vt 0.000000 0.000000
vt 0.000000 0.000000
vt 0.000000 0.000000
vt 0.000000 0.000000
vt 0.000000 0.000000
vt 0.000000 0.000000
vt 0.000000 0.000000
vt 0.000000 0.000000
vt 0.000000 0.000000
vt 0.000000 0.000000
vt 0.000000 0.000000
vt 0.000000 0.000000
vt 0.000000 0.000000
vt 0.000000 0.000000
vt 0.000000 0.000000
vt 0.000000 0.000000
vt 0.000000 0.000000
vt 0.000000 0.000000
vt 0.000000 0.000000
vt 0.000000 0.000000
vt 0.000000 0.000000
vt 0.000000 0.000000
vt 0.000000 0.000000
vt 0.000000 0.000000
vt 0.000000 0.000000
vt 0.000000 0.000000
vt 0.000000 0.000000
vt 0.000000 0.000000
vt 0.000000 0.000000
vt 0.000000 0.000000
vt 0.000000 0.000000
vt 0.000000 0.000000
vt 0.000000 0.000000
vt 0.000000 0.000000
vt 0.000000 0.000000
vt 0.000000 0.000000
vt 0.000000 0.000000
vt 0.000000 0.000000
vt 0.000000 0.000000
vt 0.000000 0.000000
vt 0.000000 0.000000
vt 0.000000 0.000000
vt 0.000000 0.000000
vt 0.000000 0.000000
vt 0.000000 0.000000
vt 0.000000 0.000000
vt 0.000000 0.000000
vt 0.000000 0.000000
vt 0.000000 0.000000
vt 0.000000 0.000000
vt 0.000000 0.000000
vt 0.000000 0.000000
vt 0.000000 0.000000
vt 0.000000 0.000000
vt 0.000000 0.000000
vt 0.000000 0.000000
vt 0.000000 0.000000
vt 0.000000 0.000000
vt 0.000000 0.000000
vt 0.000000 0.000000
vt 0.000000 0.000000
vt 0.000000 0.000000
vt 0.000000 0.000000
vt 0.000000 0.000000
vt 0.000000 0.000000
vt 0.000000 0.000000
vt 0.000000 0.000000
vt 0.000000 0.000000
vt 0.000000 0.000000
vt 0.000000 0.000000
vt 0.000000 0.000000
vt 0.000000 0.000000
vt 0.000000 0.000000
vt 0.000000 0.000000
vt 0.000000 0.000000
vt 0.000000 0.000000
vt 0.000000 0.000000
vt 0.000000 0.000000
vt 0.000000 0.000000
vt 0.000000 0.000000
vt 0.000000 0.000000
vt 0.000000 0.000000
vt 0.000000 0.000000
vt 0.000000 0.000000
vt 0.000000 0.000000
vt 0.000000 0.000000
vt 0.000000 0.000000
vt 0.000000 0.000000
vt 0.000000 0.000000
vt 0.000000 0.000000
vt 0.000000 0.000000
vt 0.000000 0.000000
vt 0.000000 0.000000
vt 0.000000 0.000000
vt 0.000000 0.000000
s 0
usemtl Base
f 306/308/82 305/307/82 368/370/82 370/372/82
f 319/321/83 318/320/83 382/384/83 383/385/83
f 331/333/84 332/334/84 396/398/84 395/397/84
f 305/307/85 304/306/85 369/371/85 368/370/85
f 318/320/86 317/319/86 381/383/86 382/384/86
f 330/332/87 331/333/87 395/397/87 394/396/87
f 317/319/88 316/318/88 380/382/88 381/383/88
f 329/331/82 330/332/82 394/396/82 393/395/82
f 316/318/89 315/317/89 379/381/89 380/382/89
f 328/330/85 329/331/85 393/395/85 392/394/85
f 315/317/90 314/316/90 378/380/90 379/381/90
f 327/329/91 328/330/91 392/394/91 391/393/91
f 314/316/92 313/315/92 377/379/92 378/380/92
f 326/328/83 327/329/83 391/393/83 390/392/83
f 313/315/93 312/314/93 376/378/93 377/379/93
f 325/327/86 326/328/86 390/392/86 389/391/86
f 322/324/92 321/323/92 337/339/92 338/340/92
f 330/332/82 329/331/82 345/347/82 346/348/82
f 323/325/90 322/324/90 338/340/90 339/341/90
f 331/333/87 330/332/87 346/348/87 347/349/87
f 324/326/89 323/325/89 339/341/89 340/342/89
f 332/334/84 331/333/84 347/349/84 348/350/84
f 325/327/88 324/326/88 340/342/88 341/343/88
f 333/335/94 332/334/94 348/350/94 349/351/94
f 326/328/86 325/327/86 341/343/86 342/344/86
f 334/336/95 333/335/95 349/351/95 350/352/95
f 327/329/83 326/328/83 342/344/83 343/345/83
f 335/337/96 334/336/96 350/352/96 351/353/96
f 328/330/91 327/329/91 343/345/91 344/346/91
f 321/323/93 320/322/93 336/338/93 337/339/93
f 320/322/97 335/337/97 351/353/97 336/338/97
f 329/331/85 328/330/85 344/346/85 345/347/85
f 371/373/98 370/372/98 386/388/98 387/389/98
f 379/381/98 378/380/98 394/396/98 395/397/98
f 372/374/98 371/373/98 387/389/98 388/390/98
f 380/382/98 379/381/98 395/397/98 396/398/98
f 373/375/98 372/374/98 388/390/98 389/391/98
f 381/383/98 380/382/98 396/398/98 397/399/98
f 374/376/98 373/375/98 389/391/98 390/392/98
f 382/384/98 381/383/98 397/399/98 398/400/98
f 375/377/98 374/376/98 390/392/98 391/393/98
f 383/385/98 382/384/98 398/400/98 399/401/98
f 376/378/98 375/377/98 391/393/98 392/394/98
f 368/370/98 369/371/98 385/387/98 384/386/98
f 369/371/98 383/385/98 399/401/98 385/387/98
f 377/379/98 376/378/98 392/394/98 393/395/98
f 370/372/98 368/370/98 384/386/98 386/388/98
f 378/380/98 377/379/98 393/395/98 394/396/98
f 332/334/94 333/335/94 397/399/94 396/398/94
f 304/306/91 319/321/91 383/385/91 369/371/91
f 307/309/87 306/308/87 370/372/87 371/373/87
f 333/335/95 334/336/95 398/400/95 397/399/95
f 320/322/93 321/323/93 384/386/93 385/387/93
f 308/310/84 307/309/84 371/373/84 372/374/84
f 334/336/96 335/337/96 399/401/96 398/400/96
f 321/323/92 322/324/92 386/388/92 384/386/92
f 309/311/94 308/310/94 372/374/94 373/375/94
f 335/337/97 320/322/97 385/387/97 399/401/97
f 322/324/90 323/325/90 387/389/90 386/388/90
f 310/312/95 309/311/95 373/375/95 374/376/95
f 323/325/89 324/326/89 388/390/89 387/389/89
f 311/313/96 310/312/96 374/376/96 375/377/96
f 324/326/88 325/327/88 389/391/88 388/390/88
f 312/314/97 311/313/97 375/377/97 376/378/97
f 361/363/99 404/406/99 405/407/99 360/362/99
f 403/405/100 406/408/100 401/403/100 400/402/100
f 407/409/101 359/361/101 360/362/101 405/407/101
f 353/355/102 408/410/102 406/408/102 352/354/102
f 402/404/103 401/403/103 406/408/103 408/410/103
f 400/402/104 401/403/104 405/407/104 404/406/104
f 403/405/105 367/369/105 352/354/105 406/408/105
f 407/409/106 405/407/106 401/403/106 402/404/106
f 365/367/107 403/405/107 400/402/107 364/366/107
f 364/366/108 400/402/108 404/406/108 363/365/108
f 361/363/109 362/364/109 363/365/109 404/406/109
f 366/368/110 367/369/110 403/405/110 365/367/110
f 356/358/111 402/404/111 408/410/111 355/357/111
f 357/359/112 407/409/112 402/404/112 356/358/112
f 358/360/113 359/361/113 407/409/113 357/359/113
f 353/355/114 354/356/114 355/357/114 408/410/114
f 440/442/115 352/354/115 367/369/115 409/411/115
f 318/320/116 411/413/116 413/415/116 317/319/116
f 317/319/117 413/415/117 415/417/117 316/318/117
f 316/318/118 415/417/118 417/419/118 315/317/118
f 315/317/119 417/419/119 419/421/119 314/316/119
f 314/316/120 419/421/120 421/423/120 313/315/120
f 313/315/121 421/423/121 423/425/121 312/314/121
f 312/314/122 423/425/122 425/427/122 311/313/122
f 311/313/123 425/427/123 427/429/123 310/312/123
f 310/312/124 427/429/124 429/431/124 309/311/124
f 309/311/125 429/431/125 431/433/125 308/310/125
f 308/310/126 431/433/126 433/435/126 307/309/126
f 307/309/127 433/435/127 435/437/127 306/308/127
f 306/308/128 435/437/128 437/439/128 305/307/128
f 305/307/129 437/439/129 439/441/129 304/306/129
f 412/414/130 366/368/130 365/367/130 414/416/130
f 409/411/131 367/369/131 366/368/131 412/414/131
f 438/440/132 353/355/132 352/354/132 440/442/132
f 436/438/133 354/356/133 353/355/133 438/440/133
f 434/436/134 355/357/134 354/356/134 436/438/134
f 432/434/135 356/358/135 355/357/135 434/436/135
f 430/432/136 357/359/136 356/358/136 432/434/136
f 428/430/137 358/360/137 357/359/137 430/432/137
f 426/428/138 359/361/138 358/360/138 428/430/138
f 424/426/139 360/362/139 359/361/139 426/428/139
f 422/424/140 361/363/140 360/362/140 424/426/140
f 420/422/141 362/364/141 361/363/141 422/424/141
f 418/420/142 363/365/142 362/364/142 420/422/142
f 416/418/143 364/366/143 363/365/143 418/420/143
f 414/416/144 365/367/144 364/366/144 416/418/144
f 304/306/145 439/441/145 410/412/145 319/321/145
f 440/442/146 409/411/146 410/412/146 439/441/146
f 438/440/147 440/442/147 439/441/147 437/439/147
f 436/438/148 438/440/148 437/439/148 435/437/148
f 434/436/149 436/438/149 435/437/149 433/435/149
f 432/434/150 434/436/150 433/435/150 431/433/150
f 430/432/151 432/434/151 431/433/151 429/431/151
f 428/430/152 430/432/152 429/431/152 427/429/152
f 426/428/153 428/430/153 427/429/153 425/427/153
f 424/426/154 426/428/154 425/427/154 423/425/154
f 422/424/155 424/426/155 423/425/155 421/423/155
f 420/422/156 422/424/156 421/423/156 419/421/156
f 418/420/157 420/422/157 419/421/157 417/419/157
f 416/418/158 418/420/158 417/419/158 415/417/158
f 414/416/159 416/418/159 415/417/159 413/415/159
f 412/414/160 414/416/160 413/415/160 411/413/160
f 409/411/161 412/414/161 411/413/161 410/412/161
f 319/321/162 410/412/162 411/413/162 318/320/162
