# Blender v2.81 (sub 16) OBJ File: 'pc case.blend'
# www.blender.org
mtllib pc case.mtl
o usb_Cube
v 0.019017 0.948013 -1.476332
v 0.019017 0.917231 -1.507114
v 0.082066 0.948013 -1.476332
v 0.082066 0.917231 -1.507114
v -0.087903 0.948013 -1.476332
v -0.087903 0.917231 -1.507114
v -0.024854 0.948013 -1.476332
v -0.024854 0.917231 -1.507114
v -0.283425 -0.877082 -1.437959
v -0.283425 0.648728 -1.437959
v -0.256290 -0.736610 -1.437959
v -0.256290 0.789200 -1.437959
v -0.147110 -0.877082 -1.437959
v -0.147110 0.648728 -1.437959
v -0.119975 -0.736610 -1.437959
v -0.119975 0.789200 -1.437959
v -0.010794 -0.877082 -1.437959
v -0.010794 0.648728 -1.437959
v 0.016340 -0.736610 -1.437959
v 0.016340 0.789200 -1.437959
v 0.125521 -0.877082 -1.437959
v 0.125521 0.648728 -1.437959
v 0.152656 -0.736610 -1.437959
v 0.152656 0.789200 -1.437959
v 0.261836 -0.877082 -1.437959
v 0.261836 0.648728 -1.437959
v 0.288971 -0.736610 -1.437959
v 0.288971 0.789200 -1.437959
v 0.398151 -0.877082 -1.437959
v 0.398151 0.648728 -1.437959
v 0.425286 -0.736610 -1.437959
v 0.425286 0.789200 -1.437959
v 0.306313 0.979323 -1.481666
v 0.298728 0.978794 -1.482178
v 0.291435 0.977230 -1.483694
v 0.284714 0.974690 -1.486155
v 0.278822 0.971271 -1.489468
v 0.273987 0.967105 -1.493504
v 0.270395 0.962352 -1.498109
v 0.268182 0.957195 -1.503106
v 0.267435 0.951832 -1.508303
v 0.268182 0.946469 -1.513499
v 0.270395 0.941312 -1.518496
v 0.273987 0.936559 -1.523101
v 0.278822 0.932393 -1.527138
v 0.284714 0.928974 -1.530450
v 0.291435 0.926434 -1.532912
v 0.298728 0.924869 -1.534428
v 0.306313 0.924341 -1.534939
v 0.313898 0.924869 -1.534428
v 0.321191 0.926434 -1.532912
v 0.327912 0.928974 -1.530450
v 0.333804 0.932393 -1.527138
v 0.338639 0.936559 -1.523101
v 0.342231 0.941312 -1.518496
v 0.344444 0.946469 -1.513499
v 0.345191 0.951832 -1.508303
v 0.344444 0.957195 -1.503106
v 0.342231 0.962352 -1.498109
v 0.338639 0.967105 -1.493504
v 0.333804 0.971271 -1.489468
v 0.327912 0.974690 -1.486155
v 0.321191 0.977230 -1.483694
v 0.313898 0.978794 -1.482178
v 0.306313 0.984976 -1.476189
v 0.297169 0.984339 -1.476806
v 0.288376 0.982453 -1.478633
v 0.280272 0.979390 -1.481601
v 0.273169 0.975268 -1.485595
v 0.267340 0.970246 -1.490461
v 0.263008 0.964515 -1.496013
v 0.260341 0.958298 -1.502038
v 0.259440 0.951832 -1.508303
v 0.260341 0.945366 -1.514568
v 0.263008 0.939148 -1.520592
v 0.267340 0.933418 -1.526145
v 0.273169 0.928395 -1.531011
v 0.280272 0.924274 -1.535005
v 0.288376 0.921211 -1.537972
v 0.297169 0.919325 -1.539800
v 0.306313 0.918688 -1.540417
v 0.315457 0.919325 -1.539800
v 0.324250 0.921211 -1.537972
v 0.332354 0.924274 -1.535005
v 0.339457 0.928396 -1.531011
v 0.345286 0.933418 -1.526145
v 0.349618 0.939148 -1.520592
v 0.352285 0.945366 -1.514568
v 0.353186 0.951832 -1.508303
v 0.352285 0.958298 -1.502038
v 0.349618 0.964516 -1.496013
v 0.345286 0.970246 -1.490461
v 0.339457 0.975268 -1.485595
v 0.332354 0.979390 -1.481601
v 0.324250 0.982453 -1.478633
v 0.315457 0.984339 -1.476806
v 0.058487 0.131438 -1.522126
v 0.481791 1.000000 -1.441960
v 0.481791 -1.000000 -1.545572
v 0.481791 1.000000 0.637019
v 0.481791 -1.000000 0.637019
v -0.481791 1.000000 -1.441960
v -0.481791 -1.000000 -1.545572
v -0.481791 1.000000 0.637019
v -0.481791 -1.000000 0.637019
v -0.373759 -0.775771 0.177341
v 0.373759 0.775771 -0.225455
v -0.373759 0.775771 -0.225455
v 0.373759 -0.775771 0.177341
v 0.491773 0.889245 -1.548029
v -0.471809 0.889245 -1.548029
v 0.373759 0.685344 -0.201979
v -0.373759 0.685344 -0.201979
v -0.010364 0.876705 -1.537886
v 0.491773 0.442826 -1.548029
v -0.471809 0.442826 -1.548029
v 0.373759 0.339024 -0.112071
v -0.373759 0.339024 -0.112071
v 0.297169 0.974037 -1.466824
v 0.288376 0.972140 -1.468641
v 0.280272 0.969060 -1.471591
v 0.273169 0.964914 -1.475562
v 0.267340 0.959862 -1.480400
v 0.263008 0.954098 -1.485920
v 0.260341 0.947844 -1.491909
v 0.259440 0.941341 -1.498138
v 0.260341 0.934837 -1.504366
v 0.263008 0.928583 -1.510355
v 0.267340 0.922819 -1.515875
v 0.273169 0.917768 -1.520713
v 0.280272 0.913622 -1.524684
v 0.288376 0.910541 -1.527634
v 0.332354 0.969060 -1.471591
v 0.339457 0.964914 -1.475562
v 0.332354 0.913622 -1.524684
v 0.324250 0.972140 -1.468641
v 0.324250 0.910541 -1.527634
v 0.315457 0.974037 -1.466824
v 0.315457 0.908644 -1.529451
v 0.306313 0.974678 -1.466211
v 0.306313 0.908003 -1.530064
v 0.297169 0.908644 -1.529451
v 0.339457 0.917768 -1.520713
v 0.345286 0.959862 -1.480400
v 0.345286 0.922819 -1.515875
v 0.349618 0.954098 -1.485920
v 0.352285 0.947844 -1.491909
v 0.352285 0.934837 -1.504366
v 0.349618 0.928583 -1.510355
v 0.353186 0.941341 -1.498138
v 0.382035 -0.736610 -1.546021
v 0.354995 -0.877082 -1.545781
v 0.245719 -0.736610 -1.546021
v 0.218680 -0.877082 -1.545781
v 0.109404 -0.736610 -1.546021
v 0.082365 -0.877082 -1.545781
v -0.299542 -0.736610 -1.546021
v -0.163227 -0.736610 -1.546021
v -0.190266 -0.877082 -1.545781
v -0.326581 -0.877082 -1.545781
v -0.053950 -0.877082 -1.545781
v -0.026911 -0.736610 -1.546021
v -0.327481 0.442826 -1.548029
v -0.327481 0.648728 -1.548029
v -0.054850 0.442826 -1.548029
v -0.054850 0.648728 -1.548029
v 0.217780 0.648728 -1.548029
v 0.217780 0.442826 -1.548029
v -0.191165 0.442826 -1.548029
v -0.191165 0.648728 -1.548029
v 0.081465 0.648728 -1.548029
v 0.081465 0.442826 -1.548029
v 0.381231 0.442826 -1.548029
v 0.381231 0.789200 -1.548029
v 0.354096 0.648728 -1.548029
v 0.354096 0.442826 -1.548029
v -0.164030 0.789200 -1.548029
v -0.027715 0.789200 -1.548029
v -0.300346 0.789200 -1.548029
v 0.244915 0.789200 -1.548029
v 0.108600 0.442826 -1.548029
v 0.108600 0.789200 -1.548029
v -0.164030 0.442826 -1.548029
v -0.027715 0.442826 -1.548029
v 0.244915 0.442826 -1.548029
v -0.300346 0.442826 -1.548029
v -0.024854 0.955887 -1.484206
v -0.087903 0.955887 -1.484206
v -0.087903 0.924440 -1.514323
v -0.024854 0.924440 -1.514323
v 0.082066 0.955887 -1.484206
v 0.019017 0.955887 -1.484206
v 0.019017 0.927048 -1.511826
v 0.019017 0.924440 -1.514323
v 0.082066 0.924440 -1.514323
v 0.022210 0.924440 -1.514323
v 0.082066 0.930796 -1.508236
v 0.082066 0.928704 -1.510239
vt 0.375000 0.000000
vt 0.625000 0.000000
vt 0.625000 0.059401
vt 0.604267 0.059855
vt 0.375000 0.064881
vt 0.375000 0.000000
vt 0.625000 0.000000
vt 0.625000 0.059401
vt 0.375000 0.064882
vt 0.000000 0.000000
vt 1.000000 0.000000
vt 1.000000 1.000000
vt 0.000000 1.000000
vt 0.000000 0.000000
vt 1.000000 0.000000
vt 1.000000 1.000000
vt 0.000000 1.000000
vt 0.000000 0.000000
vt 1.000000 0.000000
vt 1.000000 1.000000
vt 0.000000 1.000000
vt 0.000000 0.000000
vt 1.000000 0.000000
vt 1.000000 1.000000
vt 0.000000 1.000000
vt 0.000000 0.000000
vt 1.000000 0.000000
vt 1.000000 1.000000
vt 0.000000 1.000000
vt 0.000000 0.000000
vt 1.000000 0.000000
vt 1.000000 1.000000
vt 0.000000 1.000000
vt 0.000000 0.000000
vt 1.000000 0.000000
vt 1.000000 1.000000
vt 0.000000 1.000000
vt 0.000000 0.000000
vt 1.000000 0.000000
vt 1.000000 1.000000
vt 0.000000 1.000000
vt 0.000000 0.000000
vt 1.000000 0.000000
vt 1.000000 1.000000
vt 0.000000 1.000000
vt 0.000000 0.000000
vt 1.000000 0.000000
vt 1.000000 1.000000
vt 0.000000 1.000000
vt 0.000000 0.000000
vt 1.000000 0.000000
vt 1.000000 1.000000
vt 0.000000 1.000000
vt 0.000000 0.000000
vt 1.000000 0.000000
vt 1.000000 1.000000
vt 0.000000 1.000000
vt 0.000000 0.000000
vt 1.000000 0.000000
vt 1.000000 1.000000
vt 0.000000 1.000000
vt 0.000000 0.000000
vt 1.000000 0.000000
vt 1.000000 1.000000
vt 0.000000 1.000000
vt 0.000000 0.000000
vt 1.000000 0.000000
vt 1.000000 1.000000
vt 0.000000 1.000000
vt 0.000000 0.000000
vt 1.000000 0.000000
vt 1.000000 1.000000
vt 0.000000 1.000000
vt 0.000000 0.000000
vt 1.000000 0.000000
vt 1.000000 1.000000
vt 0.000000 1.000000
vt 0.000000 0.000000
vt 1.000000 0.000000
vt 1.000000 1.000000
vt 0.000000 1.000000
vt 0.000000 0.000000
vt 1.000000 0.000000
vt 1.000000 1.000000
vt 0.000000 1.000000
vt 0.000000 0.000000
vt 1.000000 0.000000
vt 1.000000 1.000000
vt 0.000000 1.000000
vt 0.000000 0.000000
vt 1.000000 0.000000
vt 1.000000 1.000000
vt 0.000000 1.000000
vt 0.000000 0.000000
vt 1.000000 0.000000
vt 1.000000 1.000000
vt 0.000000 1.000000
vt 0.000000 0.000000
vt 1.000000 0.000000
vt 1.000000 1.000000
vt 0.000000 1.000000
vt 0.000000 0.000000
vt 1.000000 0.000000
vt 1.000000 1.000000
vt 0.000000 1.000000
vt 0.000000 0.000000
vt 1.000000 0.000000
vt 1.000000 1.000000
vt 0.000000 1.000000
vt 0.000000 0.000000
vt 1.000000 0.000000
vt 1.000000 1.000000
vt 0.000000 1.000000
vt 0.000000 0.000000
vt 1.000000 0.000000
vt 1.000000 1.000000
vt 0.000000 1.000000
vt 0.000000 0.000000
vt 1.000000 0.000000
vt 1.000000 1.000000
vt 0.000000 1.000000
vt 0.000000 0.000000
vt 1.000000 0.000000
vt 1.000000 1.000000
vt 0.000000 1.000000
vt 0.000000 0.000000
vt 1.000000 0.000000
vt 1.000000 1.000000
vt 0.000000 1.000000
vt 0.000000 0.000000
vt 1.000000 0.000000
vt 1.000000 1.000000
vt 0.000000 1.000000
vt 0.000000 0.000000
vt 1.000000 0.000000
vt 1.000000 1.000000
vt 0.000000 1.000000
vt 0.000000 0.000000
vt 1.000000 1.000000
vt 0.000000 1.000000
vt 0.000000 0.000000
vt 1.000000 1.000000
vt 0.000000 1.000000
vt 0.000000 0.000000
vt 1.000000 1.000000
vt 0.000000 1.000000
vt 0.000000 0.000000
vt 1.000000 1.000000
vt 0.000000 1.000000
vt 0.000000 0.000000
vt 1.000000 1.000000
vt 0.000000 1.000000
vt 0.000000 0.000000
vt 1.000000 1.000000
vt 0.000000 1.000000
vt 0.000000 0.000000
vt 1.000000 1.000000
vt 0.000000 1.000000
vt 0.000000 0.000000
vt 1.000000 1.000000
vt 0.000000 1.000000
vt 0.000000 0.000000
vt 1.000000 1.000000
vt 0.000000 1.000000
vt 0.000000 0.000000
vt 1.000000 1.000000
vt 0.000000 1.000000
vt 0.000000 0.000000
vt 1.000000 1.000000
vt 0.000000 1.000000
vt 0.000000 0.000000
vt 1.000000 1.000000
vt 0.000000 1.000000
vt 0.000000 0.000000
vt 1.000000 1.000000
vt 0.000000 1.000000
vt 0.000000 0.000000
vt 1.000000 1.000000
vt 0.000000 1.000000
vt 0.000000 0.000000
vt 1.000000 1.000000
vt 0.000000 1.000000
vt 0.000000 0.000000
vt 1.000000 1.000000
vt 0.000000 1.000000
vt 0.000000 0.000000
vt 1.000000 1.000000
vt 0.000000 1.000000
vt 0.000000 0.000000
vt 1.000000 1.000000
vt 0.000000 1.000000
vt 0.000000 0.000000
vt 1.000000 1.000000
vt 0.000000 1.000000
vt 0.000000 0.000000
vt 1.000000 1.000000
vt 0.000000 1.000000
vt 0.000000 0.000000
vt 1.000000 1.000000
vt 0.000000 1.000000
vt 0.000000 0.000000
vt 1.000000 1.000000
vt 0.000000 1.000000
vt 0.000000 0.000000
vt 1.000000 1.000000
vt 0.000000 1.000000
vt 0.000000 0.000000
vt 1.000000 1.000000
vt 0.000000 1.000000
vt 0.000000 0.000000
vt 1.000000 1.000000
vt 0.000000 1.000000
vt 0.000000 0.000000
vt 1.000000 1.000000
vt 0.000000 1.000000
vt 0.000000 0.000000
vt 1.000000 1.000000
vt 0.000000 1.000000
vt 0.000000 0.000000
vt 1.000000 1.000000
vt 0.000000 1.000000
vt 0.000000 0.000000
vt 1.000000 1.000000
vt 0.000000 1.000000
vt 0.000000 0.000000
vt 1.000000 1.000000
vt 0.000000 1.000000
vt 0.000000 0.000000
vt 1.000000 1.000000
vt 0.000000 1.000000
vt 0.000000 0.000000
vt 1.000000 1.000000
vt 0.000000 1.000000
vt 0.625000 0.690599
vt 0.625000 0.750000
vt 0.375000 0.750000
vt 0.375000 0.685119
vt 0.125000 0.750000
vt 0.125000 0.685118
vt 0.875000 0.690600
vt 0.875000 0.750000
vt 0.625000 0.690600
vt 0.625000 0.750000
vt 0.375000 0.750000
vt 0.375000 0.685119
vt 0.574470 0.689492
vt 0.591100 0.689856
vt 0.125000 0.750000
vt 0.125000 0.685119
vt 0.875000 0.690599
vt 0.875000 0.750000
vt 0.862337 0.690599
vt 0.000000 0.000000
vt 1.000000 0.000000
vt 1.000000 1.000000
vt 0.000000 1.000000
vt 0.618077 0.161403
vt 0.621327 0.859844
vt 0.387981 0.858578
vt 0.382976 0.159283
vt 0.533986 0.256008
vt 0.466013 0.256008
vt 0.466013 0.188036
vt 0.533986 0.188036
vt 0.500000 1.000000
vt 0.611260 0.987464
vt 0.716942 0.950484
vt 0.811745 0.890916
vt 0.890916 0.811745
vt 0.950484 0.716942
vt 0.987464 0.611260
vt 1.000000 0.500000
vt 0.987464 0.388740
vt 0.950484 0.283058
vt 0.890916 0.188255
vt 0.811745 0.109084
vt 0.716942 0.049515
vt 0.611260 0.012536
vt 0.500000 0.000000
vt 0.388739 0.012536
vt 0.283058 0.049516
vt 0.188255 0.109085
vt 0.109084 0.188255
vt 0.049515 0.283058
vt 0.012536 0.388740
vt 0.000000 0.500000
vt 0.012536 0.611261
vt 0.049516 0.716942
vt 0.109085 0.811745
vt 0.188256 0.890916
vt 0.283059 0.950485
vt 0.388740 0.987464
vt 1.000000 1.000000
vt 0.000000 1.000000
vt 0.500000 1.000000
vt 0.611260 0.987464
vt 0.716942 0.950484
vt 0.811745 0.890916
vt 0.890916 0.811745
vt 0.950484 0.716942
vt 0.987464 0.611260
vt 1.000000 0.500000
vt 0.987464 0.388740
vt 0.950484 0.283058
vt 0.890916 0.188255
vt 0.811745 0.109084
vt 0.716942 0.049515
vt 0.611260 0.012536
vt 0.500000 0.000000
vt 0.388739 0.012536
vt 0.283058 0.049516
vt 0.188255 0.109085
vt 0.109084 0.188255
vt 0.049515 0.283058
vt 0.012536 0.388740
vt 0.000000 0.500000
vt 0.012536 0.611261
vt 0.049516 0.716942
vt 0.109085 0.811745
vt 0.188256 0.890916
vt 0.283059 0.950485
vt 0.388740 0.987464
vt 0.500000 1.000000
vt 0.975528 0.654508
vt 0.793893 0.095491
vt 0.206107 0.095492
vt 0.024472 0.654509
vt 0.000000 0.000000
vt 1.000000 0.000000
vt 1.000000 1.000000
vt 0.000000 1.000000
vt 0.500000 1.000000
vt 0.975528 0.654508
vt 0.793893 0.095491
vt 0.206107 0.095492
vt 0.024472 0.654509
vt 0.000000 0.000000
vt 1.000000 0.000000
vt 1.000000 1.000000
vt 0.000000 1.000000
vt 0.500000 1.000000
vt 0.975528 0.654508
vt 0.793893 0.095491
vt 0.206107 0.095492
vt 0.024472 0.654509
vt 0.000000 0.000000
vt 1.000000 0.000000
vt 1.000000 1.000000
vt 0.000000 1.000000
vt 0.500000 1.000000
vt 0.975528 0.654508
vt 0.793893 0.095491
vt 0.206107 0.095492
vt 0.024472 0.654509
vt 0.000000 0.000000
vt 1.000000 0.000000
vt 1.000000 1.000000
vt 0.000000 1.000000
vt 0.500000 1.000000
vt 0.975528 0.654508
vt 0.793893 0.095491
vt 0.206107 0.095492
vt 0.024472 0.654509
vt 0.000000 0.000000
vt 1.000000 0.000000
vt 1.000000 1.000000
vt 0.000000 1.000000
vt 0.500000 1.000000
vt 0.975528 0.654508
vt 0.793893 0.095491
vt 0.206107 0.095492
vt 0.024472 0.654509
vt 0.000000 0.000000
vt 1.000000 0.000000
vt 1.000000 1.000000
vt 0.000000 1.000000
vt 0.536667 0.762414
vt 0.542093 0.761711
vt 0.547310 0.759628
vt 0.552119 0.756245
vt 0.556333 0.751692
vt 0.559792 0.746145
vt 0.562362 0.739816
vt 0.563945 0.732948
vt 0.564479 0.725806
vt 0.563945 0.718665
vt 0.562362 0.711797
vt 0.559792 0.705468
vt 0.556333 0.699921
vt 0.552119 0.695368
vt 0.547310 0.691985
vt 0.542093 0.689902
vt 0.536667 0.689199
vt 0.531241 0.689902
vt 0.526023 0.691985
vt 0.521215 0.695368
vt 0.517000 0.699921
vt 0.513541 0.705468
vt 0.510971 0.711797
vt 0.509388 0.718665
vt 0.508854 0.725806
vt 0.509388 0.732948
vt 0.510971 0.739816
vt 0.513541 0.746145
vt 0.517000 0.751692
vt 0.521215 0.756245
vt 0.526023 0.759628
vt 0.531241 0.761711
vt 0.500000 1.000000
vt 0.975528 0.654508
vt 0.793893 0.095491
vt 0.206107 0.095492
vt 0.024472 0.654509
vt 0.000000 0.000000
vt 1.000000 0.000000
vt 0.000000 1.000000
vt 0.500000 1.000000
vt 0.975528 0.654508
vt 0.793893 0.095491
vt 0.206107 0.095492
vt 0.024472 0.654509
vt 0.000000 0.000000
vt 1.000000 1.000000
vt 0.000000 1.000000
vt 0.500000 1.000000
vt 0.975528 0.654508
vt 0.793893 0.095491
vt 0.206107 0.095492
vt 0.024472 0.654509
vt 0.000000 0.000000
vt 1.000000 0.000000
vt 0.000000 1.000000
vt 0.000000 0.000000
vt 1.000000 1.000000
vt 0.000000 1.000000
vt 0.000000 0.000000
vt 1.000000 0.000000
vt 0.000000 1.000000
vt 0.500000 1.000000
vt 0.975528 0.654508
vt 0.793893 0.095491
vt 0.206107 0.095492
vt 0.024472 0.654509
vt 0.000000 0.000000
vt 1.000000 0.000000
vt 0.000000 1.000000
vt 0.000000 0.000000
vt 1.000000 1.000000
vt 0.000000 1.000000
vt 0.000000 0.000000
vt 1.000000 1.000000
vt 0.000000 1.000000
vt 0.000000 0.000000
vt 1.000000 0.000000
vt 0.000000 1.000000
vt 0.500000 1.000000
vt 0.975528 0.654508
vt 0.793893 0.095491
vt 0.206107 0.095492
vt 0.024472 0.654509
vt 0.000000 0.000000
vt 1.000000 1.000000
vt 0.000000 1.000000
vt 0.500000 1.000000
vt 0.975528 0.654508
vt 0.793893 0.095491
vt 0.206107 0.095492
vt 0.024472 0.654509
vt 0.000000 0.000000
vt 1.000000 0.000000
vt 0.000000 1.000000
vt 0.000000 0.000000
vt 1.000000 1.000000
vt 0.000000 1.000000
vt 0.454230 0.201075
vt 0.503440 0.201075
vt 0.503440 0.250285
vt 0.454230 0.250285
vt 0.491047 0.192525
vt 0.535410 0.192525
vt 0.535410 0.236888
vt 0.491047 0.236888
vt 0.485874 0.186731
vt 0.556456 0.186731
vt 0.556456 0.257313
vt 0.485874 0.257313
vt 0.545470 0.255898
vt 0.470404 0.255898
vt 0.470404 0.180831
vt 0.545470 0.180831
vt 0.000000 0.000000
vt 0.000000 0.000000
vt 0.000000 0.000000
vt 0.000000 0.000000
vt 0.000000 0.000000
vt 0.000000 0.000000
vt 0.000000 0.000000
vt 0.000000 1.000000
vt 0.000000 0.000000
vt 1.000000 0.000000
vt 1.000000 1.000000
vt 0.000000 1.000000
vt 0.489801 0.186610
vt 0.531364 0.186610
vt 0.531364 0.228173
vt 0.000000 0.000000
vt 1.000000 0.000000
vt 1.000000 1.000000
vt 0.000000 1.000000
vt 0.000000 0.000000
vt 1.000000 0.000000
vt 1.000000 1.000000
vt 0.000000 1.000000
vt 0.495506 0.204689
vt 0.552116 0.204689
vt 0.552116 0.261300
vt 0.000000 0.000000
vt 0.000000 0.000000
vt 0.000000 0.000000
vt 1.000000 0.000000
vt 1.000000 1.000000
vt 0.000000 1.000000
vt 1.000000 0.000000
vt 0.625000 1.000000
vt 0.375000 1.000000
vt 0.625000 1.000000
vt 0.375000 1.000000
vn 1.0000 -0.0000 0.0000
vn -0.0965 0.6926 0.7148
vn -0.2861 0.6668 0.6882
vn -0.4655 0.6159 0.6356
vn -0.6283 0.5414 0.5587
vn -0.7680 0.4457 0.4600
vn -0.8788 0.3321 0.3428
vn -0.9556 0.2050 0.2116
vn -0.9950 0.0693 0.0715
vn -0.9950 -0.0693 -0.0715
vn -0.9556 -0.2050 -0.2116
vn -0.8787 -0.3321 -0.3428
vn -0.7680 -0.4457 -0.4600
vn -0.6283 -0.5414 -0.5587
vn -0.4655 -0.6159 -0.6356
vn -0.2860 -0.6668 -0.6882
vn -0.0965 -0.6926 -0.7148
vn 0.0965 -0.6926 -0.7148
vn 0.2860 -0.6668 -0.6882
vn 0.4655 -0.6159 -0.6356
vn 0.6283 -0.5414 -0.5587
vn 0.7680 -0.4457 -0.4600
vn 0.8787 -0.3321 -0.3428
vn 0.9556 -0.2050 -0.2115
vn 0.9950 -0.0693 -0.0715
vn 0.9950 0.0693 0.0715
vn 0.9556 0.2050 0.2116
vn 0.8788 0.3321 0.3428
vn 0.7680 0.4457 0.4600
vn 0.6283 0.5414 0.5587
vn 0.4655 0.6159 0.6356
vn 0.2860 0.6668 0.6882
vn 0.0965 0.6926 0.7148
vn 0.0000 0.6959 -0.7182
vn -1.0000 0.0000 0.0000
vn 0.0000 -0.7071 -0.7071
vn -0.0000 0.7071 0.7071
vn 0.0000 0.9678 -0.2516
vn 0.0000 0.0000 1.0000
vn 0.0000 1.0000 0.0000
vn -0.0000 -0.0017 -1.0000
vn -0.0000 -0.0009 -1.0000
vn -0.0000 -0.0008 -1.0000
vn 0.0000 -0.9834 -0.1813
vn -0.0000 0.0000 -1.0000
vn 0.9284 -0.0000 -0.3716
vn -0.9284 0.0000 0.3716
vn 0.9138 -0.1765 -0.3658
vn -0.9138 0.1765 0.3658
vn 0.9867 -0.0183 -0.1613
vn 0.9961 0.0108 0.0873
vn 0.9959 0.0125 0.0899
vn 0.9961 0.0107 0.0872
vn 0.9969 0.0071 0.0787
vn 0.9970 0.0064 0.0769
vn 0.9969 0.0434 0.0653
vn 0.9587 0.2832 0.0267
vn 0.0000 0.6917 -0.7222
vn -0.9973 -0.0235 0.0698
vn -0.9948 -0.0769 0.0671
vn -0.9972 -0.0264 0.0696
vn 0.0000 -1.0000 0.0000
vn 0.9009 -0.4340 0.0000
vn -0.9977 0.0100 0.0673
vn -0.9976 0.0096 0.0681
vn -0.9580 0.2856 0.0242
vn -0.9970 0.0499 0.0593
vn 0.9009 0.4340 0.0000
vn -0.9867 -0.0183 -0.1613
vn -0.9009 0.4340 0.0000
vn -0.9009 -0.4340 0.0000
vn 0.0000 0.7071 -0.7071
usemtl Material
s off
f 1/1/1 2/2/1 194/3/1 193/4/1 192/5/1
f 5/6/1 6/7/1 189/8/1 188/9/1
f 65/10/2 66/11/2 119/12/2 140/13/2
f 66/14/3 67/15/3 120/16/3 119/17/3
f 67/18/4 68/19/4 121/20/4 120/21/4
f 68/22/5 69/23/5 122/24/5 121/25/5
f 69/26/6 70/27/6 123/28/6 122/29/6
f 70/30/7 71/31/7 124/32/7 123/33/7
f 71/34/8 72/35/8 125/36/8 124/37/8
f 72/38/9 73/39/9 126/40/9 125/41/9
f 73/42/10 74/43/10 127/44/10 126/45/10
f 74/46/11 75/47/11 128/48/11 127/49/11
f 75/50/12 76/51/12 129/52/12 128/53/12
f 76/54/13 77/55/13 130/56/13 129/57/13
f 77/58/14 78/59/14 131/60/14 130/61/14
f 78/62/15 79/63/15 132/64/15 131/65/15
f 79/66/16 80/67/16 142/68/16 132/69/16
f 80/70/17 81/71/17 141/72/17 142/73/17
f 81/74/18 82/75/18 139/76/18 141/77/18
f 82/78/19 83/79/19 137/80/19 139/81/19
f 83/82/20 84/83/20 135/84/20 137/85/20
f 84/86/21 85/87/21 143/88/21 135/89/21
f 85/90/22 86/91/22 145/92/22 143/93/22
f 86/94/23 87/95/23 149/96/23 145/97/23
f 87/98/24 88/99/24 148/100/24 149/101/24
f 88/102/25 89/103/25 150/104/25 148/105/25
f 89/106/26 90/107/26 147/108/26 150/109/26
f 90/110/27 91/111/27 146/112/27 147/113/27
f 91/114/28 92/115/28 144/116/28 146/117/28
f 92/118/29 93/119/29 134/120/29 144/121/29
f 93/122/30 94/123/30 133/124/30 134/125/30
f 94/126/31 95/127/31 136/128/31 133/129/31
f 95/130/32 96/131/32 138/132/32 136/133/32
f 96/134/33 65/135/33 140/136/33 138/137/33
f 34/138/34 66/11/34 65/139/34 33/140/34
f 35/141/34 67/15/34 66/142/34 34/143/34
f 36/144/34 68/19/34 67/145/34 35/146/34
f 37/147/34 69/23/34 68/148/34 36/149/34
f 38/150/34 70/27/34 69/151/34 37/152/34
f 39/153/34 71/31/34 70/154/34 38/155/34
f 40/156/34 72/35/34 71/157/34 39/158/34
f 41/159/34 73/39/34 72/160/34 40/161/34
f 42/162/34 74/43/34 73/163/34 41/164/34
f 43/165/34 75/47/34 74/166/34 42/167/34
f 44/168/34 76/51/34 75/169/34 43/170/34
f 45/171/34 77/55/34 76/172/34 44/173/34
f 46/174/34 78/59/34 77/175/34 45/176/34
f 47/177/34 79/63/34 78/178/34 46/179/34
f 48/180/34 80/67/34 79/181/34 47/182/34
f 49/183/34 81/71/34 80/184/34 48/185/34
f 50/186/34 82/75/34 81/187/34 49/188/34
f 51/189/34 83/79/34 82/190/34 50/191/34
f 52/192/34 84/83/34 83/193/34 51/194/34
f 53/195/34 85/87/34 84/196/34 52/197/34
f 54/198/34 86/91/34 85/199/34 53/200/34
f 55/201/34 87/95/34 86/202/34 54/203/34
f 56/204/34 88/99/34 87/205/34 55/206/34
f 57/207/34 89/103/34 88/208/34 56/209/34
f 58/210/34 90/107/34 89/211/34 57/212/34
f 59/213/34 91/111/34 90/214/34 58/215/34
f 60/216/34 92/115/34 91/217/34 59/218/34
f 61/219/34 93/119/34 92/220/34 60/221/34
f 62/222/34 94/123/34 93/223/34 61/224/34
f 63/225/34 95/127/34 94/226/34 62/227/34
f 64/228/34 96/131/34 95/229/34 63/230/34
f 33/231/34 65/135/34 96/232/34 64/233/34
f 190/234/35 8/235/35 7/236/35 187/237/35
f 187/237/36 7/236/36 5/238/36 188/239/36
f 189/240/37 6/241/37 8/235/37 190/234/37
f 195/242/35 4/243/35 3/244/35 191/245/35 197/246/35 198/247/35
f 191/245/36 3/244/36 1/248/36 192/249/36
f 194/250/37 2/251/37 4/243/37 195/242/37 196/252/37
s 1
f 107/253/38 108/254/38 104/255/38 100/256/38
f 101/257/39 100/258/39 104/259/39 105/260/39
f 100/261/40 98/262/40 102/263/40 104/264/40
f 99/265/41 103/266/41 116/267/42 163/268/42 160/269/41 157/270/41 186/271/42 169/272/42 159/273/41 158/274/41 183/275/42 165/276/42 161/277/41 162/278/41 184/279/42 172/280/42 156/281/41 155/282/41 181/283/42 168/284/42 154/285/41 153/286/41 185/287/42 176/288/42 152/289/41 151/290/41 173/291/42 115/292/43
f 107/253/44 108/254/44 102/293/44 98/294/44
f 115/295/43 173/296/42 174/297/45 175/298/45 176/299/42 185/300/42 180/301/45 167/302/45 168/303/42 181/304/42 182/305/45 171/306/45 172/307/42 184/308/42 178/309/45 166/310/45 165/311/42 183/312/42 177/313/45 170/314/45 169/315/42 186/316/42 179/317/45 164/318/45 163/319/42 116/320/42 111/321/45 110/322/45
usemtl Material.002
s off
f 9/323/46 160/324/46 163/325/46 164/326/46 10/327/46
f 11/328/45 9/329/45 10/330/45 12/331/45
f 13/332/46 159/333/46 169/334/46 170/335/46 14/336/46
f 15/337/45 13/338/45 14/339/45 16/340/45
f 17/341/46 161/342/46 165/343/46 166/344/46 18/345/46
f 19/346/45 17/347/45 18/348/45 20/349/45
f 21/350/46 156/351/46 172/352/46 171/353/46 22/354/46
f 23/355/45 21/356/45 22/357/45 24/358/45
f 25/359/46 154/360/46 168/361/46 167/362/46 26/363/46
f 27/364/45 25/365/45 26/366/45 28/367/45
f 29/368/46 152/369/46 176/370/46 175/371/46 30/372/46
f 31/373/45 29/374/45 30/375/45 32/376/45
f 33/377/34 64/378/34 63/379/34 62/380/34 61/381/34 60/382/34 59/383/34 58/384/34 57/385/34 56/386/34 55/387/34 54/388/34 53/389/34 52/390/34 51/391/34 50/392/34 49/393/34 48/394/34 47/395/34 46/396/34 45/397/34 44/398/34 43/399/34 42/400/34 41/401/34 40/402/34 39/403/34 38/404/34 37/405/34 36/406/34 35/407/34 34/408/34
f 157/409/47 11/410/47 12/411/47 179/412/47 186/413/47
f 179/414/48 12/415/48 10/330/48 164/416/48
f 155/417/47 23/418/47 24/419/47 182/420/47 181/421/47
f 154/422/49 25/365/49 27/423/49 153/424/49
f 158/425/47 15/426/47 16/427/47 177/428/47 183/429/47
f 178/430/48 20/431/48 18/348/48 166/432/48
f 159/433/49 13/338/49 15/434/49 158/435/49
f 180/436/48 28/437/48 26/366/48 167/438/48
f 162/439/47 19/440/47 20/441/47 178/442/47 184/443/47
f 177/444/48 16/445/48 14/339/48 170/446/48
f 156/447/49 21/356/49 23/448/49 155/449/49
f 152/450/49 29/374/49 31/451/49 151/452/49
f 174/453/48 32/454/48 30/375/48 175/455/48
f 151/456/47 31/457/47 32/458/47 174/459/47 173/460/47
f 161/461/49 17/347/49 19/462/49 162/463/49
f 153/464/47 27/465/47 28/466/47 180/467/47 185/468/47
f 182/469/48 24/470/48 22/357/48 171/471/48
f 160/472/49 9/329/49 11/473/49 157/474/49
usemtl Material.004
f 109/475/50 107/476/50 100/477/50 101/478/50
s 1
f 110/479/51 98/480/52 107/481/52 112/482/53
f 115/483/54 110/484/51 112/485/53 117/486/55
f 99/487/56 115/488/54 117/489/55 109/490/57
usemtl Material.005
s off
f 188/491/58 102/492/58 98/493/58 191/494/58 192/495/58 187/496/58
f 190/234/58 187/496/58 192/5/58 193/4/58
s 1
f 113/497/59 108/254/60 102/293/60 111/498/61
f 105/499/62 103/500/62 99/501/62 101/502/62
f 107/503/63 98/504/63 100/505/63
f 118/506/64 113/507/59 111/508/61 116/509/65
f 106/510/66 118/511/64 116/512/65 103/513/67
f 109/514/57 101/515/68 99/516/56
f 98/480/58 110/479/58 195/517/58 191/494/58
f 102/293/58 188/9/58 189/8/58 111/498/58
f 111/498/58 189/8/58 190/234/58 194/518/58 195/517/58 110/479/58
usemtl Material.006
s off
f 108/519/69 106/520/69 105/521/69 104/522/69
s 1
f 106/510/66 103/500/67 105/521/70
f 108/519/71 104/523/71 102/293/71
usemtl Material.007
s off
f 3/244/72 4/243/72 2/524/72 1/525/72
f 7/236/72 8/235/72 6/526/72 5/527/72
l 110 114
l 150 98
o Cube_Cube.003
v -0.407502 0.905329 0.638823
v -0.407502 0.905329 0.638309
v -0.171661 0.905329 0.638823
v -0.171661 0.905329 0.638309
v -0.407502 0.131108 0.638823
v -0.407502 0.131108 0.638309
v -0.171661 0.131108 0.638823
v -0.171661 0.131108 0.638309
v -0.362518 0.794940 0.638309
v -0.362518 0.794940 0.638823
v -0.318369 0.825115 0.638309
v -0.318369 0.825115 0.638823
v -0.318915 0.832195 0.638309
v -0.318915 0.832195 0.638823
v -0.320530 0.839003 0.638309
v -0.320530 0.839003 0.638823
v -0.357611 0.858644 0.638309
v -0.357611 0.858644 0.638823
v -0.362518 0.855290 0.638309
v -0.362518 0.855290 0.638823
v -0.352287 0.860709 0.638309
v -0.352287 0.860709 0.638823
v -0.366819 0.850777 0.638309
v -0.366819 0.850777 0.638823
v -0.374586 0.832195 0.638309
v -0.374586 0.832195 0.638823
v -0.375131 0.825115 0.638309
v -0.375131 0.825115 0.638823
v -0.372971 0.839003 0.638309
v -0.372971 0.839003 0.638823
v -0.341214 0.789521 0.638309
v -0.341214 0.789521 0.638823
v -0.323152 0.804953 0.638309
v -0.323152 0.804953 0.638823
v -0.346750 0.788824 0.638309
v -0.346750 0.788824 0.638823
v -0.335889 0.791586 0.638309
v -0.335889 0.791586 0.638823
v -0.374586 0.818035 0.638309
v -0.374586 0.818035 0.638823
v -0.326682 0.850777 0.638309
v -0.326682 0.850777 0.638823
v -0.323152 0.845277 0.638309
v -0.323152 0.845277 0.638823
v -0.330983 0.855290 0.638309
v -0.330983 0.855290 0.638823
v -0.352287 0.789521 0.638309
v -0.352287 0.789521 0.638823
v -0.370348 0.804953 0.638309
v -0.370348 0.804953 0.638823
v -0.366819 0.799453 0.638309
v -0.366819 0.799453 0.638823
v -0.357611 0.791586 0.638309
v -0.357611 0.791586 0.638823
v -0.346750 0.861406 0.638309
v -0.346750 0.861406 0.638823
v -0.370348 0.845277 0.638309
v -0.370348 0.845277 0.638823
v -0.341213 0.860709 0.638309
v -0.341214 0.860709 0.638823
v -0.326682 0.799453 0.638309
v -0.326682 0.799453 0.638823
v -0.372971 0.811227 0.638309
v -0.372971 0.811227 0.638823
v -0.330983 0.794940 0.638309
v -0.330983 0.794940 0.638823
v -0.335889 0.858644 0.638309
v -0.335889 0.858644 0.638823
v -0.320530 0.811227 0.638309
v -0.320530 0.811227 0.638823
v -0.318915 0.818035 0.638309
v -0.318915 0.818035 0.638823
v -0.288090 0.794940 0.638823
v -0.288090 0.794940 0.638309
v -0.243942 0.825115 0.638823
v -0.243942 0.825115 0.638309
v -0.244487 0.832195 0.638823
v -0.244487 0.832195 0.638309
v -0.246102 0.839003 0.638823
v -0.246102 0.839003 0.638309
v -0.283183 0.858644 0.638309
v -0.283183 0.858644 0.638823
v -0.288090 0.855290 0.638309
v -0.288090 0.855290 0.638823
v -0.277859 0.860709 0.638309
v -0.277859 0.860709 0.638823
v -0.292391 0.850777 0.638309
v -0.292391 0.850777 0.638823
v -0.300158 0.832195 0.638823
v -0.299374 0.835501 0.638823
v -0.300158 0.832195 0.638309
v -0.299374 0.835501 0.638309
v -0.300704 0.825115 0.638823
v -0.300704 0.825115 0.638309
v -0.298543 0.839003 0.638309
v -0.298543 0.839003 0.638823
v -0.266786 0.789521 0.638823
v -0.266786 0.789521 0.638309
v -0.248725 0.804953 0.638823
v -0.248725 0.804953 0.638309
v -0.272323 0.788824 0.638823
v -0.272323 0.788824 0.638309
v -0.261462 0.791586 0.638823
v -0.261462 0.791586 0.638309
v -0.300158 0.818035 0.638823
v -0.300158 0.818035 0.638309
v -0.252254 0.850777 0.638823
v -0.252254 0.850777 0.638309
v -0.248725 0.845277 0.638823
v -0.248725 0.845277 0.638309
v -0.256555 0.855290 0.638823
v -0.256555 0.855290 0.638309
v -0.277859 0.789521 0.638823
v -0.277859 0.789521 0.638309
v -0.295920 0.804953 0.638823
v -0.295920 0.804953 0.638309
v -0.292391 0.799453 0.638823
v -0.292391 0.799453 0.638309
v -0.283183 0.791586 0.638823
v -0.283183 0.791586 0.638309
v -0.272323 0.861406 0.638309
v -0.272323 0.861406 0.638823
v -0.295920 0.845277 0.638309
v -0.295920 0.845277 0.638823
v -0.266786 0.860709 0.638309
v -0.266786 0.860709 0.638823
v -0.252254 0.799453 0.638823
v -0.252254 0.799453 0.638309
v -0.298543 0.811227 0.638823
v -0.298543 0.811227 0.638309
v -0.256555 0.794940 0.638823
v -0.256555 0.794940 0.638309
v -0.259499 0.857303 0.638823
v -0.259499 0.857303 0.638309
v -0.261462 0.858644 0.638309
v -0.261462 0.858644 0.638823
v -0.246102 0.811227 0.638823
v -0.246102 0.811227 0.638309
v -0.244487 0.818035 0.638823
v -0.244487 0.818035 0.638309
v -0.345656 0.707776 0.638823
v -0.345656 0.745396 0.638823
v -0.345656 0.707776 0.638309
v -0.373079 0.708043 0.638823
v -0.373079 0.708043 0.638309
v -0.345656 0.765023 0.638823
v -0.345656 0.765023 0.638309
v -0.373079 0.765290 0.638823
v -0.373079 0.765290 0.638309
v -0.303833 0.707776 0.638823
v -0.303833 0.707776 0.638309
v -0.331256 0.708043 0.638823
v -0.331256 0.708043 0.638309
v -0.303833 0.758204 0.638309
v -0.303833 0.765023 0.638309
v -0.303833 0.765023 0.638823
v -0.331256 0.765290 0.638823
v -0.326103 0.765240 0.638823
v -0.331256 0.765290 0.638309
v -0.331256 0.760010 0.638823
v -0.331256 0.725138 0.638309
v -0.235151 0.639291 0.638823
v -0.235151 0.639291 0.638309
v -0.235520 0.644079 0.638823
v -0.235520 0.644079 0.638309
v -0.236612 0.648683 0.638823
v -0.236612 0.648683 0.638309
v -0.261690 0.661966 0.638823
v -0.261690 0.661966 0.638309
v -0.265008 0.659698 0.638823
v -0.265008 0.659698 0.638309
v -0.258089 0.663363 0.638823
v -0.258089 0.663363 0.638309
v -0.267917 0.656646 0.638823
v -0.267917 0.656646 0.638309
v -0.273170 0.644079 0.638823
v -0.273170 0.644079 0.638309
v -0.273539 0.639291 0.638823
v -0.273539 0.639291 0.638309
v -0.272078 0.648683 0.638823
v -0.272078 0.648683 0.638309
v -0.273170 0.634503 0.638823
v -0.273170 0.634503 0.638309
v -0.240773 0.656646 0.638823
v -0.240773 0.656646 0.638309
v -0.238386 0.652927 0.638823
v -0.238386 0.652927 0.638309
v -0.243681 0.659698 0.638823
v -0.243681 0.659698 0.638309
v -0.254345 0.663835 0.638823
v -0.254345 0.663835 0.638309
v -0.270304 0.652927 0.638823
v -0.270304 0.652927 0.638309
v -0.250600 0.663363 0.638823
v -0.250600 0.663363 0.638309
v -0.272078 0.629899 0.638823
v -0.272078 0.629899 0.638309
v -0.247000 0.661966 0.638823
v -0.247000 0.661966 0.638309
v -0.236612 0.629899 0.638823
v -0.236612 0.629899 0.638309
v -0.235520 0.634503 0.638823
v -0.235520 0.634503 0.638309
v -0.224128 0.628240 0.638309
v -0.224128 0.628240 0.638823
v -0.237305 0.628240 0.638309
v -0.237305 0.628240 0.638823
v -0.283503 0.628240 0.638823
v -0.283503 0.628240 0.638309
v -0.283503 0.407338 0.638309
v -0.283503 0.407338 0.638823
v -0.224128 0.407338 0.638309
v -0.224128 0.407338 0.638823
v -0.271384 0.628240 0.638823
v -0.271384 0.628240 0.638309
v -0.330230 0.490459 0.638823
v -0.330230 0.490459 0.638309
v -0.330599 0.495247 0.638823
v -0.330599 0.495247 0.638309
v -0.331691 0.499851 0.638823
v -0.331691 0.499851 0.638309
v -0.356769 0.513134 0.638823
v -0.356769 0.513134 0.638309
v -0.360087 0.510866 0.638823
v -0.360087 0.510866 0.638309
v -0.353168 0.514531 0.638823
v -0.353168 0.514531 0.638309
v -0.362996 0.507814 0.638823
v -0.362996 0.507814 0.638309
v -0.368249 0.495247 0.638823
v -0.368249 0.495247 0.638309
v -0.368618 0.490459 0.638823
v -0.368618 0.490459 0.638309
v -0.367157 0.499851 0.638823
v -0.367157 0.499851 0.638309
v -0.368249 0.485670 0.638823
v -0.368249 0.485670 0.638309
v -0.335852 0.507814 0.638823
v -0.335852 0.507814 0.638309
v -0.333465 0.504094 0.638823
v -0.333465 0.504094 0.638309
v -0.338760 0.510866 0.638823
v -0.338760 0.510866 0.638309
v -0.349424 0.515002 0.638823
v -0.349424 0.515002 0.638309
v -0.365383 0.504094 0.638823
v -0.365383 0.504094 0.638309
v -0.345679 0.514531 0.638823
v -0.345679 0.514531 0.638309
v -0.367157 0.481066 0.638823
v -0.367157 0.481066 0.638309
v -0.342079 0.513134 0.638823
v -0.342079 0.513134 0.638309
v -0.331691 0.481066 0.638823
v -0.331691 0.481066 0.638309
v -0.330599 0.485670 0.638823
v -0.330599 0.485670 0.638309
v -0.262012 0.385167 0.638823
v -0.262012 0.385167 0.638309
v -0.232291 0.407338 0.638823
v -0.232291 0.407338 0.638309
v -0.232155 0.405574 0.638823
v -0.232155 0.405574 0.638309
v -0.270406 0.407338 0.638823
v -0.270406 0.407338 0.638309
v -0.270542 0.405574 0.638823
v -0.270542 0.405574 0.638309
v -0.247604 0.381502 0.638823
v -0.247604 0.381502 0.638309
v -0.235389 0.391939 0.638823
v -0.235389 0.391939 0.638309
v -0.251348 0.381031 0.638823
v -0.251348 0.381031 0.638309
v -0.244003 0.382899 0.638823
v -0.244003 0.382899 0.638309
v -0.270174 0.400786 0.638823
v -0.270174 0.400786 0.638309
v -0.255093 0.381502 0.638823
v -0.255093 0.381502 0.638309
v -0.267308 0.391939 0.638823
v -0.267308 0.391939 0.638309
v -0.264921 0.388219 0.638823
v -0.264921 0.388219 0.638309
v -0.258694 0.382899 0.638823
v -0.258694 0.382899 0.638309
v -0.237776 0.388219 0.638823
v -0.237776 0.388219 0.638309
v -0.269081 0.396182 0.638823
v -0.269081 0.396182 0.638309
v -0.240685 0.385167 0.638823
v -0.240685 0.385167 0.638309
v -0.233616 0.396182 0.638823
v -0.233616 0.396182 0.638309
v -0.232523 0.400786 0.638823
v -0.232523 0.400786 0.638309
v -0.319356 0.480996 0.638823
v -0.319356 0.480996 0.638309
v -0.324910 0.480996 0.638309
v -0.324910 0.480996 0.638823
v -0.331721 0.480996 0.638823
v -0.331721 0.480996 0.638309
v -0.378732 0.480996 0.638309
v -0.378732 0.480996 0.638823
v -0.378732 0.396987 0.638309
v -0.378732 0.396987 0.638823
v -0.378732 0.383991 0.638309
v -0.378732 0.383991 0.638823
v -0.319356 0.383991 0.638823
v -0.319356 0.383991 0.638309
v -0.369642 0.480996 0.638309
v -0.369642 0.480996 0.638823
v -0.367127 0.480996 0.638309
v -0.367127 0.480996 0.638823
v -0.319356 0.471116 0.638309
v -0.319356 0.471116 0.638823
v -0.360087 0.359068 0.638309
v -0.360087 0.359068 0.638823
v -0.330230 0.379475 0.638309
v -0.330230 0.379475 0.638823
v -0.330578 0.383991 0.638309
v -0.330578 0.383991 0.638823
v -0.368270 0.383991 0.638309
v -0.368270 0.383991 0.638823
v -0.368618 0.379475 0.638309
v -0.368618 0.379475 0.638823
v -0.345679 0.355403 0.638309
v -0.345679 0.355403 0.638823
v -0.333465 0.365839 0.638309
v -0.333465 0.365839 0.638823
v -0.349424 0.354931 0.638309
v -0.349424 0.354931 0.638823
v -0.342079 0.356800 0.638309
v -0.342079 0.356800 0.638823
v -0.368249 0.374687 0.638309
v -0.368249 0.374687 0.638823
v -0.353168 0.355403 0.638309
v -0.353168 0.355403 0.638823
v -0.365383 0.365839 0.638309
v -0.365383 0.365839 0.638823
v -0.362996 0.362120 0.638309
v -0.362996 0.362120 0.638823
v -0.356769 0.356800 0.638309
v -0.356769 0.356800 0.638823
v -0.335852 0.362120 0.638309
v -0.335852 0.362120 0.638823
v -0.367157 0.370082 0.638309
v -0.367157 0.370082 0.638823
v -0.338760 0.359068 0.638309
v -0.338760 0.359068 0.638823
v -0.331691 0.370082 0.638309
v -0.331691 0.370082 0.638823
v -0.330599 0.374687 0.638309
v -0.330599 0.374687 0.638823
v -0.347529 0.269542 0.638823
v -0.347529 0.269542 0.638309
v -0.374952 0.269809 0.638823
v -0.374952 0.269809 0.638309
v -0.347529 0.326789 0.638823
v -0.347529 0.326789 0.638309
v -0.374952 0.327056 0.638823
v -0.374952 0.327056 0.638309
v -0.309415 0.284381 0.638823
v -0.309415 0.269542 0.638309
v -0.309415 0.269542 0.638823
v -0.336838 0.269809 0.638309
v -0.336838 0.269809 0.638823
v -0.309415 0.326789 0.638823
v -0.309415 0.315706 0.638309
v -0.309415 0.326789 0.638309
v -0.336838 0.327056 0.638823
v -0.336838 0.327056 0.638309
v -0.336838 0.314894 0.638823
v -0.336838 0.283184 0.638309
v -0.283476 0.255520 0.638823
v -0.294013 0.255520 0.638823
v -0.294013 0.255520 0.638309
v -0.236090 0.255520 0.638823
v -0.236090 0.255520 0.638309
v -0.264501 0.255520 0.638309
v -0.294013 0.329588 0.638309
v -0.294013 0.295067 0.638309
v -0.294013 0.329588 0.638823
v -0.236090 0.329588 0.638823
v -0.236090 0.329588 0.638309
v -0.294013 0.267245 0.638823
v -0.232196 0.156924 0.638823
v -0.232196 0.156924 0.638309
v -0.197733 0.180478 0.638823
v -0.197733 0.180478 0.638309
v -0.198159 0.186005 0.638823
v -0.198159 0.186005 0.638309
v -0.199420 0.191319 0.638823
v -0.199420 0.191319 0.638309
v -0.228365 0.206651 0.638823
v -0.228108 0.206751 0.638309
v -0.228365 0.206651 0.638309
v -0.232196 0.204033 0.638823
v -0.232196 0.204033 0.638309
v -0.224209 0.208263 0.638823
v -0.224209 0.208263 0.638309
v -0.235553 0.200510 0.638823
v -0.235553 0.200510 0.638309
v -0.241616 0.186005 0.638823
v -0.241616 0.186005 0.638309
v -0.241582 0.186146 0.638309
v -0.242042 0.180478 0.638823
v -0.242042 0.180478 0.638309
v -0.234772 0.201329 0.638823
v -0.240355 0.191319 0.638823
v -0.240355 0.191319 0.638309
v -0.215565 0.152694 0.638823
v -0.215565 0.152694 0.638309
v -0.201467 0.164739 0.638823
v -0.201642 0.164467 0.638823
v -0.201467 0.164739 0.638309
v -0.219887 0.152149 0.638823
v -0.219887 0.152149 0.638309
v -0.211409 0.154306 0.638823
v -0.211409 0.154306 0.638309
v -0.241616 0.174952 0.638823
v -0.241616 0.174951 0.638309
v -0.204222 0.200510 0.638823
v -0.204222 0.200510 0.638309
v -0.201467 0.196217 0.638823
v -0.201467 0.196217 0.638309
v -0.207579 0.204033 0.638823
v -0.207579 0.204033 0.638309
v -0.224210 0.152694 0.638823
v -0.224210 0.152694 0.638309
v -0.238308 0.164739 0.638823
v -0.238308 0.164739 0.638309
v -0.235553 0.160447 0.638823
v -0.235553 0.160447 0.638309
v -0.228365 0.154306 0.638823
v -0.228365 0.154306 0.638309
v -0.219887 0.208807 0.638823
v -0.219887 0.208807 0.638309
v -0.238308 0.196217 0.638823
v -0.238308 0.196217 0.638309
v -0.215565 0.208263 0.638823
v -0.215565 0.208263 0.638309
v -0.204222 0.160447 0.638823
v -0.204222 0.160447 0.638309
v -0.240355 0.169637 0.638823
v -0.240355 0.169637 0.638309
v -0.207579 0.156924 0.638823
v -0.207579 0.156924 0.638309
v -0.206241 0.158328 0.638309
v -0.211409 0.206651 0.638823
v -0.211409 0.206651 0.638309
v -0.199420 0.169637 0.638823
v -0.199420 0.169637 0.638309
v -0.199776 0.168784 0.638309
v -0.198159 0.174951 0.638823
v -0.198159 0.174951 0.638309
v -0.295118 0.156924 0.638309
v -0.295118 0.156924 0.638823
v -0.260655 0.180478 0.638823
v -0.260655 0.180478 0.638309
v -0.261081 0.186005 0.638823
v -0.261081 0.186005 0.638309
v -0.262342 0.191319 0.638823
v -0.262342 0.191319 0.638309
v -0.291288 0.206651 0.638823
v -0.291288 0.206651 0.638309
v -0.295118 0.204033 0.638823
v -0.295118 0.204033 0.638309
v -0.287132 0.208263 0.638823
v -0.287132 0.208263 0.638309
v -0.298475 0.200510 0.638823
v -0.298475 0.200510 0.638309
v -0.304538 0.186005 0.638823
v -0.304538 0.186005 0.638309
v -0.304964 0.180478 0.638823
v -0.304964 0.180478 0.638309
v -0.303277 0.191319 0.638823
v -0.303277 0.191319 0.638309
v -0.278487 0.152694 0.638309
v -0.278487 0.152694 0.638823
v -0.264389 0.164739 0.638823
v -0.264389 0.164739 0.638309
v -0.282810 0.152149 0.638309
v -0.282810 0.152149 0.638823
v -0.274332 0.154306 0.638823
v -0.274332 0.154306 0.638309
v -0.304538 0.174952 0.638823
v -0.304538 0.174952 0.638309
v -0.267144 0.200510 0.638309
v -0.267144 0.200510 0.638823
v -0.264389 0.196217 0.638309
v -0.264389 0.196217 0.638823
v -0.270501 0.204033 0.638309
v -0.270501 0.204033 0.638823
v -0.287132 0.152694 0.638823
v -0.287132 0.152694 0.638309
v -0.301230 0.164739 0.638823
v -0.301230 0.164739 0.638309
v -0.298475 0.160447 0.638823
v -0.298475 0.160447 0.638309
v -0.291288 0.154306 0.638309
v -0.291288 0.154306 0.638823
v -0.282810 0.208807 0.638823
v -0.282810 0.208807 0.638309
v -0.301230 0.196217 0.638823
v -0.301230 0.196217 0.638309
v -0.278487 0.208263 0.638309
v -0.278487 0.208263 0.638823
v -0.267144 0.160447 0.638309
v -0.267144 0.160447 0.638823
v -0.303277 0.169637 0.638823
v -0.303277 0.169637 0.638309
v -0.270501 0.156924 0.638823
v -0.270501 0.156924 0.638309
v -0.274332 0.206651 0.638309
v -0.274332 0.206651 0.638823
v -0.262342 0.169637 0.638823
v -0.262342 0.169637 0.638309
v -0.261081 0.174951 0.638823
v -0.261081 0.174951 0.638309
v -0.361036 0.156924 0.638823
v -0.361036 0.156924 0.638309
v -0.326574 0.180478 0.638823
v -0.326574 0.180478 0.638309
v -0.327000 0.186005 0.638823
v -0.327000 0.186005 0.638309
v -0.328260 0.191319 0.638823
v -0.328260 0.191319 0.638309
v -0.357206 0.206651 0.638823
v -0.357206 0.206651 0.638309
v -0.361036 0.204033 0.638823
v -0.361036 0.204033 0.638309
v -0.353050 0.208263 0.638823
v -0.353050 0.208263 0.638309
v -0.364393 0.200510 0.638823
v -0.364393 0.200510 0.638309
v -0.370456 0.186005 0.638823
v -0.370456 0.186005 0.638309
v -0.370882 0.180478 0.638823
v -0.370882 0.180478 0.638309
v -0.369196 0.191319 0.638823
v -0.369196 0.191319 0.638309
v -0.344406 0.152694 0.638823
v -0.344406 0.152694 0.638309
v -0.330307 0.164739 0.638823
v -0.330307 0.164739 0.638309
v -0.348728 0.152149 0.638823
v -0.348728 0.152149 0.638309
v -0.340250 0.154306 0.638823
v -0.340250 0.154306 0.638309
v -0.370456 0.174952 0.638823
v -0.370456 0.174952 0.638309
v -0.333063 0.200510 0.638823
v -0.333063 0.200510 0.638309
v -0.330307 0.196217 0.638823
v -0.330307 0.196217 0.638309
v -0.336420 0.204033 0.638823
v -0.336420 0.204033 0.638309
v -0.353050 0.152694 0.638823
v -0.353050 0.152694 0.638309
v -0.367148 0.164739 0.638823
v -0.367148 0.164739 0.638309
v -0.364393 0.160447 0.638823
v -0.364393 0.160447 0.638309
v -0.357206 0.154306 0.638823
v -0.357206 0.154306 0.638309
v -0.358080 0.154903 0.638823
v -0.358080 0.154903 0.638309
v -0.348728 0.208807 0.638823
v -0.348728 0.208807 0.638309
v -0.367148 0.196217 0.638823
v -0.367148 0.196217 0.638309
v -0.344406 0.208263 0.638823
v -0.344406 0.208263 0.638309
v -0.333063 0.160447 0.638823
v -0.333063 0.160447 0.638309
v -0.369196 0.169637 0.638823
v -0.369196 0.169637 0.638309
v -0.336420 0.156924 0.638823
v -0.336420 0.156924 0.638309
v -0.340250 0.206651 0.638823
v -0.340250 0.206651 0.638309
v -0.328457 0.169167 0.638823
v -0.328260 0.169637 0.638823
v -0.328260 0.169637 0.638309
v -0.328457 0.169167 0.638309
v -0.327000 0.174951 0.638823
v -0.327000 0.174951 0.638309
vt 0.419770 0.950384
vt 0.436191 0.669457
vt 0.436193 0.683210
vt 0.438360 0.743550
vt 0.438360 0.804183
vt 0.454033 0.805004
vt 0.514386 0.896622
vt 0.514367 0.896771
vt 0.514121 0.902633
vt 0.503509 0.902110
vt 0.503269 0.896224
vt 0.502554 0.890541
vt 0.501390 0.885278
vt 0.499821 0.880638
vt 0.497909 0.876799
vt 0.495727 0.873909
vt 0.493359 0.872079
vt 0.490894 0.871379
vt 0.488430 0.871838
vt 0.486059 0.873436
vt 0.483874 0.876113
vt 0.481956 0.879763
vt 0.480383 0.884250
vt 0.479214 0.889398
vt 0.478492 0.895009
vt 0.478247 0.900869
vt 0.464849 0.912214
vt 0.464961 0.911720
vt 0.465682 0.906115
vt 0.465927 0.900260
vt 0.465686 0.894381
vt 0.464969 0.888703
vt 0.463804 0.883446
vt 0.462235 0.878811
vt 0.460322 0.874979
vt 0.458139 0.872095
vt 0.455769 0.870272
vt 0.453304 0.869580
vt 0.450839 0.870044
vt 0.448468 0.871646
vt 0.446281 0.874324
vt 0.444365 0.877973
vt 0.442793 0.882455
vt 0.441623 0.887594
vt 0.440904 0.893196
vt 0.440660 0.899045
vt 0.440901 0.904917
vt 0.441620 0.910586
vt 0.442786 0.915836
vt 0.444357 0.920464
vt 0.446270 0.924294
vt 0.447955 0.926519
vt 0.558141 0.124099
vt 0.539746 0.160397
vt 0.538143 0.155995
vt 0.536063 0.152132
vt 0.533693 0.149255
vt 0.531125 0.147475
vt 0.528458 0.146861
vt 0.525794 0.147436
vt 0.523236 0.149178
vt 0.520881 0.152020
vt 0.518821 0.155852
vt 0.517134 0.160528
vt 0.515885 0.165868
vt 0.515122 0.171667
vt 0.514876 0.177701
vt 0.503396 0.177617
vt 0.503118 0.171579
vt 0.502325 0.165768
vt 0.501049 0.160410
vt 0.499337 0.155708
vt 0.497257 0.151845
vt 0.494887 0.148968
vt 0.492320 0.147189
vt 0.489654 0.146577
vt 0.486989 0.147149
vt 0.484430 0.148890
vt 0.482075 0.151732
vt 0.480014 0.155566
vt 0.478327 0.160241
vt 0.477079 0.165582
vt 0.476316 0.171380
vt 0.476068 0.177415
vt 0.461548 0.164953
vt 0.460395 0.160109
vt 0.458683 0.155407
vt 0.456603 0.151544
vt 0.454233 0.148667
vt 0.451666 0.146887
vt 0.448999 0.146273
vt 0.446335 0.146848
vt 0.443776 0.148589
vt 0.443239 0.149238
vt 0.412693 0.123021
vt 0.718750 0.726503
vt 0.718750 0.731029
vt 0.750000 0.731029
vt 0.750000 0.726503
vt 0.555990 0.125872
vt 0.505123 0.179240
vt 0.503988 0.177863
vt 0.500909 0.175802
vt 0.497705 0.175202
vt 0.494501 0.176086
vt 0.491418 0.178421
vt 0.488577 0.182116
vt 0.486084 0.187030
vt 0.484037 0.192974
vt 0.482515 0.199718
vt 0.482031 0.203466
vt 0.471031 0.215007
vt 0.470720 0.207490
vt 0.469791 0.200286
vt 0.468279 0.193675
vt 0.466241 0.187910
vt 0.463757 0.183213
vt 0.460921 0.179765
vt 0.457843 0.177697
vt 0.454641 0.177088
vt 0.451438 0.177960
vt 0.448359 0.180277
vt 0.445520 0.183949
vt 0.443033 0.188832
vt 0.440992 0.194739
vt 0.439476 0.201442
vt 0.438542 0.208687
vt 0.438227 0.216197
vt 0.419515 0.131946
vt 0.625000 0.726503
vt 0.625000 0.731029
vt 0.656250 0.731029
vt 0.656250 0.726503
vt 0.687500 0.731029
vt 0.687500 0.726503
vt 0.218750 0.726503
vt 0.218750 0.731029
vt 0.250000 0.731029
vt 0.250000 0.726503
vt 0.781250 0.726503
vt 0.781250 0.731029
vt 0.812500 0.731029
vt 0.812500 0.726503
vt 0.843750 0.726503
vt 0.843750 0.731029
vt 0.875000 0.731029
vt 0.875000 0.726503
vt 0.000000 0.726503
vt 0.000000 0.731029
vt 0.031250 0.731029
vt 0.031250 0.726503
vt 0.468750 0.726503
vt 0.468750 0.731029
vt 0.500000 0.731029
vt 0.500000 0.726503
vt 0.156250 0.726503
vt 0.156250 0.731029
vt 0.187500 0.731029
vt 0.187500 0.726503
vt 0.531250 0.731029
vt 0.531250 0.726503
vt 0.062500 0.731029
vt 0.062500 0.726503
vt 0.906250 0.731029
vt 0.906250 0.726503
vt 0.406250 0.726503
vt 0.406250 0.731029
vt 0.437500 0.731029
vt 0.437500 0.726503
vt 0.937500 0.731029
vt 0.937500 0.726503
vt 0.593750 0.726503
vt 0.593750 0.731029
vt 0.093750 0.726503
vt 0.093750 0.731029
vt 0.125000 0.731029
vt 0.125000 0.726503
vt 0.414612 0.968826
vt 0.434487 0.881291
vt 0.434844 0.889027
vt 0.435864 0.896468
vt 0.437509 0.903329
vt 0.439714 0.909346
vt 0.442395 0.914288
vt 0.445449 0.917965
vt 0.448760 0.920235
vt 0.452198 0.921011
vt 0.455633 0.920264
vt 0.458932 0.918023
vt 0.461967 0.914373
vt 0.464623 0.909455
vt 0.466798 0.903458
vt 0.468407 0.896612
vt 0.469389 0.889180
vt 0.469706 0.881449
vt 0.481531 0.892842
vt 0.482057 0.896669
vt 0.483704 0.903529
vt 0.485912 0.909545
vt 0.488595 0.914486
vt 0.491652 0.918161
vt 0.494963 0.920431
vt 0.498403 0.921207
vt 0.501838 0.920460
vt 0.505138 0.918218
vt 0.506352 0.916758
vt 0.561029 0.969442
vt 0.562500 0.726503
vt 0.562500 0.731029
vt 0.375000 0.726503
vt 0.375000 0.731029
vt 0.312500 0.726503
vt 0.312500 0.731029
vt 0.343750 0.731029
vt 0.343750 0.726503
vt 0.968750 0.726503
vt 0.968750 0.731029
vt 1.000000 0.731029
vt 1.000000 0.726503
vt 0.281250 0.731029
vt 0.281250 0.726503
vt 0.718750 0.726503
vt 0.718750 0.731029
vt 0.750000 0.731029
vt 0.750000 0.726503
vt 0.625000 0.726503
vt 0.625000 0.731029
vt 0.656250 0.731029
vt 0.656250 0.726503
vt 0.687500 0.731029
vt 0.687500 0.726503
vt 0.218750 0.726503
vt 0.218750 0.731029
vt 0.250000 0.731029
vt 0.250000 0.726503
vt 0.781250 0.726503
vt 0.781250 0.731029
vt 0.812500 0.731029
vt 0.812500 0.726503
vt 0.843750 0.726503
vt 0.843750 0.731029
vt 0.875000 0.731029
vt 0.875000 0.726503
vt 0.000000 0.726503
vt 0.000000 0.731029
vt 0.031250 0.731029
vt 0.031250 0.726503
vt 0.468750 0.726503
vt 0.468750 0.731029
vt 0.500000 0.731028
vt 0.500000 0.726503
vt 0.156250 0.726503
vt 0.156250 0.731029
vt 0.175002 0.731029
vt 0.187500 0.731029
vt 0.187500 0.726503
vt 0.175002 0.726503
vt 0.531250 0.731028
vt 0.531250 0.726503
vt 0.062500 0.731029
vt 0.062500 0.726503
vt 0.906250 0.731029
vt 0.906250 0.726503
vt 0.406250 0.726503
vt 0.406250 0.731029
vt 0.437500 0.731029
vt 0.437500 0.726503
vt 0.937500 0.731029
vt 0.937500 0.726503
vt 0.593750 0.726503
vt 0.593750 0.731029
vt 0.093750 0.726503
vt 0.093750 0.731029
vt 0.125000 0.731028
vt 0.125000 0.726503
vt 0.562500 0.726503
vt 0.562500 0.731029
vt 0.375000 0.726503
vt 0.375000 0.731029
vt 0.312500 0.726503
vt 0.312500 0.731029
vt 0.343750 0.731029
vt 0.343750 0.726503
vt 0.968750 0.726503
vt 0.968750 0.731029
vt 1.000000 0.731029
vt 1.000000 0.726503
vt 0.281250 0.731029
vt 0.281250 0.726503
vt 0.453576 0.731029
vt 0.453576 0.726503
vt 0.375000 0.327116
vt 0.375000 0.330685
vt 0.539288 0.330685
vt 0.625000 0.330685
vt 0.625000 0.327116
vt 0.435449 0.753411
vt 0.435598 0.815946
vt 0.452604 0.815736
vt 0.452551 0.794292
vt 0.461527 0.810296
vt 0.461541 0.816064
vt 0.464739 0.816024
vt 0.485752 0.853491
vt 0.483578 0.859488
vt 0.481970 0.866334
vt 0.480989 0.873765
vt 0.480672 0.881495
vt 0.481033 0.889230
vt 0.469347 0.873714
vt 0.468325 0.866274
vt 0.466679 0.859414
vt 0.464473 0.853397
vt 0.461792 0.848455
vt 0.458739 0.844778
vt 0.455430 0.842507
vt 0.451994 0.841729
vt 0.448562 0.842475
vt 0.445265 0.844715
vt 0.442231 0.848365
vt 0.439575 0.853282
vt 0.437401 0.859280
vt 0.435791 0.866126
vt 0.434807 0.873558
vt 0.494421 0.251990
vt 0.479402 0.285761
vt 0.479405 0.278522
vt 0.463558 0.278802
vt 0.463545 0.321417
vt 0.455218 0.340140
vt 0.455234 0.279402
vt 0.439404 0.279578
vt 0.438542 0.223686
vt 0.439475 0.230868
vt 0.440989 0.237467
vt 0.443027 0.243231
vt 0.445510 0.247937
vt 0.448342 0.251405
vt 0.451416 0.253499
vt 0.454614 0.254138
vt 0.457812 0.253295
vt 0.460888 0.251001
vt 0.463724 0.247344
vt 0.466211 0.242463
vt 0.468253 0.236547
vt 0.469773 0.229822
vt 0.470711 0.222549
vt 0.481573 0.207011
vt 0.481250 0.214574
vt 0.481558 0.222105
vt 0.482486 0.229319
vt 0.483997 0.235940
vt 0.486032 0.241718
vt 0.488513 0.246432
vt 0.491346 0.249900
vt 0.162536 0.750000
vt 0.166105 0.750000
vt 0.205685 0.500000
vt 0.202116 0.500000
vt 0.375000 0.958895
vt 0.375000 0.962464
vt 0.625000 0.962463
vt 0.625000 0.958895
vt 0.833895 0.750000
vt 0.837463 0.750000
vt 0.797884 0.500000
vt 0.794315 0.500000
vt 0.375000 0.327116
vt 0.375000 0.330685
vt 0.625000 0.330685
vt 0.625000 0.327116
vt 0.595220 0.327116
vt 0.162537 0.750000
vt 0.166105 0.750000
vt 0.205685 0.500000
vt 0.202116 0.500000
vt 0.375000 0.958895
vt 0.375000 0.962463
vt 0.449656 0.962464
vt 0.625000 0.962464
vt 0.625000 0.958895
vt 0.601941 0.958895
vt 0.833895 0.750000
vt 0.837464 0.750000
vt 0.797884 0.500000
vt 0.794315 0.500000
vt 0.826457 0.703021
vt 0.518851 0.411806
vt 0.518647 0.406685
vt 0.518026 0.401770
vt 0.517012 0.397241
vt 0.515643 0.393283
vt 0.513973 0.390045
vt 0.512065 0.387648
vt 0.509993 0.386190
vt 0.507837 0.385721
vt 0.505679 0.386260
vt 0.503602 0.387786
vt 0.501687 0.390243
vt 0.500007 0.393531
vt 0.498627 0.397526
vt 0.497599 0.402073
vt 0.496965 0.406992
vt 0.496746 0.412111
vt 0.479356 0.339465
vt 0.497620 0.252619
vt 0.500820 0.251761
vt 0.503899 0.249449
vt 0.506739 0.245768
vt 0.509230 0.240860
vt 0.511278 0.234912
vt 0.512803 0.228153
vt 0.513747 0.220843
vt 0.514073 0.213264
vt 0.513769 0.205709
vt 0.512844 0.198471
vt 0.511337 0.191828
vt 0.509304 0.186035
vt 0.506823 0.181318
vt 0.218750 0.715256
vt 0.218750 0.721948
vt 0.250000 0.721948
vt 0.250000 0.715256
vt 0.000000 0.715256
vt 0.000000 0.721948
vt 0.031250 0.721948
vt 0.031250 0.715256
vt 0.468750 0.715256
vt 0.468750 0.721948
vt 0.500000 0.721948
vt 0.500000 0.715256
vt 0.156250 0.715256
vt 0.156250 0.721948
vt 0.187500 0.721948
vt 0.187500 0.715256
vt 0.531250 0.721948
vt 0.531250 0.715256
vt 0.062500 0.721948
vt 0.062500 0.715256
vt 0.406250 0.715256
vt 0.406250 0.721948
vt 0.437500 0.721948
vt 0.437500 0.715256
vt 0.093750 0.715256
vt 0.093750 0.721948
vt 0.125000 0.721948
vt 0.125000 0.715256
vt 0.478376 0.753327
vt 0.496939 0.678627
vt 0.497183 0.683860
vt 0.497875 0.688889
vt 0.498988 0.693529
vt 0.500479 0.697598
vt 0.502291 0.700940
vt 0.504355 0.703432
vt 0.506590 0.704964
vt 0.508912 0.705491
vt 0.511230 0.704986
vt 0.513457 0.703475
vt 0.515505 0.701010
vt 0.517297 0.697686
vt 0.518763 0.693633
vt 0.519847 0.689003
vt 0.520508 0.683980
vt 0.520719 0.678753
vt 0.508173 0.914569
vt 0.510828 0.909652
vt 0.513000 0.903655
vt 0.514606 0.896810
vt 0.515586 0.889380
vt 0.515901 0.881650
vt 0.515539 0.873917
vt 0.514513 0.866477
vt 0.512864 0.859618
vt 0.510657 0.853602
vt 0.507973 0.848662
vt 0.504918 0.844985
vt 0.501608 0.842715
vt 0.498171 0.841938
vt 0.494738 0.842684
vt 0.491441 0.844925
vt 0.488407 0.848574
vt 0.478550 0.815853
vt 0.562500 0.715256
vt 0.562500 0.721948
vt 0.574712 0.721948
vt 0.574712 0.715256
vt 0.375000 0.715256
vt 0.375000 0.721948
vt 0.312500 0.715256
vt 0.312500 0.721948
vt 0.343750 0.721948
vt 0.343750 0.715256
vt 0.968750 0.715256
vt 0.968750 0.721948
vt 1.000000 0.721948
vt 1.000000 0.715256
vt 0.281250 0.721948
vt 0.281250 0.715256
vt 0.937500 0.715256
vt 0.937500 0.721948
vt 0.925288 0.715256
vt 0.925288 0.721948
vt 0.375000 0.345974
vt 0.375000 0.348137
vt 0.625000 0.348137
vt 0.625000 0.345974
vt 0.220974 0.750000
vt 0.223137 0.750000
vt 0.223137 0.694856
vt 0.220974 0.694856
vt 0.375000 0.901863
vt 0.375000 0.904026
vt 0.625000 0.904026
vt 0.625000 0.901863
vt 0.776863 0.750000
vt 0.779026 0.750000
vt 0.779026 0.698975
vt 0.776863 0.698975
vt 0.779026 0.500000
vt 0.776863 0.500000
vt 0.776863 0.555483
vt 0.779026 0.555483
vt 0.490747 0.659514
vt 0.470226 0.591456
vt 0.470234 0.580938
vt 0.467047 0.580914
vt 0.464002 0.570816
vt 0.463793 0.565736
vt 0.463168 0.560819
vt 0.462151 0.556325
vt 0.460783 0.552368
vt 0.459113 0.549124
vt 0.457208 0.546712
vt 0.455140 0.545224
vt 0.452990 0.544719
vt 0.450839 0.545215
vt 0.448771 0.546690
vt 0.446864 0.549089
vt 0.445194 0.552320
vt 0.443822 0.556256
vt 0.442804 0.560748
vt 0.442177 0.565622
vt 0.441965 0.570696
vt 0.441380 0.580694
vt 0.436169 0.580617
vt 0.439406 0.340196
vt 0.463531 0.339608
vt 0.496952 0.417218
vt 0.497575 0.422120
vt 0.497972 0.423884
vt 0.490988 0.424013
vt 0.218750 0.715256
vt 0.218750 0.721948
vt 0.250000 0.721948
vt 0.250000 0.715256
vt 0.000000 0.715256
vt 0.000000 0.721948
vt 0.031250 0.721948
vt 0.031250 0.715256
vt 0.468750 0.715256
vt 0.468750 0.721948
vt 0.500000 0.721948
vt 0.500000 0.715256
vt 0.156250 0.715256
vt 0.156250 0.721948
vt 0.187500 0.721948
vt 0.187500 0.715256
vt 0.531250 0.721948
vt 0.531250 0.715256
vt 0.062500 0.721948
vt 0.062500 0.715256
vt 0.406250 0.715256
vt 0.406250 0.721948
vt 0.437500 0.721948
vt 0.437500 0.715256
vt 0.093750 0.715256
vt 0.093750 0.721948
vt 0.125000 0.721948
vt 0.125000 0.715256
vt 0.431146 0.413591
vt 0.431357 0.505366
vt 0.436977 0.505401
vt 0.437634 0.515743
vt 0.437875 0.520976
vt 0.438563 0.526009
vt 0.439671 0.530650
vt 0.441159 0.534723
vt 0.442966 0.538067
vt 0.445027 0.540558
vt 0.447258 0.542095
vt 0.449576 0.542624
vt 0.451892 0.542123
vt 0.454116 0.540611
vt 0.456162 0.538157
vt 0.457954 0.534822
vt 0.459420 0.530766
vt 0.460506 0.526141
vt 0.461168 0.521115
vt 0.461383 0.515889
vt 0.464645 0.505575
vt 0.468080 0.505596
vt 0.468050 0.494806
vt 0.490034 0.425289
vt 0.490728 0.666528
vt 0.498238 0.666569
vt 0.497814 0.668378
vt 0.497152 0.673399
vt 0.461375 0.753537
vt 0.452446 0.753204
vt 0.562500 0.715256
vt 0.562500 0.721948
vt 0.563019 0.721948
vt 0.563019 0.715256
vt 0.375000 0.715256
vt 0.375000 0.721948
vt 0.312500 0.715256
vt 0.312500 0.721948
vt 0.343750 0.721948
vt 0.343750 0.715256
vt 0.968750 0.715256
vt 0.968750 0.721948
vt 1.000000 0.721948
vt 1.000000 0.715256
vt 0.281250 0.721948
vt 0.281250 0.715256
vt 0.937500 0.715256
vt 0.937500 0.721948
vt 0.781250 0.715256
vt 0.781250 0.721948
vt 0.812500 0.721948
vt 0.812500 0.715256
vt 0.906250 0.715256
vt 0.906250 0.721948
vt 0.937500 0.721948
vt 0.937500 0.715256
vt 0.843750 0.721948
vt 0.843750 0.715256
vt 0.750000 0.715256
vt 0.750000 0.721948
vt 0.875000 0.715256
vt 0.875000 0.721948
vt 0.220974 0.534369
vt 0.223137 0.534369
vt 0.223137 0.500000
vt 0.220974 0.500000
vt 0.718750 0.715256
vt 0.718750 0.721948
vt 0.656250 0.715256
vt 0.656250 0.721948
vt 0.687500 0.721948
vt 0.687500 0.715256
vt 0.500000 0.715256
vt 0.500000 0.721948
vt 0.531250 0.721948
vt 0.531250 0.715256
vt 0.562500 0.721948
vt 0.562500 0.715256
vt 0.625000 0.715256
vt 0.625000 0.721948
vt 0.968750 0.715256
vt 0.968750 0.721948
vt 1.000000 0.721948
vt 1.000000 0.715256
vt 0.000000 0.715256
vt 0.000000 0.721948
vt 0.011512 0.721948
vt 0.011512 0.715256
vt 0.488488 0.715256
vt 0.488488 0.721948
vt 0.593750 0.721948
vt 0.593750 0.715256
vt 0.438530 0.505412
vt 0.438512 0.505488
vt 0.437850 0.510515
vt 0.460433 0.505549
vt 0.461141 0.510660
vt 0.460452 0.505626
vt 0.375000 0.345974
vt 0.375000 0.348137
vt 0.599538 0.348138
vt 0.625000 0.348137
vt 0.625000 0.345974
vt 0.599538 0.345974
vt 0.776863 0.750000
vt 0.779026 0.750000
vt 0.779026 0.711726
vt 0.779026 0.701139
vt 0.776863 0.701139
vt 0.776863 0.711726
vt 0.779026 0.500000
vt 0.776863 0.500000
vt 0.776863 0.523385
vt 0.776863 0.552059
vt 0.779026 0.552059
vt 0.779026 0.523385
vt 0.463141 0.580893
vt 0.463158 0.580818
vt 0.463788 0.575911
vt 0.442818 0.580731
vt 0.442176 0.575772
vt 0.442802 0.580656
vt 0.936981 0.715256
vt 0.936981 0.721948
vt 0.375000 0.901863
vt 0.375000 0.904026
vt 0.408493 0.904026
vt 0.625000 0.904026
vt 0.625000 0.901863
vt 0.408493 0.901863
vt 0.220974 0.750000
vt 0.223137 0.750000
vt 0.223137 0.705950
vt 0.220974 0.705950
vt 0.781250 0.715256
vt 0.781250 0.721948
vt 0.812500 0.721948
vt 0.812500 0.715256
vt 0.906250 0.715256
vt 0.906250 0.721948
vt 0.937500 0.721948
vt 0.937500 0.715256
vt 0.843750 0.721948
vt 0.843750 0.715256
vt 0.750000 0.715256
vt 0.750000 0.721948
vt 0.875000 0.715256
vt 0.875000 0.721948
vt 0.718750 0.715256
vt 0.718750 0.721948
vt 0.656250 0.715256
vt 0.656250 0.721948
vt 0.687500 0.721948
vt 0.687500 0.715256
vt 0.500000 0.715256
vt 0.500000 0.721948
vt 0.531250 0.721948
vt 0.531250 0.715256
vt 0.562500 0.721948
vt 0.562500 0.715256
vt 0.625000 0.715256
vt 0.625000 0.721948
vt 0.968750 0.715256
vt 0.968750 0.721948
vt 1.000000 0.721948
vt 1.000000 0.715256
vt 0.000000 0.715256
vt 0.000000 0.721948
vt 0.029476 0.721948
vt 0.029476 0.715257
vt 0.220974 0.547248
vt 0.223137 0.547248
vt 0.223137 0.500000
vt 0.220974 0.500000
vt 0.470524 0.715257
vt 0.470524 0.721948
vt 0.593750 0.721948
vt 0.593750 0.715256
vt 0.375000 0.327116
vt 0.375000 0.330685
vt 0.625000 0.330685
vt 0.625000 0.327116
vt 0.431113 0.399395
vt 0.433148 0.274674
vt 0.433300 0.337212
vt 0.450235 0.337022
vt 0.456794 0.324079
vt 0.456833 0.337362
vt 0.473766 0.337192
vt 0.473620 0.290878
vt 0.483070 0.272231
vt 0.483287 0.340314
vt 0.519071 0.340551
vt 0.518803 0.259677
vt 0.489536 0.259473
vt 0.519418 0.200508
vt 0.521020 0.203470
vt 0.523395 0.206349
vt 0.525968 0.208124
vt 0.528639 0.208738
vt 0.531300 0.208172
vt 0.533870 0.206413
vt 0.536224 0.203576
vt 0.538285 0.199741
vt 0.539971 0.195066
vt 0.541204 0.189749
vt 0.541977 0.183928
vt 0.542219 0.177897
vt 0.541937 0.171860
vt 0.541138 0.166053
vt 0.539855 0.160696
vt 0.520475 0.673517
vt 0.519782 0.668491
vt 0.519347 0.666677
vt 0.527513 0.666719
vt 0.526736 0.425510
vt 0.521691 0.425479
vt 0.521769 0.423553
vt 0.521526 0.418323
vt 0.520837 0.413289
vt 0.519726 0.408648
vt 0.518241 0.404574
vt 0.516433 0.401230
vt 0.514373 0.398741
vt 0.512144 0.397200
vt 0.509827 0.396679
vt 0.507515 0.397174
vt 0.505294 0.398689
vt 0.503249 0.401151
vt 0.501461 0.404476
vt 0.499997 0.408526
vt 0.498914 0.413156
vt 0.498253 0.418181
vt 0.498040 0.423410
vt 0.498129 0.425337
vt 0.467811 0.399590
vt 0.460875 0.399553
vt 0.461077 0.394624
vt 0.460834 0.389396
vt 0.460144 0.384366
vt 0.459036 0.379727
vt 0.457550 0.375657
vt 0.455746 0.372322
vt 0.453690 0.369835
vt 0.451459 0.368289
vt 0.449144 0.367760
vt 0.446822 0.368221
vt 0.444614 0.369786
vt 0.442566 0.372234
vt 0.440778 0.375563
vt 0.439312 0.379612
vt 0.438228 0.384244
vt 0.437566 0.389268
vt 0.437351 0.394496
vt 0.437579 0.399429
vt 0.554218 0.957087
vt 0.534519 0.927183
vt 0.535674 0.924974
vt 0.537251 0.920466
vt 0.538220 0.916195
vt 0.162536 0.750000
vt 0.166105 0.750000
vt 0.205685 0.500000
vt 0.202116 0.500000
vt 0.375000 0.958895
vt 0.375000 0.962464
vt 0.625000 0.962463
vt 0.625000 0.958895
vt 0.833895 0.750000
vt 0.837463 0.750000
vt 0.797884 0.500000
vt 0.794315 0.500000
vt 0.475842 0.744937
vt 0.460157 0.744196
vt 0.460144 0.790755
vt 0.454043 0.744295
vt 0.442182 0.683352
vt 0.441982 0.688137
vt 0.442192 0.693217
vt 0.442817 0.698112
vt 0.443832 0.702630
vt 0.445199 0.706606
vt 0.446861 0.709889
vt 0.448761 0.712336
vt 0.450812 0.713911
vt 0.452972 0.714390
vt 0.455104 0.713995
vt 0.457168 0.712550
vt 0.459069 0.710185
vt 0.460733 0.706995
vt 0.462101 0.703077
vt 0.463117 0.698604
vt 0.463743 0.693734
vt 0.463956 0.688657
vt 0.463758 0.683862
vt 0.470181 0.684014
vt 0.498253 0.659631
vt 0.498174 0.661508
vt 0.498381 0.666610
vt 0.499003 0.671524
vt 0.500015 0.676062
vt 0.501379 0.680043
vt 0.503043 0.683326
vt 0.504943 0.685771
vt 0.507005 0.687299
vt 0.509149 0.687832
vt 0.511296 0.687373
vt 0.513361 0.685916
vt 0.515267 0.683528
vt 0.516935 0.680297
vt 0.518309 0.676353
vt 0.519330 0.671845
vt 0.519961 0.666948
vt 0.520177 0.661852
vt 0.520101 0.659971
vt 0.524779 0.660044
vt 0.525184 0.423515
vt 0.517592 0.423645
vt 0.517994 0.421867
vt 0.518630 0.416937
vt 0.538426 0.915286
vt 0.539159 0.909604
vt 0.539415 0.903683
vt 0.539181 0.897739
vt 0.538473 0.892020
vt 0.537313 0.886729
vt 0.535747 0.882083
vt 0.533834 0.878246
vt 0.531649 0.875376
vt 0.529274 0.873563
vt 0.526804 0.872920
vt 0.524331 0.873432
vt 0.522098 0.874989
vt 0.501389 0.822058
vt 0.517636 0.822548
vt 0.517788 0.743141
vt 0.484647 0.742248
vt 0.484596 0.779135
vt 0.475832 0.756735
vt 0.375000 0.327116
vt 0.375000 0.330685
vt 0.439804 0.330685
vt 0.625000 0.330685
vt 0.625000 0.327116
vt 0.576601 0.327116
vt 0.162537 0.750000
vt 0.166105 0.750000
vt 0.205685 0.500000
vt 0.202116 0.500000
vt 0.375000 0.958895
vt 0.375000 0.962463
vt 0.433407 0.962463
vt 0.625000 0.962463
vt 0.625000 0.958895
vt 0.571888 0.958895
vt 0.833895 0.750000
vt 0.837463 0.750000
vt 0.797884 0.500000
vt 0.794315 0.500000
vt 0.375000 0.345246
vt 0.375000 0.347464
vt 0.625000 0.347464
vt 0.625000 0.345246
vt 0.220246 0.750000
vt 0.222464 0.750000
vt 0.222464 0.704519
vt 0.222464 0.500000
vt 0.220246 0.500000
vt 0.220246 0.622625
vt 0.777536 0.750000
vt 0.779754 0.750000
vt 0.779754 0.500000
vt 0.777536 0.500000
vt 0.375000 0.902536
vt 0.375000 0.904754
vt 0.508484 0.904754
vt 0.625000 0.904754
vt 0.625000 0.902536
vt 0.414575 0.902536
vt 0.718750 0.719899
vt 0.718750 0.725696
vt 0.750000 0.725696
vt 0.750000 0.719899
vt 0.521951 0.875089
vt 0.519763 0.877784
vt 0.517843 0.881456
vt 0.516266 0.885964
vt 0.515093 0.891136
vt 0.460133 0.804984
vt 0.475788 0.805911
vt 0.484552 0.821305
vt 0.625000 0.719899
vt 0.625000 0.725696
vt 0.656250 0.725696
vt 0.656250 0.719899
vt 0.687500 0.725696
vt 0.687500 0.719899
vt 0.218750 0.719899
vt 0.218750 0.725696
vt 0.250000 0.725696
vt 0.250000 0.719899
vt 0.781250 0.719899
vt 0.781250 0.725696
vt 0.812500 0.725696
vt 0.812500 0.719899
vt 0.843750 0.719899
vt 0.843750 0.725696
vt 0.875000 0.725696
vt 0.875000 0.719899
vt 0.856204 0.719899
vt 0.000000 0.719899
vt 0.000000 0.725696
vt 0.031250 0.725696
vt 0.031250 0.719899
vt 0.468750 0.719899
vt 0.468750 0.725696
vt 0.500000 0.725696
vt 0.500000 0.719899
vt 0.156250 0.719899
vt 0.156250 0.725696
vt 0.187500 0.725696
vt 0.187500 0.719899
vt 0.531250 0.725696
vt 0.531250 0.719899
vt 0.062500 0.725696
vt 0.062500 0.719899
vt 0.904264 0.725696
vt 0.906250 0.725696
vt 0.906250 0.719899
vt 0.406250 0.719899
vt 0.406250 0.725696
vt 0.437500 0.725696
vt 0.437500 0.719899
vt 0.937500 0.725696
vt 0.937500 0.719899
vt 0.932057 0.719899
vt 0.593750 0.719899
vt 0.593750 0.725696
vt 0.093750 0.719899
vt 0.093750 0.725696
vt 0.125000 0.725696
vt 0.125000 0.719899
vt 0.562500 0.719899
vt 0.562500 0.725696
vt 0.375000 0.719899
vt 0.375000 0.725696
vt 0.312500 0.719899
vt 0.312500 0.725696
vt 0.343750 0.725696
vt 0.343750 0.719899
vt 0.968750 0.719899
vt 0.968750 0.725696
vt 1.000000 0.725696
vt 1.000000 0.719899
vt 0.281250 0.725696
vt 0.281250 0.719899
vt 0.467168 0.718957
vt 0.310565 0.719899
vt 0.367733 0.725696
vt 0.718750 0.719899
vt 0.718750 0.725696
vt 0.750000 0.725696
vt 0.750000 0.719899
vt 0.478487 0.906751
vt 0.479203 0.912432
vt 0.480368 0.917691
vt 0.481936 0.922328
vt 0.483849 0.926163
vt 0.486031 0.929052
vt 0.488400 0.930882
vt 0.490864 0.931582
vt 0.493328 0.931126
vt 0.495698 0.929532
vt 0.497883 0.926859
vt 0.499799 0.923210
vt 0.501372 0.918728
vt 0.502542 0.913582
vt 0.503263 0.907971
vt 0.514361 0.908519
vt 0.515077 0.914202
vt 0.516241 0.919464
vt 0.517809 0.924103
vt 0.519722 0.927942
vt 0.521904 0.930832
vt 0.524272 0.932662
vt 0.526736 0.933363
vt 0.529200 0.932907
vt 0.531570 0.931311
vt 0.533755 0.928638
vt 0.448453 0.927178
vt 0.450822 0.929008
vt 0.453285 0.929709
vt 0.455749 0.929254
vt 0.458119 0.927660
vt 0.460304 0.924989
vt 0.462220 0.921343
vt 0.463792 0.916862
vt 0.625000 0.719899
vt 0.625000 0.725696
vt 0.656250 0.725696
vt 0.656250 0.719900
vt 0.687500 0.725696
vt 0.687500 0.719899
vt 0.218750 0.719899
vt 0.218750 0.725696
vt 0.250000 0.725696
vt 0.250000 0.719899
vt 0.781250 0.719899
vt 0.781250 0.725696
vt 0.812500 0.725696
vt 0.812500 0.719899
vt 0.843750 0.719899
vt 0.843750 0.725696
vt 0.875000 0.725696
vt 0.875000 0.719899
vt 0.000000 0.719900
vt 0.000000 0.725696
vt 0.031250 0.725696
vt 0.031250 0.719900
vt 0.468750 0.719899
vt 0.468750 0.725696
vt 0.500000 0.725696
vt 0.500000 0.719899
vt 0.156250 0.719899
vt 0.156250 0.725696
vt 0.187500 0.725696
vt 0.187500 0.719899
vt 0.531250 0.725696
vt 0.531250 0.719899
vt 0.062500 0.725696
vt 0.062500 0.719899
vt 0.906250 0.725696
vt 0.906250 0.719900
vt 0.406250 0.719899
vt 0.406250 0.725696
vt 0.437500 0.725696
vt 0.437500 0.719899
vt 0.937500 0.725696
vt 0.937500 0.719899
vt 0.593750 0.719899
vt 0.593750 0.725696
vt 0.093750 0.719900
vt 0.093750 0.725696
vt 0.125000 0.725696
vt 0.125000 0.719899
vt 0.441421 0.151431
vt 0.439360 0.155265
vt 0.437673 0.159941
vt 0.436423 0.165282
vt 0.435659 0.171081
vt 0.435412 0.177117
vt 0.435690 0.183155
vt 0.436482 0.188966
vt 0.437758 0.194325
vt 0.439469 0.199027
vt 0.441550 0.202890
vt 0.443920 0.205766
vt 0.446488 0.207546
vt 0.449155 0.208160
vt 0.451820 0.207584
vt 0.454379 0.205842
vt 0.456734 0.202999
vt 0.458795 0.199167
vt 0.460482 0.194491
vt 0.461731 0.189150
vt 0.462494 0.183351
vt 0.462741 0.177317
vt 0.462463 0.171278
vt 0.461671 0.165468
vt 0.476346 0.183454
vt 0.477140 0.189264
vt 0.478416 0.194622
vt 0.480128 0.199323
vt 0.482208 0.203187
vt 0.484578 0.206064
vt 0.487146 0.207843
vt 0.489813 0.208457
vt 0.492477 0.207882
vt 0.495035 0.206140
vt 0.497390 0.203298
vt 0.499451 0.199465
vt 0.501138 0.194789
vt 0.502386 0.189450
vt 0.503149 0.183651
vt 0.515154 0.183740
vt 0.515946 0.189550
vt 0.517223 0.194908
vt 0.518934 0.199610
vt 0.483036 0.259425
vt 0.473578 0.274670
vt 0.456666 0.274837
vt 0.450076 0.274495
vt 0.562500 0.719899
vt 0.562500 0.725696
vt 0.375000 0.719899
vt 0.375000 0.725696
vt 0.312500 0.719899
vt 0.312500 0.725696
vt 0.343750 0.725696
vt 0.343750 0.719899
vt 0.968750 0.719899
vt 0.968750 0.725696
vt 1.000000 0.725696
vt 1.000000 0.719900
vt 0.281250 0.725696
vt 0.281250 0.719899
vt 0.718750 0.719899
vt 0.718750 0.725696
vt 0.750000 0.725696
vt 0.750000 0.719899
vt 0.625000 0.719899
vt 0.625000 0.725696
vt 0.656250 0.725696
vt 0.656250 0.719899
vt 0.680366 0.725696
vt 0.687500 0.725696
vt 0.687500 0.719899
vt 0.680366 0.719899
vt 0.218750 0.719899
vt 0.218750 0.725696
vt 0.250000 0.725696
vt 0.250000 0.719899
vt 0.781250 0.719899
vt 0.781250 0.725696
vt 0.812500 0.725696
vt 0.812500 0.719899
vt 0.843750 0.719899
vt 0.843750 0.725696
vt 0.875000 0.725696
vt 0.875000 0.719899
vt 0.000000 0.719899
vt 0.000000 0.725696
vt 0.031250 0.725696
vt 0.031250 0.719899
vt 0.468750 0.719899
vt 0.468750 0.725696
vt 0.500000 0.725696
vt 0.500000 0.719899
vt 0.156250 0.719899
vt 0.156250 0.725696
vt 0.187500 0.725696
vt 0.187500 0.719899
vt 0.531250 0.725696
vt 0.531250 0.719899
vt 0.062500 0.725696
vt 0.062500 0.719899
vt 0.906250 0.725696
vt 0.906250 0.719899
vt 0.406250 0.719899
vt 0.406250 0.725696
vt 0.437500 0.725696
vt 0.437500 0.719899
vt 0.934497 0.725696
vt 0.937500 0.725696
vt 0.937500 0.719899
vt 0.934497 0.719899
vt 0.593750 0.719899
vt 0.593750 0.725696
vt 0.093750 0.719899
vt 0.093750 0.725696
vt 0.125000 0.725696
vt 0.125000 0.719899
vt 0.562500 0.719899
vt 0.562500 0.725696
vt 0.375000 0.719899
vt 0.375000 0.725696
vt 0.312500 0.719899
vt 0.312500 0.725696
vt 0.343750 0.725696
vt 0.343750 0.719899
vt 0.968750 0.719899
vt 0.968750 0.725696
vt 1.000000 0.725696
vt 1.000000 0.719899
vt 0.281250 0.725696
vt 0.281250 0.719899
vn -0.0000 -0.0000 -1.0000
vn 0.0000 0.0000 1.0000
vn 0.1249 0.9922 0.0000
vn 0.7240 0.6898 0.0000
vn 0.5643 0.8256 0.0000
vn -0.1250 -0.9922 0.0002
vn -0.3617 0.9323 0.0000
vn -0.1249 0.9922 0.0000
vn -0.7239 0.6899 0.0000
vn -0.9970 -0.0768 0.0000
vn 0.9970 -0.0768 0.0000
vn -0.5643 -0.8256 0.0000
vn 0.9970 0.0768 0.0000
vn -0.9730 -0.2308 0.0000
vn -0.8416 0.5401 -0.0001
vn 0.9226 -0.3857 0.0001
vn -0.9226 0.3857 0.0000
vn 0.8416 0.5401 0.0000
vn -0.8416 -0.5401 0.0000
vn -0.3616 -0.9323 -0.0000
vn 0.9226 0.3857 0.0000
vn 0.8416 -0.5401 0.0001
vn 0.5643 -0.8256 0.0002
vn -0.9970 0.0768 0.0000
vn -0.5643 0.8256 0.0000
vn 0.1250 -0.9922 0.0002
vn 0.3617 0.9323 -0.0002
vn 0.9730 -0.2308 0.0000
vn -0.9226 -0.3857 0.0000
vn -0.9730 0.2308 0.0000
vn 0.9730 0.2308 0.0000
vn 0.3616 -0.9323 0.0000
vn -0.7239 -0.6899 0.0000
vn 0.7240 -0.6898 0.0000
vn 0.5643 0.8256 -0.0001
vn -0.1250 -0.9922 0.0000
vn -0.3616 0.9323 0.0000
vn -0.8416 0.5401 0.0000
vn 0.9226 -0.3857 -0.0001
vn 0.8416 -0.5401 -0.0001
vn 0.5643 -0.8256 0.0000
vn -0.5643 0.8256 -0.0002
vn 0.1250 -0.9922 0.0000
vn 0.3616 0.9323 0.0000
vn -0.9226 -0.3856 0.0000
vn -0.7240 -0.6898 0.0000
vn 0.7239 -0.6899 0.0000
vn -1.0000 0.0000 -0.0000
vn 0.0097 1.0000 0.0000
vn 1.0000 0.0000 0.0000
vn -0.0097 -1.0000 0.0002
vn -0.0097 -1.0000 0.0000
vn 0.9226 -0.3857 0.0000
vn 0.8416 -0.5401 0.0000
vn 0.0000 1.0000 -0.0001
vn 0.0000 -1.0000 0.0000
vn 0.5643 -0.8256 -0.0001
vn 0.3616 -0.9323 -0.0001
vn -0.1250 0.9922 0.0000
vn 0.1250 0.9922 0.0000
vn 0.7239 0.6899 0.0000
vn -0.9227 0.3854 0.0000
vn 0.0000 1.0000 0.0000
vn 0.9226 0.3856 0.0000
vn -0.7240 0.6898 0.0000
vn 1.0000 0.0000 -0.0001
vn 0.1249 0.9922 -0.0001
vn -0.1250 0.9922 -0.0001
vn -0.3617 -0.9323 0.0000
vn -0.3617 -0.9323 0.0001
vn 0.3617 0.9323 0.0000
vn -0.1249 -0.9922 0.0000
vn -0.9226 0.3856 0.0000
vn 0.1249 -0.9922 0.0000
vn 0.3617 -0.9323 0.0000
usemtl Material.001
s off
f 204/528/73 502/529/73 504/530/73 559/531/73 555/532/73 553/533/73 603/534/73 602/535/73 605/536/73 657/537/73 659/538/73 661/539/73 688/540/73 686/541/73 690/542/73 712/543/73 704/544/73 701/545/73 667/546/73 663/547/73 665/548/73 669/549/73 703/550/73 675/551/73 671/552/73 673/553/73 783/554/73 782/555/73 785/556/73 721/557/73 723/558/73 725/559/73 753/560/73 751/561/73 755/562/73 779/563/73 771/564/73 767/565/73 731/566/73 727/567/73 729/568/73 733/569/73 769/570/73 739/571/73 735/572/73 737/573/73 749/574/73 775/575/73 759/576/73 761/577/73 719/578/73 765/579/73
f 205/580/74 612/581/74 640/582/74 644/583/74 616/584/74 609/585/74 614/586/74 626/587/74 632/588/74 584/589/74 630/590/74 628/591/74 642/592/74 618/593/74 604/594/74 656/595/74 716/596/74 714/597/74 678/598/74 707/599/74 710/600/74 682/601/74 677/602/74 681/603/74 692/604/74 699/605/74 655/606/74 696/607/74 694/608/74 708/609/74 684/610/74 672/611/74 780/612/74 742/613/74 772/614/74 776/615/74 746/616/74 740/617/74 744/618/74 756/619/74 762/620/74 764/621/74 203/622/74
f 245/623/75 246/624/75 234/625/75 233/626/75
f 202/627/73 332/628/73 333/629/73 323/630/73 319/631/73 283/632/73 279/633/73 281/634/73 285/635/73 321/636/73 293/637/73 290/638/73 209/639/73 211/640/73 213/641/73 241/642/73 239/643/73 243/644/73 265/645/73 257/646/73 253/647/73 219/648/73 215/649/73 217/650/73 221/651/73 255/652/73 227/653/73 223/654/73 225/655/73 200/656/73
f 249/657/76 250/658/76 208/659/76 207/660/76
f 207/660/77 208/659/77 252/661/77 251/662/77
f 257/663/78 258/664/78 254/665/78 253/666/78
f 229/667/79 230/668/79 236/669/79 235/670/79
f 233/626/80 234/625/80 230/668/80 229/667/80
f 263/671/81 264/672/81 260/673/81 259/674/81
f 209/675/82 210/676/82 212/677/82 211/678/82
f 223/679/83 224/680/83 226/681/83 225/682/83
f 243/683/84 244/684/84 266/685/84 265/686/84
f 225/682/85 226/681/85 238/687/85 237/688/85
f 211/678/86 212/677/86 214/689/86 213/690/86
f 259/674/87 260/673/87 232/691/87 231/692/87
f 255/693/88 256/694/88 228/695/88 227/696/88
f 231/692/89 232/691/89 268/697/89 267/698/89
f 247/699/90 248/700/90 250/658/90 249/657/90
f 241/701/91 242/702/91 240/703/91 239/704/91
f 265/686/92 266/685/92 258/664/92 257/663/92
f 199/705/74 226/706/74 224/707/74 228/708/74 256/709/74 222/710/74 218/711/74 216/712/74 220/713/74 254/714/74 258/715/74 266/716/74 244/717/74 240/718/74 242/719/74 214/720/74 212/721/74 210/722/74 288/723/74 294/724/74 322/725/74 286/726/74 282/727/74 280/728/74 284/729/74 320/730/74 324/731/74 334/732/74 331/733/74 201/734/74
f 261/735/93 262/736/93 248/700/93 247/699/93
f 221/737/94 222/738/94 256/694/94 255/693/94
f 215/739/95 216/740/95 218/741/95 217/742/95
f 269/743/96 270/744/96 210/745/96 209/746/96
f 235/670/97 236/669/97 264/672/97 263/671/97
f 253/666/98 254/665/98 220/747/98 219/748/98
f 251/662/99 252/661/99 246/624/99 245/623/99
f 227/696/100 228/695/100 224/680/100 223/679/100
f 213/690/101 214/689/101 242/702/101 241/701/101
f 267/698/102 268/697/102 270/744/102 269/743/102
f 237/688/103 238/687/103 262/736/103 261/735/103
f 219/748/104 220/747/104 216/740/104 215/739/104
f 239/704/105 240/703/105 244/684/105 243/683/105
f 217/742/106 218/741/106 222/738/106 221/737/106
f 312/749/75 311/750/75 299/751/75 300/752/75
f 316/753/76 315/754/76 271/755/76 272/756/76
f 272/756/107 271/755/107 317/757/107 318/758/107
f 323/759/108 324/760/108 320/761/108 319/762/108
f 296/763/109 295/764/109 301/765/109 302/766/109
f 300/752/80 299/751/80 295/764/80 296/763/80
f 330/767/81 329/768/81 325/769/81 326/770/81
f 274/771/82 273/772/82 275/773/82 276/774/82
f 289/775/83 287/776/83 291/777/83 292/778/83
f 310/779/84 309/780/84 331/781/84 334/782/84 333/783/84 332/784/84
f 292/778/85 291/777/85 303/785/85 304/786/85
f 276/774/86 275/773/86 277/787/86 278/788/86
f 326/770/110 325/769/110 297/789/110 298/790/110
f 321/791/111 322/792/111 294/793/111 293/794/111
f 298/790/89 297/789/89 335/795/89 336/796/89
f 314/797/90 313/798/90 315/754/90 316/753/90
f 308/799/91 307/800/91 305/801/91 306/802/91
f 333/783/92 334/782/92 324/760/92 323/759/92
f 328/803/93 327/804/93 313/798/93 314/797/93
f 285/805/112 286/806/112 322/792/112 321/791/112
f 279/807/113 280/808/113 282/809/113 281/810/113
f 338/811/96 337/812/96 273/813/96 274/814/96
f 302/766/114 301/765/114 329/768/114 330/767/114
f 319/762/115 320/761/115 284/815/115 283/816/115
f 318/758/116 317/757/116 311/750/116 312/749/116
f 293/794/100 294/793/100 288/817/100 287/776/100 289/775/100 290/818/100
f 278/788/117 277/787/117 307/800/117 308/799/117
f 336/796/102 335/795/102 337/812/102 338/811/102
f 304/786/103 303/785/103 327/804/103 328/803/103
f 283/816/104 284/815/104 280/808/104 279/807/104
f 306/802/118 305/801/118 309/780/118 310/779/118
f 281/810/119 282/809/119 286/806/119 285/805/119
f 341/819/120 339/820/120 340/821/120 344/822/120 345/823/120
f 199/705/74 342/824/74 346/825/74 344/826/74 340/827/74 358/828/74 355/829/74 356/830/74 315/831/74 313/832/74 327/833/74 303/834/74 291/835/74 287/836/74 288/723/74 210/722/74 270/837/74 268/838/74 232/839/74 260/840/74 264/841/74 236/842/74 230/843/74 234/844/74 246/845/74 252/846/74 208/847/74 250/848/74 248/849/74 262/850/74 238/851/74 226/706/74
f 312/852/73 352/853/73 353/854/73 357/855/73 359/856/73 341/857/73 345/858/73 347/859/73 200/656/73 225/655/73 237/860/73 261/861/73 247/862/73 249/863/73 207/864/73 251/865/73 245/866/73 233/867/73 229/868/73 235/869/73 263/870/73 259/871/73 231/872/73 267/873/73 269/874/73 209/639/73 290/638/73 289/875/73 292/876/73 304/877/73 328/878/73 314/879/73 316/880/73 272/881/73 318/882/73
f 343/883/121 342/884/121 339/885/121 341/886/121
f 342/887/122 343/888/122 347/889/122 346/890/122
f 346/891/123 347/892/123 345/893/123 344/894/123
f 349/895/120 348/896/120 354/897/120 353/898/120 352/899/120
f 351/900/121 350/901/121 348/902/121 349/903/121
f 350/904/122 351/905/122 359/906/122 357/907/122 355/908/122 358/909/122
f 355/910/124 357/911/124 353/912/124 354/913/124 356/914/124
f 202/627/73 361/915/73 363/916/73 365/917/73 385/918/73 383/919/73 387/920/73 397/921/73 393/922/73 389/923/73 371/924/73 367/925/73 369/926/73 373/927/73 391/928/73 379/929/73 375/930/73 377/931/73 349/932/73 352/853/73 312/852/73 300/933/73 296/934/73 302/935/73 330/936/73 326/937/73 298/938/73 336/939/73 338/940/73 274/941/73 276/942/73 278/943/73 308/944/73 306/945/73 310/946/73 332/628/73
f 393/947/108 392/948/108 388/949/108 389/950/108
f 361/951/82 360/952/82 362/953/82 363/954/82
f 375/955/83 374/956/83 376/957/83 377/958/83
f 387/959/84 386/960/84 396/961/84 397/962/84
f 377/958/85 376/957/85 380/963/85 381/964/85
f 363/954/86 362/953/86 364/965/86 365/966/86
f 391/967/125 390/968/125 378/969/125 379/970/125
f 385/971/91 384/972/91 382/973/91 383/974/91
f 397/962/92 396/961/92 392/948/92 393/947/92
f 348/975/74 376/976/74 374/977/74 378/978/74 390/979/74 372/980/74 368/981/74 366/982/74 370/983/74 388/984/74 392/985/74 396/986/74 386/987/74 382/988/74 384/989/74 364/990/74 362/991/74 360/992/74 201/734/74 331/733/74 309/993/74 305/994/74 307/995/74 277/996/74 275/997/74 273/998/74 337/999/74 335/1000/74 297/1001/74 325/1002/74 329/1003/74 301/1004/74 295/1005/74 299/1006/74 311/1007/74 317/1008/74 271/1009/74 315/831/74 356/830/74 354/1010/74
f 395/1011/93 394/1012/93 412/1013/93 413/1014/93
f 373/1015/126 372/1016/126 390/968/126 391/967/126
f 367/1017/113 366/1018/113 368/1019/113 369/1020/113
f 401/1021/96 400/1022/96 360/1023/96 361/1024/96
f 389/950/115 388/949/115 370/1025/115 371/1026/115
f 379/970/100 378/969/100 374/956/100 375/955/100
f 365/966/101 364/965/101 384/972/101 385/971/101
f 399/1027/102 398/1028/102 400/1022/102 401/1021/102
f 381/964/103 380/963/103 394/1012/103 395/1011/103
f 371/1026/104 370/1025/104 366/1018/104 367/1017/104
f 383/974/105 382/973/105 386/960/105 387/959/105
f 369/1020/119 368/1019/119 372/1016/119 373/1015/119
f 404/1029/89 405/1030/89 398/1028/89 399/1027/89
f 410/1031/120 411/1032/120 403/1033/120 402/1034/120
f 408/1035/127 409/1036/127 462/1037/127 463/1038/127
f 409/1039/122 408/1040/122 407/1041/122 406/1042/122
f 406/1043/128 407/1044/128 413/1045/128 412/1046/128
f 402/1047/128 403/1048/128 405/1049/128 404/1050/128
f 408/1051/73 512/1052/73 495/1053/73 496/1054/73 415/1055/73 417/1056/73 419/1057/73 439/1058/73 437/1059/73 441/1060/73 451/1061/73 447/1062/73 443/1063/73 425/1064/73 421/1065/73 423/1066/73 427/1067/73 445/1068/73 433/1069/73 429/1070/73 431/1071/73 508/1072/73 500/1073/73 502/529/73 204/528/73 200/656/73 347/859/73 343/1074/73 341/857/73 359/856/73 351/1075/73 349/932/73 377/931/73 381/1076/73 395/1077/73 413/1078/73 407/1079/73
f 447/1080/108 446/1081/108 442/1082/108 443/1083/108
f 415/1084/82 414/1085/82 416/1086/82 417/1087/82
f 429/1088/83 428/1089/83 430/1090/83 431/1091/83
f 441/1092/84 440/1093/84 450/1094/84 451/1095/84
f 431/1091/85 430/1090/85 434/1096/85 435/1097/85
f 417/1087/86 416/1086/86 418/1098/86 419/1099/86
f 445/1100/125 444/1101/125 432/1102/125 433/1103/125
f 439/1104/91 438/1105/91 436/1106/91 437/1107/91
f 451/1095/92 450/1094/92 446/1081/92 447/1080/92
f 203/622/74 503/1108/74 501/1109/74 509/1110/74 430/1111/74 428/1112/74 432/1113/74 444/1114/74 426/1115/74 422/1116/74 420/1117/74 424/1118/74 442/1119/74 446/1120/74 450/1121/74 440/1122/74 436/1123/74 438/1124/74 418/1125/74 416/1126/74 414/1127/74 497/1128/74 494/1129/74 513/1130/74 409/1131/74 406/1132/74 412/1133/74 394/1134/74 380/1135/74 376/976/74 348/975/74 350/1136/74 358/828/74 340/827/74 339/1137/74 342/824/74 199/705/74
f 449/1138/93 448/1139/93 511/1140/93 510/1141/93
f 427/1142/126 426/1143/126 444/1101/126 445/1100/126
f 421/1144/129 420/1145/129 422/1146/129 423/1147/129
f 455/1148/96 454/1149/96 414/1150/96 415/1151/96
f 443/1083/115 442/1082/115 424/1152/115 425/1153/115
f 433/1103/100 432/1102/100 428/1089/100 429/1088/100
f 419/1099/101 418/1098/101 438/1105/101 439/1104/101
f 453/1154/102 452/1155/102 454/1149/102 455/1148/102
f 435/1097/103 434/1096/103 448/1139/103 449/1138/103
f 425/1153/130 424/1152/130 420/1145/130 421/1144/130
f 437/1107/105 436/1106/105 440/1093/105 441/1092/105
f 423/1147/119 422/1146/119 426/1143/119 427/1142/119
f 467/1156/109 466/1157/109 472/1158/109 473/1159/109
f 469/1160/89 468/1161/89 490/1162/89 491/1163/89
f 473/1159/97 472/1158/97 488/1164/97 489/1165/97
f 471/1166/131 470/1167/131 466/1157/131 467/1156/131
f 485/1168/110 484/1169/110 468/1161/110 469/1160/110
f 459/1170/127 458/1171/127 411/1172/127 410/1173/127
f 477/1174/132 476/1175/132 470/1167/132 471/1166/132
f 457/1176/77 456/1177/77 482/1178/77 483/1179/77
f 483/1179/116 482/1178/116 476/1175/116 477/1174/116
f 465/1180/85 464/1181/85 474/1182/85 475/1183/85
f 475/1183/103 474/1182/103 486/1184/103 487/1185/103
f 481/1186/133 480/1187/133 456/1177/133 457/1176/133
f 493/1188/96 492/1189/96 460/1190/96 461/1191/96
f 461/1192/82 460/1193/82 458/1194/82 459/1195/82
f 464/1181/83 465/1180/83 463/1196/83 462/1197/83
f 491/1163/102 490/1162/102 492/1189/102 493/1188/102
f 487/1185/93 486/1184/93 478/1198/93 479/1199/93
f 479/1199/90 478/1198/90 480/1187/90 481/1186/90
f 489/1165/81 488/1164/81 484/1169/81 485/1168/81
f 509/1110/74 511/1200/74 448/1201/74 434/1202/74 430/1111/74
f 498/1203/74 497/1128/74 414/1127/74 454/1204/74 452/1205/74
f 507/1206/120 506/1207/120 513/1208/120 494/1209/120 495/1210/120 512/1211/120
f 501/1212/128 500/1213/128 508/1214/128 510/1215/128 511/1216/128 509/1217/128
f 495/1218/128 494/1219/128 497/1220/128 498/1221/128 499/1222/128 496/1223/128
f 496/1054/73 499/1224/73 453/1225/73 455/1226/73 415/1055/73
f 510/1227/73 508/1072/73 431/1071/73 435/1228/73 449/1229/73
f 499/1230/134 498/1231/134 452/1155/134 453/1154/134
f 505/1232/122 504/1233/122 502/1234/122 500/1235/122 501/1236/122 503/1237/122
f 504/1238/135 505/1239/135 521/1240/135 520/1241/135
f 524/1242/109 525/1243/109 531/1244/109 530/1245/109
f 526/1246/89 527/1247/89 549/1248/89 548/1249/89
f 530/1245/97 531/1244/97 547/1250/97 546/1251/97
f 528/1252/131 529/1253/131 525/1243/131 524/1242/131
f 542/1254/110 543/1255/110 527/1247/110 526/1246/110
f 534/1256/132 535/1257/132 529/1253/132 528/1252/132
f 514/1258/77 515/1259/77 541/1260/77 540/1261/77
f 540/1261/116 541/1260/116 535/1257/116 534/1256/116
f 522/1262/85 523/1263/85 533/1264/85 532/1265/85
f 532/1265/103 533/1264/103 545/1266/103 544/1267/103
f 538/1268/133 539/1269/133 515/1259/133 514/1258/133
f 550/1270/96 551/1271/96 517/1272/96 516/1273/96
f 516/1274/82 517/1275/82 519/1276/82 518/1277/82
f 518/1278/135 519/1279/135 506/1280/135 507/1281/135
f 523/1263/83 522/1262/83 520/1282/83 521/1283/83
f 548/1249/102 549/1248/102 551/1271/102 550/1270/102
f 544/1267/136 545/1266/136 537/1284/136 536/1285/136
f 536/1285/90 537/1284/90 539/1269/90 538/1268/90
f 546/1251/137 547/1250/137 543/1255/137 542/1254/137
f 553/1286/120 552/1287/120 556/1288/120 557/1289/120
f 505/1290/74 554/1291/74 558/1292/74 556/1293/74 570/1294/74 568/1295/74 565/1296/74 560/1297/74 583/1298/74 580/1299/74 581/1300/74 575/1301/74 572/1302/74 606/1303/74 595/1304/74 592/1305/74 597/1306/74 634/1307/74 638/1308/74 647/1309/74 624/1310/74 620/1311/74 622/1312/74 590/1313/74 588/1314/74 586/1315/74 652/1316/74 649/1317/74 611/1318/74 612/581/74 205/580/74 201/734/74 360/992/74 400/1319/74 398/1320/74 405/1321/74 403/1322/74 411/1323/74 458/1324/74 460/1325/74 492/1326/74 490/1327/74 468/1328/74 484/1329/74 488/1330/74 472/1331/74 466/1332/74 470/1333/74 476/1334/74 482/1335/74 456/1336/74 480/1337/74 478/1338/74 486/1339/74 474/1340/74 464/1341/74 462/1342/74 409/1131/74 513/1130/74 506/1343/74 519/1344/74 517/1345/74 551/1346/74 549/1347/74 527/1348/74 543/1349/74 547/1350/74 531/1351/74 525/1352/74 529/1353/74 535/1354/74 541/1355/74 515/1356/74 539/1357/74 537/1358/74 545/1359/74 533/1360/74 523/1361/74 521/1362/74
f 206/1363/73 646/1364/73 641/1365/73 613/1366/73 651/1367/73
f 555/1368/121 554/1369/121 552/1370/121 553/1371/121
f 554/1372/122 555/1373/122 559/1374/122 558/1375/122
f 558/1376/124 559/1377/124 557/1378/124 556/1379/124
f 567/1380/73 569/1381/73 571/1382/73 553/533/73 557/1383/73 559/531/73 504/530/73 520/1384/73 522/1385/73 532/1386/73 544/1387/73 536/1388/73 538/1389/73 514/1390/73 540/1391/73 534/1392/73 528/1393/73 524/1394/73 530/1395/73 546/1396/73 542/1397/73 526/1398/73 548/1399/73 550/1400/73 516/1401/73 518/1402/73 507/1403/73 512/1052/73 408/1051/73 463/1404/73 465/1405/73 475/1406/73 487/1407/73 479/1408/73 481/1409/73 457/1410/73 483/1411/73 477/1412/73 471/1413/73 467/1414/73 473/1415/73 489/1416/73 485/1417/73 469/1418/73 491/1419/73 493/1420/73 461/1421/73 459/1422/73 410/1423/73 402/1424/73 404/1425/73 399/1426/73 401/1427/73 361/915/73 202/627/73 206/1363/73 651/1367/73 650/1428/73 653/1429/73 587/1430/73 589/1431/73 591/1432/73 623/1433/73 621/1434/73 625/1435/73 648/1436/73 639/1437/73 635/1438/73 598/1439/73 593/1440/73 577/1441/73 576/1442/73 582/1443/73 578/1444/73 579/1445/73 566/1446/73
f 561/1447/120 562/1448/120 560/1449/120 565/1450/120 567/1451/120 566/1452/120
f 563/1453/121 564/1454/121 562/1455/121 561/1456/121
f 564/1457/138 563/1458/138 571/1459/138 569/1460/138 568/1461/138 570/1462/138
f 568/1463/124 569/1464/124 567/1465/124 565/1466/124
f 576/1467/120 575/1468/120 581/1469/120 582/1470/120
f 574/1471/135 573/1472/135 572/1473/135 575/1474/135 576/1475/135 577/1476/135
f 580/1477/128 578/1478/128 582/1479/128 581/1480/128
f 573/1481/122 574/1482/122 579/1483/122 578/1484/122 580/1485/122 583/1486/122
f 627/1487/139 626/1488/139 614/1489/139 615/1490/139
f 593/1440/73 594/1491/73 596/1492/73 600/1493/73 637/1494/73 608/1495/73 603/534/73 553/533/73 571/1382/73 563/1496/73 561/1497/73 566/1446/73 579/1445/73 574/1498/73 577/1441/73
f 631/1499/133 630/1500/133 584/1501/133 585/1502/133
f 585/1502/77 584/1501/77 632/1503/77 633/1504/77
f 639/1505/108 638/1506/108 634/1507/108 635/1508/108
f 610/1509/79 609/1510/79 616/1511/79 617/1512/79
f 615/1490/140 614/1489/140 609/1510/140 610/1509/140
f 645/1513/137 644/1514/137 640/1515/137 641/1516/137 646/1517/137
f 587/1518/82 586/1519/82 588/1520/82 589/1521/82
f 602/1522/83 601/1523/83 604/1524/83 605/1525/83
f 625/1526/84 624/1527/84 647/1528/84 648/1529/84
f 605/1525/85 604/1524/85 618/1530/85 619/1531/85
f 589/1521/86 588/1520/86 590/1532/86 591/1533/86
f 641/1516/110 640/1515/110 612/1534/110 611/1535/110 613/1536/110
f 637/1537/125 636/1538/125 607/1539/125 608/1540/125
f 613/1536/89 611/1535/89 649/1541/89 650/1542/89 651/1543/89
f 629/1544/90 628/1545/90 630/1500/90 631/1499/90
f 623/1546/91 622/1547/91 620/1548/91 621/1549/91
f 648/1529/141 647/1528/141 638/1506/141 639/1505/141
f 643/1550/93 642/1551/93 628/1545/93 629/1544/93
f 600/1552/126 599/1553/126 636/1538/126 637/1537/126
f 594/1554/113 592/1555/113 595/1556/113 596/1557/113
f 653/1558/96 652/1559/96 586/1560/96 587/1561/96
f 617/1512/97 616/1511/97 644/1514/97 645/1513/97
f 635/1508/115 634/1507/115 597/1562/115 598/1563/115
f 633/1504/116 632/1503/116 626/1488/116 627/1487/116
f 608/1540/100 607/1539/100 601/1523/100 602/1522/100 603/1564/100
f 591/1533/117 590/1532/117 622/1547/117 623/1546/117
f 650/1542/102 649/1541/102 652/1559/102 653/1558/102
f 619/1531/103 618/1530/103 642/1551/103 643/1550/103
f 598/1563/104 597/1562/104 592/1555/104 594/1554/104 593/1565/104
f 621/1549/118 620/1548/118 624/1527/118 625/1526/118
f 596/1557/119 595/1556/119 606/1566/119 599/1553/119 600/1552/119
f 693/1567/139 692/1568/139 681/1569/139 680/1570/139
f 685/1571/73 709/1572/73 695/1573/73 697/1574/73 654/1575/73 698/1576/73 693/1577/73 680/1578/73 676/1579/73 683/1580/73 711/1581/73 706/1582/73 679/1583/73 715/1584/73 717/1585/73 657/537/73 605/536/73 619/1586/73 643/1587/73 629/1588/73 631/1589/73 585/1590/73 633/1591/73 627/1592/73 615/1593/73 610/1594/73 617/1595/73 645/1596/73 646/1364/73 206/1363/73 204/528/73 765/579/73 763/1597/73 757/1598/73 745/1599/73 741/1600/73 747/1601/73 777/1602/73 773/1603/73 743/1604/73 783/554/73 673/553/73
f 697/1605/133 696/1606/133 655/1607/133 654/1608/133
f 654/1608/77 655/1607/77 699/1609/77 698/1610/77
f 704/1611/108 705/1612/108 700/1613/108 701/1614/108
f 676/1615/79 677/1616/79 682/1617/79 683/1618/79
f 680/1570/140 681/1569/140 677/1616/140 676/1615/140
f 711/1619/81 710/1620/81 707/1621/81 706/1622/81
f 657/1623/82 656/1624/82 658/1625/82 659/1626/82
f 671/1627/83 670/1628/83 672/1629/83 673/1630/83
f 690/1631/84 691/1632/84 713/1633/84 712/1634/84
f 673/1630/85 672/1629/85 684/1635/85 685/1636/85
f 659/1626/86 658/1625/86 660/1637/86 661/1638/86
f 706/1622/110 707/1621/110 678/1639/110 679/1640/110
f 703/1641/125 702/1642/125 674/1643/125 675/1644/125
f 679/1640/89 678/1639/89 714/1645/89 715/1646/89
f 695/1647/90 694/1648/90 696/1606/90 697/1605/90
f 688/1649/91 689/1650/91 687/1651/91 686/1652/91
f 712/1634/142 713/1633/142 705/1612/142 704/1611/142
f 203/622/74 764/621/74 718/1653/74 760/1654/74 758/1655/74 774/1656/74 748/1657/74 736/1658/74 734/1659/74 738/1660/74 768/1661/74 732/1662/74 728/1663/74 726/1664/74 730/1665/74 766/1666/74 770/1667/74 778/1668/74 754/1669/74 750/1670/74 752/1671/74 724/1672/74 722/1673/74 720/1674/74 784/1675/74 781/1676/74 780/612/74 672/611/74 670/1677/74 674/1678/74 702/1679/74 668/1680/74 664/1681/74 662/1682/74 666/1683/74 700/1684/74 705/1685/74 713/1686/74 691/1687/74 687/1688/74 689/1689/74 660/1690/74 658/1691/74 656/595/74 604/594/74 601/1692/74 607/1693/74 636/1694/74 599/1695/74 606/1303/74 572/1302/74 573/1696/74 583/1298/74 560/1297/74 562/1697/74 564/1698/74 570/1294/74 556/1293/74 552/1699/74 554/1291/74 505/1290/74 503/1108/74
f 709/1700/136 708/1701/136 694/1648/136 695/1647/136
f 669/1702/126 668/1703/126 702/1642/126 703/1641/126
f 663/1704/113 662/1705/113 664/1706/113 665/1707/113
f 717/1708/96 716/1709/96 656/1710/96 657/1711/96
f 683/1618/97 682/1617/97 710/1620/97 711/1619/97
f 701/1614/115 700/1613/115 666/1712/115 667/1713/115
f 698/1610/143 699/1609/143 692/1568/143 693/1567/143
f 675/1644/100 674/1643/100 670/1628/100 671/1627/100
f 661/1638/101 660/1637/101 689/1650/101 688/1649/101
f 715/1646/102 714/1645/102 716/1709/102 717/1708/102
f 685/1636/103 684/1635/103 708/1701/103 709/1700/103
f 667/1713/104 666/1712/104 662/1705/104 663/1704/104
f 686/1652/105 687/1651/105 691/1632/105 690/1631/105
f 665/1707/119 664/1706/119 668/1703/119 669/1702/119
f 757/1714/132 756/1715/132 744/1716/132 745/1717/132
f 761/1718/133 760/1719/133 718/1720/133 719/1721/133
f 719/1721/77 718/1720/77 764/1722/77 762/1723/77 763/1724/77 765/1725/77
f 771/1726/144 770/1727/144 766/1728/144 767/1729/144
f 741/1730/109 740/1731/109 746/1732/109 747/1733/109
f 745/1717/80 744/1716/80 740/1731/80 741/1730/80
f 777/1734/81 776/1735/81 772/1736/81 773/1737/81
f 721/1738/82 720/1739/82 722/1740/82 723/1741/82
f 735/1742/83 734/1743/83 736/1744/83 737/1745/83
f 755/1746/84 754/1747/84 778/1748/84 779/1749/84
f 737/1745/85 736/1744/85 748/1750/85 749/1751/85
f 723/1741/86 722/1740/86 724/1752/86 725/1753/86
f 773/1737/110 772/1736/110 742/1754/110 743/1755/110
f 769/1756/125 768/1757/125 738/1758/125 739/1759/125
f 743/1755/145 742/1754/145 780/1760/145 781/1761/145 782/1762/145 783/1763/145
f 759/1764/90 758/1765/90 760/1719/90 761/1718/90
f 753/1766/91 752/1767/91 750/1768/91 751/1769/91
f 779/1749/92 778/1748/92 770/1727/92 771/1726/92
f 775/1770/93 774/1771/93 758/1765/93 759/1764/93
f 733/1772/126 732/1773/126 768/1757/126 769/1756/126
f 727/1774/113 726/1775/113 728/1776/113 729/1777/113
f 785/1778/96 784/1779/96 720/1780/96 721/1781/96
f 747/1733/97 746/1732/97 776/1735/97 777/1734/97
f 767/1729/146 766/1728/146 730/1782/146 731/1783/146
f 763/1724/143 762/1723/143 756/1715/143 757/1714/143
f 739/1759/100 738/1758/100 734/1743/100 735/1742/100
f 725/1753/101 724/1752/101 752/1767/101 753/1766/101
f 782/1762/102 781/1761/102 784/1779/102 785/1778/102
f 749/1751/103 748/1750/103 774/1771/103 775/1770/103
f 731/1783/147 730/1782/147 726/1775/147 727/1774/147
f 751/1769/118 750/1768/118 754/1747/118 755/1746/118
f 729/1777/119 728/1776/119 732/1773/119 733/1772/119
o slider_Cube.001
v -0.421505 0.460481 -1.549758
v -0.382602 0.460048 -1.549437
v -0.382995 0.857890 -1.548768
v -0.421678 0.858442 -1.549496
v -0.383623 0.857835 -1.502323
v -0.422306 0.858387 -1.503051
v -0.383230 0.459993 -1.502993
v -0.422133 0.460426 -1.503313
v -0.382607 0.857924 -1.577470
v -0.421290 0.858476 -1.578197
v -0.382214 0.460082 -1.578139
v -0.421117 0.460514 -1.578460
vt 0.000000 0.000000
vt 0.000000 0.000000
vt 0.000000 0.000000
vt 0.000000 0.000000
vt 0.000000 0.000000
vt 0.000000 0.000000
vt 0.000000 0.000000
vt 0.000000 0.000000
vt 0.000000 0.000000
vt 0.000000 0.000000
vt 0.000000 0.000000
vt 0.000000 0.000000
vn -0.0143 -0.9999 -0.0014
vn -0.9999 -0.0004 -0.0135
vn -0.9999 -0.0010 -0.0135
vn 0.0111 0.9999 0.0013
vn 0.9999 0.0004 0.0135
vn 0.0135 0.0012 -0.9999
vn 0.0143 0.9999 0.0014
vn 0.9999 0.0010 0.0135
vn -0.0111 -0.9999 -0.0013
usemtl Material
s off
f 789/1784/148 788/1785/148 790/1786/148 791/1787/148
f 793/1788/149 791/1787/149 795/1789/149 797/1790/149
f 788/1785/150 787/1791/150 792/1792/150 790/1786/150
f 787/1791/151 786/1793/151 793/1788/151 792/1792/151
f 786/1793/152 789/1784/152 791/1787/152 793/1788/152
f 794/1794/153 796/1795/153 797/1790/153 795/1789/153
f 791/1787/154 790/1786/154 794/1794/154 795/1789/154
f 790/1786/155 792/1792/155 796/1795/155 794/1794/155
f 792/1792/156 793/1788/156 797/1790/156 796/1795/156
